<?xml version="1.0" encoding="utf-8" standalone="no"?>
<!DOCTYPE svg PUBLIC "-//W3C//DTD SVG 1.1//EN"
  "http://www.w3.org/Graphics/SVG/1.1/DTD/svg11.dtd">
<!-- Created with matplotlib (https://matplotlib.org/) -->
<svg height="360.4225pt" version="1.1" viewBox="0 0 537.3225 360.4225" width="537.3225pt" xmlns="http://www.w3.org/2000/svg" xmlns:xlink="http://www.w3.org/1999/xlink">
 <defs>
  <style type="text/css">
*{stroke-linecap:butt;stroke-linejoin:round;}
  </style>
 </defs>
 <g id="figure_1">
  <g id="patch_1">
   <path d="M 0 360.4225 
L 537.3225 360.4225 
L 537.3225 0 
L 0 0 
z
" style="fill:#ffffff;"/>
  </g>
  <g id="axes_1">
   <g id="patch_2">
    <path d="M 32.8825 63.88 
L 441.3225 63.88 
L 441.3225 10.7 
L 32.8825 10.7 
z
" style="fill:#ffffff;"/>
   </g>
   <g id="matplotlib.axis_1">
    <g id="xtick_1">
     <g id="line2d_1">
      <path clip-path="url(#p8952ac4fc0)" d="M 32.8825 63.88 
L 32.8825 10.7 
" style="fill:none;stroke:#b0b0b0;stroke-linecap:square;stroke-width:0.8;"/>
     </g>
     <g id="line2d_2">
      <defs>
       <path d="M 0 0 
L 0 3.5 
" id="m66c06efd94" style="stroke:#000000;stroke-width:0.8;"/>
      </defs>
      <g>
       <use style="stroke:#000000;stroke-width:0.8;" x="32.8825" xlink:href="#m66c06efd94" y="63.88"/>
      </g>
     </g>
    </g>
    <g id="xtick_2">
     <g id="line2d_3">
      <path clip-path="url(#p8952ac4fc0)" d="M 54.379342 63.88 
L 54.379342 10.7 
" style="fill:none;stroke:#b0b0b0;stroke-linecap:square;stroke-width:0.8;"/>
     </g>
     <g id="line2d_4">
      <g>
       <use style="stroke:#000000;stroke-width:0.8;" x="54.379342" xlink:href="#m66c06efd94" y="63.88"/>
      </g>
     </g>
    </g>
    <g id="xtick_3">
     <g id="line2d_5">
      <path clip-path="url(#p8952ac4fc0)" d="M 75.876184 63.88 
L 75.876184 10.7 
" style="fill:none;stroke:#b0b0b0;stroke-linecap:square;stroke-width:0.8;"/>
     </g>
     <g id="line2d_6">
      <g>
       <use style="stroke:#000000;stroke-width:0.8;" x="75.876184" xlink:href="#m66c06efd94" y="63.88"/>
      </g>
     </g>
    </g>
    <g id="xtick_4">
     <g id="line2d_7">
      <path clip-path="url(#p8952ac4fc0)" d="M 97.373026 63.88 
L 97.373026 10.7 
" style="fill:none;stroke:#b0b0b0;stroke-linecap:square;stroke-width:0.8;"/>
     </g>
     <g id="line2d_8">
      <g>
       <use style="stroke:#000000;stroke-width:0.8;" x="97.373026" xlink:href="#m66c06efd94" y="63.88"/>
      </g>
     </g>
    </g>
    <g id="xtick_5">
     <g id="line2d_9">
      <path clip-path="url(#p8952ac4fc0)" d="M 118.869868 63.88 
L 118.869868 10.7 
" style="fill:none;stroke:#b0b0b0;stroke-linecap:square;stroke-width:0.8;"/>
     </g>
     <g id="line2d_10">
      <g>
       <use style="stroke:#000000;stroke-width:0.8;" x="118.869868" xlink:href="#m66c06efd94" y="63.88"/>
      </g>
     </g>
    </g>
    <g id="xtick_6">
     <g id="line2d_11">
      <path clip-path="url(#p8952ac4fc0)" d="M 140.366711 63.88 
L 140.366711 10.7 
" style="fill:none;stroke:#b0b0b0;stroke-linecap:square;stroke-width:0.8;"/>
     </g>
     <g id="line2d_12">
      <g>
       <use style="stroke:#000000;stroke-width:0.8;" x="140.366711" xlink:href="#m66c06efd94" y="63.88"/>
      </g>
     </g>
    </g>
    <g id="xtick_7">
     <g id="line2d_13">
      <path clip-path="url(#p8952ac4fc0)" d="M 161.863553 63.88 
L 161.863553 10.7 
" style="fill:none;stroke:#b0b0b0;stroke-linecap:square;stroke-width:0.8;"/>
     </g>
     <g id="line2d_14">
      <g>
       <use style="stroke:#000000;stroke-width:0.8;" x="161.863553" xlink:href="#m66c06efd94" y="63.88"/>
      </g>
     </g>
    </g>
    <g id="xtick_8">
     <g id="line2d_15">
      <path clip-path="url(#p8952ac4fc0)" d="M 183.360395 63.88 
L 183.360395 10.7 
" style="fill:none;stroke:#b0b0b0;stroke-linecap:square;stroke-width:0.8;"/>
     </g>
     <g id="line2d_16">
      <g>
       <use style="stroke:#000000;stroke-width:0.8;" x="183.360395" xlink:href="#m66c06efd94" y="63.88"/>
      </g>
     </g>
    </g>
    <g id="xtick_9">
     <g id="line2d_17">
      <path clip-path="url(#p8952ac4fc0)" d="M 204.857237 63.88 
L 204.857237 10.7 
" style="fill:none;stroke:#b0b0b0;stroke-linecap:square;stroke-width:0.8;"/>
     </g>
     <g id="line2d_18">
      <g>
       <use style="stroke:#000000;stroke-width:0.8;" x="204.857237" xlink:href="#m66c06efd94" y="63.88"/>
      </g>
     </g>
    </g>
    <g id="xtick_10">
     <g id="line2d_19">
      <path clip-path="url(#p8952ac4fc0)" d="M 226.354079 63.88 
L 226.354079 10.7 
" style="fill:none;stroke:#b0b0b0;stroke-linecap:square;stroke-width:0.8;"/>
     </g>
     <g id="line2d_20">
      <g>
       <use style="stroke:#000000;stroke-width:0.8;" x="226.354079" xlink:href="#m66c06efd94" y="63.88"/>
      </g>
     </g>
    </g>
    <g id="xtick_11">
     <g id="line2d_21">
      <path clip-path="url(#p8952ac4fc0)" d="M 247.850921 63.88 
L 247.850921 10.7 
" style="fill:none;stroke:#b0b0b0;stroke-linecap:square;stroke-width:0.8;"/>
     </g>
     <g id="line2d_22">
      <g>
       <use style="stroke:#000000;stroke-width:0.8;" x="247.850921" xlink:href="#m66c06efd94" y="63.88"/>
      </g>
     </g>
    </g>
    <g id="xtick_12">
     <g id="line2d_23">
      <path clip-path="url(#p8952ac4fc0)" d="M 269.347763 63.88 
L 269.347763 10.7 
" style="fill:none;stroke:#b0b0b0;stroke-linecap:square;stroke-width:0.8;"/>
     </g>
     <g id="line2d_24">
      <g>
       <use style="stroke:#000000;stroke-width:0.8;" x="269.347763" xlink:href="#m66c06efd94" y="63.88"/>
      </g>
     </g>
    </g>
    <g id="xtick_13">
     <g id="line2d_25">
      <path clip-path="url(#p8952ac4fc0)" d="M 290.844605 63.88 
L 290.844605 10.7 
" style="fill:none;stroke:#b0b0b0;stroke-linecap:square;stroke-width:0.8;"/>
     </g>
     <g id="line2d_26">
      <g>
       <use style="stroke:#000000;stroke-width:0.8;" x="290.844605" xlink:href="#m66c06efd94" y="63.88"/>
      </g>
     </g>
    </g>
    <g id="xtick_14">
     <g id="line2d_27">
      <path clip-path="url(#p8952ac4fc0)" d="M 312.341447 63.88 
L 312.341447 10.7 
" style="fill:none;stroke:#b0b0b0;stroke-linecap:square;stroke-width:0.8;"/>
     </g>
     <g id="line2d_28">
      <g>
       <use style="stroke:#000000;stroke-width:0.8;" x="312.341447" xlink:href="#m66c06efd94" y="63.88"/>
      </g>
     </g>
    </g>
    <g id="xtick_15">
     <g id="line2d_29">
      <path clip-path="url(#p8952ac4fc0)" d="M 333.838289 63.88 
L 333.838289 10.7 
" style="fill:none;stroke:#b0b0b0;stroke-linecap:square;stroke-width:0.8;"/>
     </g>
     <g id="line2d_30">
      <g>
       <use style="stroke:#000000;stroke-width:0.8;" x="333.838289" xlink:href="#m66c06efd94" y="63.88"/>
      </g>
     </g>
    </g>
    <g id="xtick_16">
     <g id="line2d_31">
      <path clip-path="url(#p8952ac4fc0)" d="M 355.335132 63.88 
L 355.335132 10.7 
" style="fill:none;stroke:#b0b0b0;stroke-linecap:square;stroke-width:0.8;"/>
     </g>
     <g id="line2d_32">
      <g>
       <use style="stroke:#000000;stroke-width:0.8;" x="355.335132" xlink:href="#m66c06efd94" y="63.88"/>
      </g>
     </g>
    </g>
    <g id="xtick_17">
     <g id="line2d_33">
      <path clip-path="url(#p8952ac4fc0)" d="M 376.831974 63.88 
L 376.831974 10.7 
" style="fill:none;stroke:#b0b0b0;stroke-linecap:square;stroke-width:0.8;"/>
     </g>
     <g id="line2d_34">
      <g>
       <use style="stroke:#000000;stroke-width:0.8;" x="376.831974" xlink:href="#m66c06efd94" y="63.88"/>
      </g>
     </g>
    </g>
    <g id="xtick_18">
     <g id="line2d_35">
      <path clip-path="url(#p8952ac4fc0)" d="M 398.328816 63.88 
L 398.328816 10.7 
" style="fill:none;stroke:#b0b0b0;stroke-linecap:square;stroke-width:0.8;"/>
     </g>
     <g id="line2d_36">
      <g>
       <use style="stroke:#000000;stroke-width:0.8;" x="398.328816" xlink:href="#m66c06efd94" y="63.88"/>
      </g>
     </g>
    </g>
    <g id="xtick_19">
     <g id="line2d_37">
      <path clip-path="url(#p8952ac4fc0)" d="M 419.825658 63.88 
L 419.825658 10.7 
" style="fill:none;stroke:#b0b0b0;stroke-linecap:square;stroke-width:0.8;"/>
     </g>
     <g id="line2d_38">
      <g>
       <use style="stroke:#000000;stroke-width:0.8;" x="419.825658" xlink:href="#m66c06efd94" y="63.88"/>
      </g>
     </g>
    </g>
    <g id="xtick_20">
     <g id="line2d_39">
      <path clip-path="url(#p8952ac4fc0)" d="M 441.3225 63.88 
L 441.3225 10.7 
" style="fill:none;stroke:#b0b0b0;stroke-linecap:square;stroke-width:0.8;"/>
     </g>
     <g id="line2d_40">
      <g>
       <use style="stroke:#000000;stroke-width:0.8;" x="441.3225" xlink:href="#m66c06efd94" y="63.88"/>
      </g>
     </g>
    </g>
    <g id="text_1">
     <!-- Lost nodes (%) -->
     <defs>
      <path d="M 9.8125 72.90625 
L 19.671875 72.90625 
L 19.671875 8.296875 
L 55.171875 8.296875 
L 55.171875 0 
L 9.8125 0 
z
" id="DejaVuSans-76"/>
      <path d="M 30.609375 48.390625 
Q 23.390625 48.390625 19.1875 42.75 
Q 14.984375 37.109375 14.984375 27.296875 
Q 14.984375 17.484375 19.15625 11.84375 
Q 23.34375 6.203125 30.609375 6.203125 
Q 37.796875 6.203125 41.984375 11.859375 
Q 46.1875 17.53125 46.1875 27.296875 
Q 46.1875 37.015625 41.984375 42.703125 
Q 37.796875 48.390625 30.609375 48.390625 
z
M 30.609375 56 
Q 42.328125 56 49.015625 48.375 
Q 55.71875 40.765625 55.71875 27.296875 
Q 55.71875 13.875 49.015625 6.21875 
Q 42.328125 -1.421875 30.609375 -1.421875 
Q 18.84375 -1.421875 12.171875 6.21875 
Q 5.515625 13.875 5.515625 27.296875 
Q 5.515625 40.765625 12.171875 48.375 
Q 18.84375 56 30.609375 56 
z
" id="DejaVuSans-111"/>
      <path d="M 44.28125 53.078125 
L 44.28125 44.578125 
Q 40.484375 46.53125 36.375 47.5 
Q 32.28125 48.484375 27.875 48.484375 
Q 21.1875 48.484375 17.84375 46.4375 
Q 14.5 44.390625 14.5 40.28125 
Q 14.5 37.15625 16.890625 35.375 
Q 19.28125 33.59375 26.515625 31.984375 
L 29.59375 31.296875 
Q 39.15625 29.25 43.1875 25.515625 
Q 47.21875 21.78125 47.21875 15.09375 
Q 47.21875 7.46875 41.1875 3.015625 
Q 35.15625 -1.421875 24.609375 -1.421875 
Q 20.21875 -1.421875 15.453125 -0.5625 
Q 10.6875 0.296875 5.421875 2 
L 5.421875 11.28125 
Q 10.40625 8.6875 15.234375 7.390625 
Q 20.0625 6.109375 24.8125 6.109375 
Q 31.15625 6.109375 34.5625 8.28125 
Q 37.984375 10.453125 37.984375 14.40625 
Q 37.984375 18.0625 35.515625 20.015625 
Q 33.0625 21.96875 24.703125 23.78125 
L 21.578125 24.515625 
Q 13.234375 26.265625 9.515625 29.90625 
Q 5.8125 33.546875 5.8125 39.890625 
Q 5.8125 47.609375 11.28125 51.796875 
Q 16.75 56 26.8125 56 
Q 31.78125 56 36.171875 55.265625 
Q 40.578125 54.546875 44.28125 53.078125 
z
" id="DejaVuSans-115"/>
      <path d="M 18.3125 70.21875 
L 18.3125 54.6875 
L 36.8125 54.6875 
L 36.8125 47.703125 
L 18.3125 47.703125 
L 18.3125 18.015625 
Q 18.3125 11.328125 20.140625 9.421875 
Q 21.96875 7.515625 27.59375 7.515625 
L 36.8125 7.515625 
L 36.8125 0 
L 27.59375 0 
Q 17.1875 0 13.234375 3.875 
Q 9.28125 7.765625 9.28125 18.015625 
L 9.28125 47.703125 
L 2.6875 47.703125 
L 2.6875 54.6875 
L 9.28125 54.6875 
L 9.28125 70.21875 
z
" id="DejaVuSans-116"/>
      <path id="DejaVuSans-32"/>
      <path d="M 54.890625 33.015625 
L 54.890625 0 
L 45.90625 0 
L 45.90625 32.71875 
Q 45.90625 40.484375 42.875 44.328125 
Q 39.84375 48.1875 33.796875 48.1875 
Q 26.515625 48.1875 22.3125 43.546875 
Q 18.109375 38.921875 18.109375 30.90625 
L 18.109375 0 
L 9.078125 0 
L 9.078125 54.6875 
L 18.109375 54.6875 
L 18.109375 46.1875 
Q 21.34375 51.125 25.703125 53.5625 
Q 30.078125 56 35.796875 56 
Q 45.21875 56 50.046875 50.171875 
Q 54.890625 44.34375 54.890625 33.015625 
z
" id="DejaVuSans-110"/>
      <path d="M 45.40625 46.390625 
L 45.40625 75.984375 
L 54.390625 75.984375 
L 54.390625 0 
L 45.40625 0 
L 45.40625 8.203125 
Q 42.578125 3.328125 38.25 0.953125 
Q 33.9375 -1.421875 27.875 -1.421875 
Q 17.96875 -1.421875 11.734375 6.484375 
Q 5.515625 14.40625 5.515625 27.296875 
Q 5.515625 40.1875 11.734375 48.09375 
Q 17.96875 56 27.875 56 
Q 33.9375 56 38.25 53.625 
Q 42.578125 51.265625 45.40625 46.390625 
z
M 14.796875 27.296875 
Q 14.796875 17.390625 18.875 11.75 
Q 22.953125 6.109375 30.078125 6.109375 
Q 37.203125 6.109375 41.296875 11.75 
Q 45.40625 17.390625 45.40625 27.296875 
Q 45.40625 37.203125 41.296875 42.84375 
Q 37.203125 48.484375 30.078125 48.484375 
Q 22.953125 48.484375 18.875 42.84375 
Q 14.796875 37.203125 14.796875 27.296875 
z
" id="DejaVuSans-100"/>
      <path d="M 56.203125 29.59375 
L 56.203125 25.203125 
L 14.890625 25.203125 
Q 15.484375 15.921875 20.484375 11.0625 
Q 25.484375 6.203125 34.421875 6.203125 
Q 39.59375 6.203125 44.453125 7.46875 
Q 49.3125 8.734375 54.109375 11.28125 
L 54.109375 2.78125 
Q 49.265625 0.734375 44.1875 -0.34375 
Q 39.109375 -1.421875 33.890625 -1.421875 
Q 20.796875 -1.421875 13.15625 6.1875 
Q 5.515625 13.8125 5.515625 26.8125 
Q 5.515625 40.234375 12.765625 48.109375 
Q 20.015625 56 32.328125 56 
Q 43.359375 56 49.78125 48.890625 
Q 56.203125 41.796875 56.203125 29.59375 
z
M 47.21875 32.234375 
Q 47.125 39.59375 43.09375 43.984375 
Q 39.0625 48.390625 32.421875 48.390625 
Q 24.90625 48.390625 20.390625 44.140625 
Q 15.875 39.890625 15.1875 32.171875 
z
" id="DejaVuSans-101"/>
      <path d="M 31 75.875 
Q 24.46875 64.65625 21.28125 53.65625 
Q 18.109375 42.671875 18.109375 31.390625 
Q 18.109375 20.125 21.3125 9.0625 
Q 24.515625 -2 31 -13.1875 
L 23.1875 -13.1875 
Q 15.875 -1.703125 12.234375 9.375 
Q 8.59375 20.453125 8.59375 31.390625 
Q 8.59375 42.28125 12.203125 53.3125 
Q 15.828125 64.359375 23.1875 75.875 
z
" id="DejaVuSans-40"/>
      <path d="M 72.703125 32.078125 
Q 68.453125 32.078125 66.03125 28.46875 
Q 63.625 24.859375 63.625 18.40625 
Q 63.625 12.0625 66.03125 8.421875 
Q 68.453125 4.78125 72.703125 4.78125 
Q 76.859375 4.78125 79.265625 8.421875 
Q 81.6875 12.0625 81.6875 18.40625 
Q 81.6875 24.8125 79.265625 28.4375 
Q 76.859375 32.078125 72.703125 32.078125 
z
M 72.703125 38.28125 
Q 80.421875 38.28125 84.953125 32.90625 
Q 89.5 27.546875 89.5 18.40625 
Q 89.5 9.28125 84.9375 3.921875 
Q 80.375 -1.421875 72.703125 -1.421875 
Q 64.890625 -1.421875 60.34375 3.921875 
Q 55.8125 9.28125 55.8125 18.40625 
Q 55.8125 27.59375 60.375 32.9375 
Q 64.9375 38.28125 72.703125 38.28125 
z
M 22.3125 68.015625 
Q 18.109375 68.015625 15.6875 64.375 
Q 13.28125 60.75 13.28125 54.390625 
Q 13.28125 47.953125 15.671875 44.328125 
Q 18.0625 40.71875 22.3125 40.71875 
Q 26.5625 40.71875 28.96875 44.328125 
Q 31.390625 47.953125 31.390625 54.390625 
Q 31.390625 60.6875 28.953125 64.34375 
Q 26.515625 68.015625 22.3125 68.015625 
z
M 66.40625 74.21875 
L 74.21875 74.21875 
L 28.609375 -1.421875 
L 20.796875 -1.421875 
z
M 22.3125 74.21875 
Q 30.03125 74.21875 34.609375 68.875 
Q 39.203125 63.53125 39.203125 54.390625 
Q 39.203125 45.171875 34.640625 39.84375 
Q 30.078125 34.515625 22.3125 34.515625 
Q 14.546875 34.515625 10.03125 39.859375 
Q 5.515625 45.21875 5.515625 54.390625 
Q 5.515625 63.484375 10.046875 68.84375 
Q 14.59375 74.21875 22.3125 74.21875 
z
" id="DejaVuSans-37"/>
      <path d="M 8.015625 75.875 
L 15.828125 75.875 
Q 23.140625 64.359375 26.78125 53.3125 
Q 30.421875 42.28125 30.421875 31.390625 
Q 30.421875 20.453125 26.78125 9.375 
Q 23.140625 -1.703125 15.828125 -13.1875 
L 8.015625 -13.1875 
Q 14.5 -2 17.703125 9.0625 
Q 20.90625 20.125 20.90625 31.390625 
Q 20.90625 42.671875 17.703125 53.65625 
Q 14.5 64.65625 8.015625 75.875 
z
" id="DejaVuSans-41"/>
     </defs>
     <g transform="translate(207.24375 73.95875)scale(0.08 -0.08)">
      <use xlink:href="#DejaVuSans-76"/>
      <use x="55.697266" xlink:href="#DejaVuSans-111"/>
      <use x="116.878906" xlink:href="#DejaVuSans-115"/>
      <use x="168.978516" xlink:href="#DejaVuSans-116"/>
      <use x="208.1875" xlink:href="#DejaVuSans-32"/>
      <use x="239.974609" xlink:href="#DejaVuSans-110"/>
      <use x="303.353516" xlink:href="#DejaVuSans-111"/>
      <use x="364.535156" xlink:href="#DejaVuSans-100"/>
      <use x="428.011719" xlink:href="#DejaVuSans-101"/>
      <use x="489.535156" xlink:href="#DejaVuSans-115"/>
      <use x="541.634766" xlink:href="#DejaVuSans-32"/>
      <use x="573.421875" xlink:href="#DejaVuSans-40"/>
      <use x="612.435547" xlink:href="#DejaVuSans-37"/>
      <use x="707.455078" xlink:href="#DejaVuSans-41"/>
     </g>
    </g>
   </g>
   <g id="matplotlib.axis_2">
    <g id="ytick_1">
     <g id="line2d_41">
      <path clip-path="url(#p8952ac4fc0)" d="M 32.8825 61.540955 
L 441.3225 61.540955 
" style="fill:none;stroke:#b0b0b0;stroke-linecap:square;stroke-width:0.8;"/>
     </g>
     <g id="line2d_42">
      <defs>
       <path d="M 0 0 
L -3.5 0 
" id="m6be9bccbbe" style="stroke:#000000;stroke-width:0.8;"/>
      </defs>
      <g>
       <use style="stroke:#000000;stroke-width:0.8;" x="32.8825" xlink:href="#m6be9bccbbe" y="61.540955"/>
      </g>
     </g>
     <g id="text_2">
      <!-- 0 -->
      <defs>
       <path d="M 31.78125 66.40625 
Q 24.171875 66.40625 20.328125 58.90625 
Q 16.5 51.421875 16.5 36.375 
Q 16.5 21.390625 20.328125 13.890625 
Q 24.171875 6.390625 31.78125 6.390625 
Q 39.453125 6.390625 43.28125 13.890625 
Q 47.125 21.390625 47.125 36.375 
Q 47.125 51.421875 43.28125 58.90625 
Q 39.453125 66.40625 31.78125 66.40625 
z
M 31.78125 74.21875 
Q 44.046875 74.21875 50.515625 64.515625 
Q 56.984375 54.828125 56.984375 36.375 
Q 56.984375 17.96875 50.515625 8.265625 
Q 44.046875 -1.421875 31.78125 -1.421875 
Q 19.53125 -1.421875 13.0625 8.265625 
Q 6.59375 17.96875 6.59375 36.375 
Q 6.59375 54.828125 13.0625 64.515625 
Q 19.53125 74.21875 31.78125 74.21875 
z
" id="DejaVuSans-48"/>
      </defs>
      <g transform="translate(19.52 65.340173)scale(0.1 -0.1)">
       <use xlink:href="#DejaVuSans-48"/>
      </g>
     </g>
    </g>
    <g id="ytick_2">
     <g id="line2d_43">
      <path clip-path="url(#p8952ac4fc0)" d="M 32.8825 48.426175 
L 441.3225 48.426175 
" style="fill:none;stroke:#b0b0b0;stroke-linecap:square;stroke-width:0.8;"/>
     </g>
     <g id="line2d_44">
      <g>
       <use style="stroke:#000000;stroke-width:0.8;" x="32.8825" xlink:href="#m6be9bccbbe" y="48.426175"/>
      </g>
     </g>
     <g id="text_3">
      <!-- 1 -->
      <defs>
       <path d="M 12.40625 8.296875 
L 28.515625 8.296875 
L 28.515625 63.921875 
L 10.984375 60.40625 
L 10.984375 69.390625 
L 28.421875 72.90625 
L 38.28125 72.90625 
L 38.28125 8.296875 
L 54.390625 8.296875 
L 54.390625 0 
L 12.40625 0 
z
" id="DejaVuSans-49"/>
      </defs>
      <g transform="translate(19.52 52.225394)scale(0.1 -0.1)">
       <use xlink:href="#DejaVuSans-49"/>
      </g>
     </g>
    </g>
    <g id="ytick_3">
     <g id="line2d_45">
      <path clip-path="url(#p8952ac4fc0)" d="M 32.8825 35.311396 
L 441.3225 35.311396 
" style="fill:none;stroke:#b0b0b0;stroke-linecap:square;stroke-width:0.8;"/>
     </g>
     <g id="line2d_46">
      <g>
       <use style="stroke:#000000;stroke-width:0.8;" x="32.8825" xlink:href="#m6be9bccbbe" y="35.311396"/>
      </g>
     </g>
     <g id="text_4">
      <!-- 2 -->
      <defs>
       <path d="M 19.1875 8.296875 
L 53.609375 8.296875 
L 53.609375 0 
L 7.328125 0 
L 7.328125 8.296875 
Q 12.9375 14.109375 22.625 23.890625 
Q 32.328125 33.6875 34.8125 36.53125 
Q 39.546875 41.84375 41.421875 45.53125 
Q 43.3125 49.21875 43.3125 52.78125 
Q 43.3125 58.59375 39.234375 62.25 
Q 35.15625 65.921875 28.609375 65.921875 
Q 23.96875 65.921875 18.8125 64.3125 
Q 13.671875 62.703125 7.8125 59.421875 
L 7.8125 69.390625 
Q 13.765625 71.78125 18.9375 73 
Q 24.125 74.21875 28.421875 74.21875 
Q 39.75 74.21875 46.484375 68.546875 
Q 53.21875 62.890625 53.21875 53.421875 
Q 53.21875 48.921875 51.53125 44.890625 
Q 49.859375 40.875 45.40625 35.40625 
Q 44.1875 33.984375 37.640625 27.21875 
Q 31.109375 20.453125 19.1875 8.296875 
z
" id="DejaVuSans-50"/>
      </defs>
      <g transform="translate(19.52 39.110614)scale(0.1 -0.1)">
       <use xlink:href="#DejaVuSans-50"/>
      </g>
     </g>
    </g>
    <g id="ytick_4">
     <g id="line2d_47">
      <path clip-path="url(#p8952ac4fc0)" d="M 32.8825 22.196616 
L 441.3225 22.196616 
" style="fill:none;stroke:#b0b0b0;stroke-linecap:square;stroke-width:0.8;"/>
     </g>
     <g id="line2d_48">
      <g>
       <use style="stroke:#000000;stroke-width:0.8;" x="32.8825" xlink:href="#m6be9bccbbe" y="22.196616"/>
      </g>
     </g>
     <g id="text_5">
      <!-- 3 -->
      <defs>
       <path d="M 40.578125 39.3125 
Q 47.65625 37.796875 51.625 33 
Q 55.609375 28.21875 55.609375 21.1875 
Q 55.609375 10.40625 48.1875 4.484375 
Q 40.765625 -1.421875 27.09375 -1.421875 
Q 22.515625 -1.421875 17.65625 -0.515625 
Q 12.796875 0.390625 7.625 2.203125 
L 7.625 11.71875 
Q 11.71875 9.328125 16.59375 8.109375 
Q 21.484375 6.890625 26.8125 6.890625 
Q 36.078125 6.890625 40.9375 10.546875 
Q 45.796875 14.203125 45.796875 21.1875 
Q 45.796875 27.640625 41.28125 31.265625 
Q 36.765625 34.90625 28.71875 34.90625 
L 20.21875 34.90625 
L 20.21875 43.015625 
L 29.109375 43.015625 
Q 36.375 43.015625 40.234375 45.921875 
Q 44.09375 48.828125 44.09375 54.296875 
Q 44.09375 59.90625 40.109375 62.90625 
Q 36.140625 65.921875 28.71875 65.921875 
Q 24.65625 65.921875 20.015625 65.03125 
Q 15.375 64.15625 9.8125 62.3125 
L 9.8125 71.09375 
Q 15.4375 72.65625 20.34375 73.4375 
Q 25.25 74.21875 29.59375 74.21875 
Q 40.828125 74.21875 47.359375 69.109375 
Q 53.90625 64.015625 53.90625 55.328125 
Q 53.90625 49.265625 50.4375 45.09375 
Q 46.96875 40.921875 40.578125 39.3125 
z
" id="DejaVuSans-51"/>
      </defs>
      <g transform="translate(19.52 25.995835)scale(0.1 -0.1)">
       <use xlink:href="#DejaVuSans-51"/>
      </g>
     </g>
    </g>
    <g id="text_6">
     <!-- $\Delta D_q$ -->
     <defs>
      <path d="M 34.1875 63.1875 
L 14.15625 8.203125 
L 54.25 8.203125 
z
M 0.78125 0 
L 28.609375 72.90625 
L 39.796875 72.90625 
L 67.578125 0 
z
" id="DejaVuSans-916"/>
      <path d="M 16.890625 72.90625 
L 38.09375 72.90625 
Q 54.984375 72.90625 63.59375 65.75 
Q 72.21875 58.59375 72.21875 44.484375 
Q 72.21875 35.15625 68.9375 26.53125 
Q 65.671875 17.921875 59.90625 12.015625 
Q 54.109375 5.953125 45.171875 2.96875 
Q 36.234375 0 24.03125 0 
L 2.6875 0 
z
M 25.203125 64.796875 
L 14.203125 8.109375 
L 27.09375 8.109375 
Q 43.65625 8.109375 52.734375 17.625 
Q 61.8125 27.15625 61.8125 44.484375 
Q 61.8125 54.984375 55.953125 59.890625 
Q 50.09375 64.796875 37.59375 64.796875 
z
" id="DejaVuSans-Oblique-68"/>
      <path d="M 41.703125 8.203125 
Q 38.09375 3.46875 33.171875 1.015625 
Q 28.265625 -1.421875 22.3125 -1.421875 
Q 14.015625 -1.421875 9.296875 4.171875 
Q 4.59375 9.765625 4.59375 19.578125 
Q 4.59375 27.484375 7.5 34.859375 
Q 10.40625 42.234375 15.828125 48.09375 
Q 19.34375 51.90625 23.90625 53.953125 
Q 28.46875 56 33.5 56 
Q 39.546875 56 43.453125 53.609375 
Q 47.359375 51.21875 49.125 46.390625 
L 50.6875 54.59375 
L 59.71875 54.59375 
L 45.125 -20.609375 
L 36.078125 -20.609375 
z
M 13.921875 20.90625 
Q 13.921875 13.671875 16.9375 9.890625 
Q 19.96875 6.109375 25.6875 6.109375 
Q 34.1875 6.109375 40.1875 14.234375 
Q 46.1875 22.359375 46.1875 33.984375 
Q 46.1875 41.015625 43.078125 44.75 
Q 39.984375 48.484375 34.1875 48.484375 
Q 29.9375 48.484375 26.3125 46.5 
Q 22.703125 44.53125 20.015625 40.71875 
Q 17.1875 36.71875 15.546875 31.34375 
Q 13.921875 25.984375 13.921875 20.90625 
z
" id="DejaVuSans-Oblique-113"/>
     </defs>
     <g transform="translate(13.04 45.01)rotate(-90)scale(0.08 -0.08)">
      <use transform="translate(0 0.09375)" xlink:href="#DejaVuSans-916"/>
      <use transform="translate(68.408203 0.09375)" xlink:href="#DejaVuSans-Oblique-68"/>
      <use transform="translate(145.410156 -16.3125)scale(0.7)" xlink:href="#DejaVuSans-Oblique-113"/>
     </g>
    </g>
   </g>
   <g id="line2d_49">
    <path clip-path="url(#p8952ac4fc0)" d="M 32.8825 48.408542 
L 54.379342 48.400227 
L 75.876184 48.324791 
L 97.373026 48.36404 
L 118.869868 48.285261 
L 140.366711 48.348918 
L 161.863553 48.515697 
L 183.360395 48.424379 
L 204.857237 48.418253 
L 226.354079 48.416981 
L 247.850921 48.683017 
L 269.347763 48.717234 
L 290.844605 48.672906 
L 312.341447 48.789869 
L 333.838289 48.966761 
L 355.335132 48.628966 
L 376.831974 48.881469 
L 398.328816 49.184506 
L 419.825658 49.962751 
L 441.3225 52.063179 
" style="fill:none;stroke:#ff0000;stroke-linecap:square;stroke-width:1.5;"/>
   </g>
   <g id="line2d_50">
    <path clip-path="url(#p8952ac4fc0)" d="M 32.8825 48.449377 
L 54.379342 46.495879 
L 75.876184 45.026622 
L 97.373026 43.754729 
L 118.869868 42.787529 
L 140.366711 41.874713 
L 161.863553 41.161563 
L 183.360395 40.469444 
L 204.857237 39.899284 
L 226.354079 39.416169 
L 247.850921 38.851403 
L 269.347763 38.394569 
L 290.844605 37.899146 
L 312.341447 37.349597 
L 333.838289 36.933478 
L 355.335132 37.227804 
L 376.831974 40.701972 
L 398.328816 50.369063 
L 419.825658 52.186577 
L 441.3225 42.169617 
" style="fill:none;stroke:#008000;stroke-linecap:square;stroke-width:1.5;"/>
   </g>
   <g id="line2d_51">
    <path clip-path="url(#p8952ac4fc0)" d="M 32.8825 48.383391 
L 54.379342 46.555311 
L 75.876184 44.949519 
L 97.373026 43.766744 
L 118.869868 42.743492 
L 140.366711 41.938525 
L 161.863553 41.162748 
L 183.360395 40.532377 
L 204.857237 39.945927 
L 226.354079 39.450805 
L 247.850921 38.985314 
L 269.347763 38.509654 
L 290.844605 38.092449 
L 312.341447 37.643751 
L 333.838289 37.296543 
L 355.335132 37.339864 
L 376.831974 39.342023 
L 398.328816 45.752962 
L 419.825658 56.046811 
L 441.3225 55.722904 
" style="fill:none;stroke:#0000ff;stroke-linecap:square;stroke-width:1.5;"/>
   </g>
   <g id="patch_3">
    <path d="M 32.8825 63.88 
L 32.8825 10.7 
" style="fill:none;stroke:#000000;stroke-linecap:square;stroke-linejoin:miter;stroke-width:0.8;"/>
   </g>
   <g id="patch_4">
    <path d="M 441.3225 63.88 
L 441.3225 10.7 
" style="fill:none;stroke:#000000;stroke-linecap:square;stroke-linejoin:miter;stroke-width:0.8;"/>
   </g>
   <g id="patch_5">
    <path d="M 32.8825 63.88 
L 441.3225 63.88 
" style="fill:none;stroke:#000000;stroke-linecap:square;stroke-linejoin:miter;stroke-width:0.8;"/>
   </g>
   <g id="patch_6">
    <path d="M 32.8825 10.7 
L 441.3225 10.7 
" style="fill:none;stroke:#000000;stroke-linecap:square;stroke-linejoin:miter;stroke-width:0.8;"/>
   </g>
   <g id="text_7">
    <!-- a)hub degree 50 -->
    <defs>
     <path d="M 34.28125 27.484375 
Q 23.390625 27.484375 19.1875 25 
Q 14.984375 22.515625 14.984375 16.5 
Q 14.984375 11.71875 18.140625 8.90625 
Q 21.296875 6.109375 26.703125 6.109375 
Q 34.1875 6.109375 38.703125 11.40625 
Q 43.21875 16.703125 43.21875 25.484375 
L 43.21875 27.484375 
z
M 52.203125 31.203125 
L 52.203125 0 
L 43.21875 0 
L 43.21875 8.296875 
Q 40.140625 3.328125 35.546875 0.953125 
Q 30.953125 -1.421875 24.3125 -1.421875 
Q 15.921875 -1.421875 10.953125 3.296875 
Q 6 8.015625 6 15.921875 
Q 6 25.140625 12.171875 29.828125 
Q 18.359375 34.515625 30.609375 34.515625 
L 43.21875 34.515625 
L 43.21875 35.40625 
Q 43.21875 41.609375 39.140625 45 
Q 35.0625 48.390625 27.6875 48.390625 
Q 23 48.390625 18.546875 47.265625 
Q 14.109375 46.140625 10.015625 43.890625 
L 10.015625 52.203125 
Q 14.9375 54.109375 19.578125 55.046875 
Q 24.21875 56 28.609375 56 
Q 40.484375 56 46.34375 49.84375 
Q 52.203125 43.703125 52.203125 31.203125 
z
" id="DejaVuSans-97"/>
     <path d="M 54.890625 33.015625 
L 54.890625 0 
L 45.90625 0 
L 45.90625 32.71875 
Q 45.90625 40.484375 42.875 44.328125 
Q 39.84375 48.1875 33.796875 48.1875 
Q 26.515625 48.1875 22.3125 43.546875 
Q 18.109375 38.921875 18.109375 30.90625 
L 18.109375 0 
L 9.078125 0 
L 9.078125 75.984375 
L 18.109375 75.984375 
L 18.109375 46.1875 
Q 21.34375 51.125 25.703125 53.5625 
Q 30.078125 56 35.796875 56 
Q 45.21875 56 50.046875 50.171875 
Q 54.890625 44.34375 54.890625 33.015625 
z
" id="DejaVuSans-104"/>
     <path d="M 8.5 21.578125 
L 8.5 54.6875 
L 17.484375 54.6875 
L 17.484375 21.921875 
Q 17.484375 14.15625 20.5 10.265625 
Q 23.53125 6.390625 29.59375 6.390625 
Q 36.859375 6.390625 41.078125 11.03125 
Q 45.3125 15.671875 45.3125 23.6875 
L 45.3125 54.6875 
L 54.296875 54.6875 
L 54.296875 0 
L 45.3125 0 
L 45.3125 8.40625 
Q 42.046875 3.421875 37.71875 1 
Q 33.40625 -1.421875 27.6875 -1.421875 
Q 18.265625 -1.421875 13.375 4.4375 
Q 8.5 10.296875 8.5 21.578125 
z
M 31.109375 56 
z
" id="DejaVuSans-117"/>
     <path d="M 48.6875 27.296875 
Q 48.6875 37.203125 44.609375 42.84375 
Q 40.53125 48.484375 33.40625 48.484375 
Q 26.265625 48.484375 22.1875 42.84375 
Q 18.109375 37.203125 18.109375 27.296875 
Q 18.109375 17.390625 22.1875 11.75 
Q 26.265625 6.109375 33.40625 6.109375 
Q 40.53125 6.109375 44.609375 11.75 
Q 48.6875 17.390625 48.6875 27.296875 
z
M 18.109375 46.390625 
Q 20.953125 51.265625 25.265625 53.625 
Q 29.59375 56 35.59375 56 
Q 45.5625 56 51.78125 48.09375 
Q 58.015625 40.1875 58.015625 27.296875 
Q 58.015625 14.40625 51.78125 6.484375 
Q 45.5625 -1.421875 35.59375 -1.421875 
Q 29.59375 -1.421875 25.265625 0.953125 
Q 20.953125 3.328125 18.109375 8.203125 
L 18.109375 0 
L 9.078125 0 
L 9.078125 75.984375 
L 18.109375 75.984375 
z
" id="DejaVuSans-98"/>
     <path d="M 45.40625 27.984375 
Q 45.40625 37.75 41.375 43.109375 
Q 37.359375 48.484375 30.078125 48.484375 
Q 22.859375 48.484375 18.828125 43.109375 
Q 14.796875 37.75 14.796875 27.984375 
Q 14.796875 18.265625 18.828125 12.890625 
Q 22.859375 7.515625 30.078125 7.515625 
Q 37.359375 7.515625 41.375 12.890625 
Q 45.40625 18.265625 45.40625 27.984375 
z
M 54.390625 6.78125 
Q 54.390625 -7.171875 48.1875 -13.984375 
Q 42 -20.796875 29.203125 -20.796875 
Q 24.46875 -20.796875 20.265625 -20.09375 
Q 16.0625 -19.390625 12.109375 -17.921875 
L 12.109375 -9.1875 
Q 16.0625 -11.328125 19.921875 -12.34375 
Q 23.78125 -13.375 27.78125 -13.375 
Q 36.625 -13.375 41.015625 -8.765625 
Q 45.40625 -4.15625 45.40625 5.171875 
L 45.40625 9.625 
Q 42.625 4.78125 38.28125 2.390625 
Q 33.9375 0 27.875 0 
Q 17.828125 0 11.671875 7.65625 
Q 5.515625 15.328125 5.515625 27.984375 
Q 5.515625 40.671875 11.671875 48.328125 
Q 17.828125 56 27.875 56 
Q 33.9375 56 38.28125 53.609375 
Q 42.625 51.21875 45.40625 46.390625 
L 45.40625 54.6875 
L 54.390625 54.6875 
z
" id="DejaVuSans-103"/>
     <path d="M 41.109375 46.296875 
Q 39.59375 47.171875 37.8125 47.578125 
Q 36.03125 48 33.890625 48 
Q 26.265625 48 22.1875 43.046875 
Q 18.109375 38.09375 18.109375 28.8125 
L 18.109375 0 
L 9.078125 0 
L 9.078125 54.6875 
L 18.109375 54.6875 
L 18.109375 46.1875 
Q 20.953125 51.171875 25.484375 53.578125 
Q 30.03125 56 36.53125 56 
Q 37.453125 56 38.578125 55.875 
Q 39.703125 55.765625 41.0625 55.515625 
z
" id="DejaVuSans-114"/>
     <path d="M 10.796875 72.90625 
L 49.515625 72.90625 
L 49.515625 64.59375 
L 19.828125 64.59375 
L 19.828125 46.734375 
Q 21.96875 47.46875 24.109375 47.828125 
Q 26.265625 48.1875 28.421875 48.1875 
Q 40.625 48.1875 47.75 41.5 
Q 54.890625 34.8125 54.890625 23.390625 
Q 54.890625 11.625 47.5625 5.09375 
Q 40.234375 -1.421875 26.90625 -1.421875 
Q 22.3125 -1.421875 17.546875 -0.640625 
Q 12.796875 0.140625 7.71875 1.703125 
L 7.71875 11.625 
Q 12.109375 9.234375 16.796875 8.0625 
Q 21.484375 6.890625 26.703125 6.890625 
Q 35.15625 6.890625 40.078125 11.328125 
Q 45.015625 15.765625 45.015625 23.390625 
Q 45.015625 31 40.078125 35.4375 
Q 35.15625 39.890625 26.703125 39.890625 
Q 22.75 39.890625 18.8125 39.015625 
Q 14.890625 38.140625 10.796875 36.28125 
z
" id="DejaVuSans-53"/>
    </defs>
    <g transform="translate(203.743125 86.77875)scale(0.08 -0.08)">
     <use xlink:href="#DejaVuSans-97"/>
     <use x="61.279297" xlink:href="#DejaVuSans-41"/>
     <use x="100.292969" xlink:href="#DejaVuSans-104"/>
     <use x="163.671875" xlink:href="#DejaVuSans-117"/>
     <use x="227.050781" xlink:href="#DejaVuSans-98"/>
     <use x="290.527344" xlink:href="#DejaVuSans-32"/>
     <use x="322.314453" xlink:href="#DejaVuSans-100"/>
     <use x="385.791016" xlink:href="#DejaVuSans-101"/>
     <use x="447.314453" xlink:href="#DejaVuSans-103"/>
     <use x="510.791016" xlink:href="#DejaVuSans-114"/>
     <use x="551.873047" xlink:href="#DejaVuSans-101"/>
     <use x="613.396484" xlink:href="#DejaVuSans-101"/>
     <use x="674.919922" xlink:href="#DejaVuSans-32"/>
     <use x="706.707031" xlink:href="#DejaVuSans-53"/>
     <use x="770.330078" xlink:href="#DejaVuSans-48"/>
    </g>
   </g>
   <g id="legend_1">
    <g id="patch_7">
     <path d="M 446.9225 54.78 
L 528.5225 54.78 
Q 530.1225 54.78 530.1225 53.18 
L 530.1225 16.3 
Q 530.1225 14.7 528.5225 14.7 
L 446.9225 14.7 
Q 445.3225 14.7 445.3225 16.3 
L 445.3225 53.18 
Q 445.3225 54.78 446.9225 54.78 
z
" style="fill:#ffffff;opacity:0.8;stroke:#cccccc;stroke-linejoin:miter;"/>
    </g>
    <g id="line2d_52">
     <path d="M 448.5225 21.18 
L 464.5225 21.18 
" style="fill:none;stroke:#ff0000;stroke-linecap:square;stroke-width:1.5;"/>
    </g>
    <g id="line2d_53"/>
    <g id="text_8">
     <!-- $\Delta D_q$ random -->
     <defs>
      <path d="M 52 44.1875 
Q 55.375 50.25 60.0625 53.125 
Q 64.75 56 71.09375 56 
Q 79.640625 56 84.28125 50.015625 
Q 88.921875 44.046875 88.921875 33.015625 
L 88.921875 0 
L 79.890625 0 
L 79.890625 32.71875 
Q 79.890625 40.578125 77.09375 44.375 
Q 74.3125 48.1875 68.609375 48.1875 
Q 61.625 48.1875 57.5625 43.546875 
Q 53.515625 38.921875 53.515625 30.90625 
L 53.515625 0 
L 44.484375 0 
L 44.484375 32.71875 
Q 44.484375 40.625 41.703125 44.40625 
Q 38.921875 48.1875 33.109375 48.1875 
Q 26.21875 48.1875 22.15625 43.53125 
Q 18.109375 38.875 18.109375 30.90625 
L 18.109375 0 
L 9.078125 0 
L 9.078125 54.6875 
L 18.109375 54.6875 
L 18.109375 46.1875 
Q 21.1875 51.21875 25.484375 53.609375 
Q 29.78125 56 35.6875 56 
Q 41.65625 56 45.828125 52.96875 
Q 50 49.953125 52 44.1875 
z
" id="DejaVuSans-109"/>
     </defs>
     <g transform="translate(470.9225 23.98)scale(0.08 -0.08)">
      <use transform="translate(0 0.015625)" xlink:href="#DejaVuSans-916"/>
      <use transform="translate(68.408203 0.015625)" xlink:href="#DejaVuSans-Oblique-68"/>
      <use transform="translate(145.410156 -16.390625)scale(0.7)" xlink:href="#DejaVuSans-Oblique-113"/>
      <use transform="translate(192.578125 0.015625)" xlink:href="#DejaVuSans-32"/>
      <use transform="translate(224.365234 0.015625)" xlink:href="#DejaVuSans-114"/>
      <use transform="translate(265.478516 0.015625)" xlink:href="#DejaVuSans-97"/>
      <use transform="translate(326.757812 0.015625)" xlink:href="#DejaVuSans-110"/>
      <use transform="translate(390.136719 0.015625)" xlink:href="#DejaVuSans-100"/>
      <use transform="translate(453.613281 0.015625)" xlink:href="#DejaVuSans-111"/>
      <use transform="translate(514.794922 0.015625)" xlink:href="#DejaVuSans-109"/>
     </g>
    </g>
    <g id="line2d_54">
     <path d="M 448.5225 33.74 
L 464.5225 33.74 
" style="fill:none;stroke:#008000;stroke-linecap:square;stroke-width:1.5;"/>
    </g>
    <g id="line2d_55"/>
    <g id="text_9">
     <!-- $\Delta D_q$ degree -->
     <g transform="translate(470.9225 36.54)scale(0.08 -0.08)">
      <use transform="translate(0 0.015625)" xlink:href="#DejaVuSans-916"/>
      <use transform="translate(68.408203 0.015625)" xlink:href="#DejaVuSans-Oblique-68"/>
      <use transform="translate(145.410156 -16.390625)scale(0.7)" xlink:href="#DejaVuSans-Oblique-113"/>
      <use transform="translate(192.578125 0.015625)" xlink:href="#DejaVuSans-32"/>
      <use transform="translate(224.365234 0.015625)" xlink:href="#DejaVuSans-100"/>
      <use transform="translate(287.841797 0.015625)" xlink:href="#DejaVuSans-101"/>
      <use transform="translate(349.365234 0.015625)" xlink:href="#DejaVuSans-103"/>
      <use transform="translate(412.841797 0.015625)" xlink:href="#DejaVuSans-114"/>
      <use transform="translate(453.955078 0.015625)" xlink:href="#DejaVuSans-101"/>
      <use transform="translate(515.478516 0.015625)" xlink:href="#DejaVuSans-101"/>
     </g>
    </g>
    <g id="line2d_56">
     <path d="M 448.5225 46.3 
L 464.5225 46.3 
" style="fill:none;stroke:#0000ff;stroke-linecap:square;stroke-width:1.5;"/>
    </g>
    <g id="line2d_57"/>
    <g id="text_10">
     <!-- $\Delta D_q$ centrality -->
     <defs>
      <path d="M 48.78125 52.59375 
L 48.78125 44.1875 
Q 44.96875 46.296875 41.140625 47.34375 
Q 37.3125 48.390625 33.40625 48.390625 
Q 24.65625 48.390625 19.8125 42.84375 
Q 14.984375 37.3125 14.984375 27.296875 
Q 14.984375 17.28125 19.8125 11.734375 
Q 24.65625 6.203125 33.40625 6.203125 
Q 37.3125 6.203125 41.140625 7.25 
Q 44.96875 8.296875 48.78125 10.40625 
L 48.78125 2.09375 
Q 45.015625 0.34375 40.984375 -0.53125 
Q 36.96875 -1.421875 32.421875 -1.421875 
Q 20.0625 -1.421875 12.78125 6.34375 
Q 5.515625 14.109375 5.515625 27.296875 
Q 5.515625 40.671875 12.859375 48.328125 
Q 20.21875 56 33.015625 56 
Q 37.15625 56 41.109375 55.140625 
Q 45.0625 54.296875 48.78125 52.59375 
z
" id="DejaVuSans-99"/>
      <path d="M 9.421875 75.984375 
L 18.40625 75.984375 
L 18.40625 0 
L 9.421875 0 
z
" id="DejaVuSans-108"/>
      <path d="M 9.421875 54.6875 
L 18.40625 54.6875 
L 18.40625 0 
L 9.421875 0 
z
M 9.421875 75.984375 
L 18.40625 75.984375 
L 18.40625 64.59375 
L 9.421875 64.59375 
z
" id="DejaVuSans-105"/>
      <path d="M 32.171875 -5.078125 
Q 28.375 -14.84375 24.75 -17.8125 
Q 21.140625 -20.796875 15.09375 -20.796875 
L 7.90625 -20.796875 
L 7.90625 -13.28125 
L 13.1875 -13.28125 
Q 16.890625 -13.28125 18.9375 -11.515625 
Q 21 -9.765625 23.484375 -3.21875 
L 25.09375 0.875 
L 2.984375 54.6875 
L 12.5 54.6875 
L 29.59375 11.921875 
L 46.6875 54.6875 
L 56.203125 54.6875 
z
" id="DejaVuSans-121"/>
     </defs>
     <g transform="translate(470.9225 49.1)scale(0.08 -0.08)">
      <use transform="translate(0 0.015625)" xlink:href="#DejaVuSans-916"/>
      <use transform="translate(68.408203 0.015625)" xlink:href="#DejaVuSans-Oblique-68"/>
      <use transform="translate(145.410156 -16.390625)scale(0.7)" xlink:href="#DejaVuSans-Oblique-113"/>
      <use transform="translate(192.578125 0.015625)" xlink:href="#DejaVuSans-32"/>
      <use transform="translate(224.365234 0.015625)" xlink:href="#DejaVuSans-99"/>
      <use transform="translate(279.345703 0.015625)" xlink:href="#DejaVuSans-101"/>
      <use transform="translate(340.869141 0.015625)" xlink:href="#DejaVuSans-110"/>
      <use transform="translate(404.248047 0.015625)" xlink:href="#DejaVuSans-116"/>
      <use transform="translate(443.457031 0.015625)" xlink:href="#DejaVuSans-114"/>
      <use transform="translate(484.570312 0.015625)" xlink:href="#DejaVuSans-97"/>
      <use transform="translate(545.849609 0.015625)" xlink:href="#DejaVuSans-108"/>
      <use transform="translate(573.632812 0.015625)" xlink:href="#DejaVuSans-105"/>
      <use transform="translate(601.416016 0.015625)" xlink:href="#DejaVuSans-116"/>
      <use transform="translate(640.625 0.015625)" xlink:href="#DejaVuSans-121"/>
     </g>
    </g>
   </g>
  </g>
  <g id="axes_2">
   <g id="patch_8">
    <path d="M 32.8825 147.14 
L 441.3225 147.14 
L 441.3225 93.96 
L 32.8825 93.96 
z
" style="fill:#ffffff;"/>
   </g>
   <g id="matplotlib.axis_3">
    <g id="xtick_21">
     <g id="line2d_58">
      <path clip-path="url(#pa379bcdbb9)" d="M 32.8825 147.14 
L 32.8825 93.96 
" style="fill:none;stroke:#b0b0b0;stroke-linecap:square;stroke-width:0.8;"/>
     </g>
     <g id="line2d_59">
      <g>
       <use style="stroke:#000000;stroke-width:0.8;" x="32.8825" xlink:href="#m66c06efd94" y="147.14"/>
      </g>
     </g>
    </g>
    <g id="xtick_22">
     <g id="line2d_60">
      <path clip-path="url(#pa379bcdbb9)" d="M 54.379342 147.14 
L 54.379342 93.96 
" style="fill:none;stroke:#b0b0b0;stroke-linecap:square;stroke-width:0.8;"/>
     </g>
     <g id="line2d_61">
      <g>
       <use style="stroke:#000000;stroke-width:0.8;" x="54.379342" xlink:href="#m66c06efd94" y="147.14"/>
      </g>
     </g>
    </g>
    <g id="xtick_23">
     <g id="line2d_62">
      <path clip-path="url(#pa379bcdbb9)" d="M 75.876184 147.14 
L 75.876184 93.96 
" style="fill:none;stroke:#b0b0b0;stroke-linecap:square;stroke-width:0.8;"/>
     </g>
     <g id="line2d_63">
      <g>
       <use style="stroke:#000000;stroke-width:0.8;" x="75.876184" xlink:href="#m66c06efd94" y="147.14"/>
      </g>
     </g>
    </g>
    <g id="xtick_24">
     <g id="line2d_64">
      <path clip-path="url(#pa379bcdbb9)" d="M 97.373026 147.14 
L 97.373026 93.96 
" style="fill:none;stroke:#b0b0b0;stroke-linecap:square;stroke-width:0.8;"/>
     </g>
     <g id="line2d_65">
      <g>
       <use style="stroke:#000000;stroke-width:0.8;" x="97.373026" xlink:href="#m66c06efd94" y="147.14"/>
      </g>
     </g>
    </g>
    <g id="xtick_25">
     <g id="line2d_66">
      <path clip-path="url(#pa379bcdbb9)" d="M 118.869868 147.14 
L 118.869868 93.96 
" style="fill:none;stroke:#b0b0b0;stroke-linecap:square;stroke-width:0.8;"/>
     </g>
     <g id="line2d_67">
      <g>
       <use style="stroke:#000000;stroke-width:0.8;" x="118.869868" xlink:href="#m66c06efd94" y="147.14"/>
      </g>
     </g>
    </g>
    <g id="xtick_26">
     <g id="line2d_68">
      <path clip-path="url(#pa379bcdbb9)" d="M 140.366711 147.14 
L 140.366711 93.96 
" style="fill:none;stroke:#b0b0b0;stroke-linecap:square;stroke-width:0.8;"/>
     </g>
     <g id="line2d_69">
      <g>
       <use style="stroke:#000000;stroke-width:0.8;" x="140.366711" xlink:href="#m66c06efd94" y="147.14"/>
      </g>
     </g>
    </g>
    <g id="xtick_27">
     <g id="line2d_70">
      <path clip-path="url(#pa379bcdbb9)" d="M 161.863553 147.14 
L 161.863553 93.96 
" style="fill:none;stroke:#b0b0b0;stroke-linecap:square;stroke-width:0.8;"/>
     </g>
     <g id="line2d_71">
      <g>
       <use style="stroke:#000000;stroke-width:0.8;" x="161.863553" xlink:href="#m66c06efd94" y="147.14"/>
      </g>
     </g>
    </g>
    <g id="xtick_28">
     <g id="line2d_72">
      <path clip-path="url(#pa379bcdbb9)" d="M 183.360395 147.14 
L 183.360395 93.96 
" style="fill:none;stroke:#b0b0b0;stroke-linecap:square;stroke-width:0.8;"/>
     </g>
     <g id="line2d_73">
      <g>
       <use style="stroke:#000000;stroke-width:0.8;" x="183.360395" xlink:href="#m66c06efd94" y="147.14"/>
      </g>
     </g>
    </g>
    <g id="xtick_29">
     <g id="line2d_74">
      <path clip-path="url(#pa379bcdbb9)" d="M 204.857237 147.14 
L 204.857237 93.96 
" style="fill:none;stroke:#b0b0b0;stroke-linecap:square;stroke-width:0.8;"/>
     </g>
     <g id="line2d_75">
      <g>
       <use style="stroke:#000000;stroke-width:0.8;" x="204.857237" xlink:href="#m66c06efd94" y="147.14"/>
      </g>
     </g>
    </g>
    <g id="xtick_30">
     <g id="line2d_76">
      <path clip-path="url(#pa379bcdbb9)" d="M 226.354079 147.14 
L 226.354079 93.96 
" style="fill:none;stroke:#b0b0b0;stroke-linecap:square;stroke-width:0.8;"/>
     </g>
     <g id="line2d_77">
      <g>
       <use style="stroke:#000000;stroke-width:0.8;" x="226.354079" xlink:href="#m66c06efd94" y="147.14"/>
      </g>
     </g>
    </g>
    <g id="xtick_31">
     <g id="line2d_78">
      <path clip-path="url(#pa379bcdbb9)" d="M 247.850921 147.14 
L 247.850921 93.96 
" style="fill:none;stroke:#b0b0b0;stroke-linecap:square;stroke-width:0.8;"/>
     </g>
     <g id="line2d_79">
      <g>
       <use style="stroke:#000000;stroke-width:0.8;" x="247.850921" xlink:href="#m66c06efd94" y="147.14"/>
      </g>
     </g>
    </g>
    <g id="xtick_32">
     <g id="line2d_80">
      <path clip-path="url(#pa379bcdbb9)" d="M 269.347763 147.14 
L 269.347763 93.96 
" style="fill:none;stroke:#b0b0b0;stroke-linecap:square;stroke-width:0.8;"/>
     </g>
     <g id="line2d_81">
      <g>
       <use style="stroke:#000000;stroke-width:0.8;" x="269.347763" xlink:href="#m66c06efd94" y="147.14"/>
      </g>
     </g>
    </g>
    <g id="xtick_33">
     <g id="line2d_82">
      <path clip-path="url(#pa379bcdbb9)" d="M 290.844605 147.14 
L 290.844605 93.96 
" style="fill:none;stroke:#b0b0b0;stroke-linecap:square;stroke-width:0.8;"/>
     </g>
     <g id="line2d_83">
      <g>
       <use style="stroke:#000000;stroke-width:0.8;" x="290.844605" xlink:href="#m66c06efd94" y="147.14"/>
      </g>
     </g>
    </g>
    <g id="xtick_34">
     <g id="line2d_84">
      <path clip-path="url(#pa379bcdbb9)" d="M 312.341447 147.14 
L 312.341447 93.96 
" style="fill:none;stroke:#b0b0b0;stroke-linecap:square;stroke-width:0.8;"/>
     </g>
     <g id="line2d_85">
      <g>
       <use style="stroke:#000000;stroke-width:0.8;" x="312.341447" xlink:href="#m66c06efd94" y="147.14"/>
      </g>
     </g>
    </g>
    <g id="xtick_35">
     <g id="line2d_86">
      <path clip-path="url(#pa379bcdbb9)" d="M 333.838289 147.14 
L 333.838289 93.96 
" style="fill:none;stroke:#b0b0b0;stroke-linecap:square;stroke-width:0.8;"/>
     </g>
     <g id="line2d_87">
      <g>
       <use style="stroke:#000000;stroke-width:0.8;" x="333.838289" xlink:href="#m66c06efd94" y="147.14"/>
      </g>
     </g>
    </g>
    <g id="xtick_36">
     <g id="line2d_88">
      <path clip-path="url(#pa379bcdbb9)" d="M 355.335132 147.14 
L 355.335132 93.96 
" style="fill:none;stroke:#b0b0b0;stroke-linecap:square;stroke-width:0.8;"/>
     </g>
     <g id="line2d_89">
      <g>
       <use style="stroke:#000000;stroke-width:0.8;" x="355.335132" xlink:href="#m66c06efd94" y="147.14"/>
      </g>
     </g>
    </g>
    <g id="xtick_37">
     <g id="line2d_90">
      <path clip-path="url(#pa379bcdbb9)" d="M 376.831974 147.14 
L 376.831974 93.96 
" style="fill:none;stroke:#b0b0b0;stroke-linecap:square;stroke-width:0.8;"/>
     </g>
     <g id="line2d_91">
      <g>
       <use style="stroke:#000000;stroke-width:0.8;" x="376.831974" xlink:href="#m66c06efd94" y="147.14"/>
      </g>
     </g>
    </g>
    <g id="xtick_38">
     <g id="line2d_92">
      <path clip-path="url(#pa379bcdbb9)" d="M 398.328816 147.14 
L 398.328816 93.96 
" style="fill:none;stroke:#b0b0b0;stroke-linecap:square;stroke-width:0.8;"/>
     </g>
     <g id="line2d_93">
      <g>
       <use style="stroke:#000000;stroke-width:0.8;" x="398.328816" xlink:href="#m66c06efd94" y="147.14"/>
      </g>
     </g>
    </g>
    <g id="xtick_39">
     <g id="line2d_94">
      <path clip-path="url(#pa379bcdbb9)" d="M 419.825658 147.14 
L 419.825658 93.96 
" style="fill:none;stroke:#b0b0b0;stroke-linecap:square;stroke-width:0.8;"/>
     </g>
     <g id="line2d_95">
      <g>
       <use style="stroke:#000000;stroke-width:0.8;" x="419.825658" xlink:href="#m66c06efd94" y="147.14"/>
      </g>
     </g>
    </g>
    <g id="xtick_40">
     <g id="line2d_96">
      <path clip-path="url(#pa379bcdbb9)" d="M 441.3225 147.14 
L 441.3225 93.96 
" style="fill:none;stroke:#b0b0b0;stroke-linecap:square;stroke-width:0.8;"/>
     </g>
     <g id="line2d_97">
      <g>
       <use style="stroke:#000000;stroke-width:0.8;" x="441.3225" xlink:href="#m66c06efd94" y="147.14"/>
      </g>
     </g>
    </g>
    <g id="text_11">
     <!-- Lost nodes (%) -->
     <g transform="translate(207.24375 157.21875)scale(0.08 -0.08)">
      <use xlink:href="#DejaVuSans-76"/>
      <use x="55.697266" xlink:href="#DejaVuSans-111"/>
      <use x="116.878906" xlink:href="#DejaVuSans-115"/>
      <use x="168.978516" xlink:href="#DejaVuSans-116"/>
      <use x="208.1875" xlink:href="#DejaVuSans-32"/>
      <use x="239.974609" xlink:href="#DejaVuSans-110"/>
      <use x="303.353516" xlink:href="#DejaVuSans-111"/>
      <use x="364.535156" xlink:href="#DejaVuSans-100"/>
      <use x="428.011719" xlink:href="#DejaVuSans-101"/>
      <use x="489.535156" xlink:href="#DejaVuSans-115"/>
      <use x="541.634766" xlink:href="#DejaVuSans-32"/>
      <use x="573.421875" xlink:href="#DejaVuSans-40"/>
      <use x="612.435547" xlink:href="#DejaVuSans-37"/>
      <use x="707.455078" xlink:href="#DejaVuSans-41"/>
     </g>
    </g>
   </g>
   <g id="matplotlib.axis_4">
    <g id="ytick_5">
     <g id="line2d_98">
      <path clip-path="url(#pa379bcdbb9)" d="M 32.8825 144.800955 
L 441.3225 144.800955 
" style="fill:none;stroke:#b0b0b0;stroke-linecap:square;stroke-width:0.8;"/>
     </g>
     <g id="line2d_99">
      <g>
       <use style="stroke:#000000;stroke-width:0.8;" x="32.8825" xlink:href="#m6be9bccbbe" y="144.800955"/>
      </g>
     </g>
     <g id="text_12">
      <!-- 0 -->
      <g transform="translate(19.52 148.600173)scale(0.1 -0.1)">
       <use xlink:href="#DejaVuSans-48"/>
      </g>
     </g>
    </g>
    <g id="ytick_6">
     <g id="line2d_100">
      <path clip-path="url(#pa379bcdbb9)" d="M 32.8825 131.686175 
L 441.3225 131.686175 
" style="fill:none;stroke:#b0b0b0;stroke-linecap:square;stroke-width:0.8;"/>
     </g>
     <g id="line2d_101">
      <g>
       <use style="stroke:#000000;stroke-width:0.8;" x="32.8825" xlink:href="#m6be9bccbbe" y="131.686175"/>
      </g>
     </g>
     <g id="text_13">
      <!-- 1 -->
      <g transform="translate(19.52 135.485394)scale(0.1 -0.1)">
       <use xlink:href="#DejaVuSans-49"/>
      </g>
     </g>
    </g>
    <g id="ytick_7">
     <g id="line2d_102">
      <path clip-path="url(#pa379bcdbb9)" d="M 32.8825 118.571396 
L 441.3225 118.571396 
" style="fill:none;stroke:#b0b0b0;stroke-linecap:square;stroke-width:0.8;"/>
     </g>
     <g id="line2d_103">
      <g>
       <use style="stroke:#000000;stroke-width:0.8;" x="32.8825" xlink:href="#m6be9bccbbe" y="118.571396"/>
      </g>
     </g>
     <g id="text_14">
      <!-- 2 -->
      <g transform="translate(19.52 122.370614)scale(0.1 -0.1)">
       <use xlink:href="#DejaVuSans-50"/>
      </g>
     </g>
    </g>
    <g id="ytick_8">
     <g id="line2d_104">
      <path clip-path="url(#pa379bcdbb9)" d="M 32.8825 105.456616 
L 441.3225 105.456616 
" style="fill:none;stroke:#b0b0b0;stroke-linecap:square;stroke-width:0.8;"/>
     </g>
     <g id="line2d_105">
      <g>
       <use style="stroke:#000000;stroke-width:0.8;" x="32.8825" xlink:href="#m6be9bccbbe" y="105.456616"/>
      </g>
     </g>
     <g id="text_15">
      <!-- 3 -->
      <g transform="translate(19.52 109.255835)scale(0.1 -0.1)">
       <use xlink:href="#DejaVuSans-51"/>
      </g>
     </g>
    </g>
    <g id="text_16">
     <!-- $\Delta D_q$ -->
     <g transform="translate(13.04 128.27)rotate(-90)scale(0.08 -0.08)">
      <use transform="translate(0 0.09375)" xlink:href="#DejaVuSans-916"/>
      <use transform="translate(68.408203 0.09375)" xlink:href="#DejaVuSans-Oblique-68"/>
      <use transform="translate(145.410156 -16.3125)scale(0.7)" xlink:href="#DejaVuSans-Oblique-113"/>
     </g>
    </g>
   </g>
   <g id="line2d_106">
    <path clip-path="url(#pa379bcdbb9)" d="M 32.8825 130.659537 
L 54.379342 130.677119 
L 75.876184 130.573844 
L 97.373026 130.390354 
L 118.869868 130.365929 
L 140.366711 130.195407 
L 161.863553 130.477722 
L 183.360395 129.968285 
L 204.857237 130.005687 
L 226.354079 130.235127 
L 247.850921 130.248068 
L 269.347763 130.152962 
L 290.844605 130.002334 
L 312.341447 130.007442 
L 333.838289 130.138923 
L 355.335132 129.787319 
L 376.831974 129.988826 
L 398.328816 129.957232 
L 419.825658 129.626825 
L 441.3225 130.733663 
" style="fill:none;stroke:#ff0000;stroke-linecap:square;stroke-width:1.5;"/>
   </g>
   <g id="line2d_107">
    <path clip-path="url(#pa379bcdbb9)" d="M 32.8825 133.644248 
L 54.379342 131.670415 
L 75.876184 129.9177 
L 97.373026 128.007985 
L 118.869868 126.475569 
L 140.366711 125.06458 
L 161.863553 123.867343 
L 183.360395 122.77184 
L 204.857237 121.73026 
L 226.354079 120.730975 
L 247.850921 119.852987 
L 269.347763 119.098279 
L 290.844605 118.296075 
L 312.341447 117.830296 
L 333.838289 117.813 
L 355.335132 118.539197 
L 376.831974 120.951055 
L 398.328816 125.932138 
L 419.825658 136.657149 
L 441.3225 127.252543 
" style="fill:none;stroke:#008000;stroke-linecap:square;stroke-width:1.5;"/>
   </g>
   <g id="line2d_108">
    <path clip-path="url(#pa379bcdbb9)" d="M 32.8825 133.676151 
L 54.379342 131.728679 
L 75.876184 129.819796 
L 97.373026 128.073902 
L 118.869868 126.38701 
L 140.366711 125.010128 
L 161.863553 123.789193 
L 183.360395 122.757693 
L 204.857237 121.673825 
L 226.354079 120.73657 
L 247.850921 119.80033 
L 269.347763 118.976698 
L 290.844605 118.355557 
L 312.341447 117.954937 
L 333.838289 117.95042 
L 355.335132 118.75146 
L 376.831974 120.701018 
L 398.328816 124.95619 
L 419.825658 133.321285 
L 441.3225 142.401773 
" style="fill:none;stroke:#0000ff;stroke-linecap:square;stroke-width:1.5;"/>
   </g>
   <g id="patch_9">
    <path d="M 32.8825 147.14 
L 32.8825 93.96 
" style="fill:none;stroke:#000000;stroke-linecap:square;stroke-linejoin:miter;stroke-width:0.8;"/>
   </g>
   <g id="patch_10">
    <path d="M 441.3225 147.14 
L 441.3225 93.96 
" style="fill:none;stroke:#000000;stroke-linecap:square;stroke-linejoin:miter;stroke-width:0.8;"/>
   </g>
   <g id="patch_11">
    <path d="M 32.8825 147.14 
L 441.3225 147.14 
" style="fill:none;stroke:#000000;stroke-linecap:square;stroke-linejoin:miter;stroke-width:0.8;"/>
   </g>
   <g id="patch_12">
    <path d="M 32.8825 93.96 
L 441.3225 93.96 
" style="fill:none;stroke:#000000;stroke-linecap:square;stroke-linejoin:miter;stroke-width:0.8;"/>
   </g>
   <g id="text_17">
    <!-- b)hub degree 100 -->
    <g transform="translate(201.11 170.03875)scale(0.08 -0.08)">
     <use xlink:href="#DejaVuSans-98"/>
     <use x="63.476562" xlink:href="#DejaVuSans-41"/>
     <use x="102.490234" xlink:href="#DejaVuSans-104"/>
     <use x="165.869141" xlink:href="#DejaVuSans-117"/>
     <use x="229.248047" xlink:href="#DejaVuSans-98"/>
     <use x="292.724609" xlink:href="#DejaVuSans-32"/>
     <use x="324.511719" xlink:href="#DejaVuSans-100"/>
     <use x="387.988281" xlink:href="#DejaVuSans-101"/>
     <use x="449.511719" xlink:href="#DejaVuSans-103"/>
     <use x="512.988281" xlink:href="#DejaVuSans-114"/>
     <use x="554.070312" xlink:href="#DejaVuSans-101"/>
     <use x="615.59375" xlink:href="#DejaVuSans-101"/>
     <use x="677.117188" xlink:href="#DejaVuSans-32"/>
     <use x="708.904297" xlink:href="#DejaVuSans-49"/>
     <use x="772.527344" xlink:href="#DejaVuSans-48"/>
     <use x="836.150391" xlink:href="#DejaVuSans-48"/>
    </g>
   </g>
  </g>
  <g id="axes_3">
   <g id="patch_13">
    <path d="M 32.8825 230.4 
L 441.3225 230.4 
L 441.3225 177.22 
L 32.8825 177.22 
z
" style="fill:#ffffff;"/>
   </g>
   <g id="matplotlib.axis_5">
    <g id="xtick_41">
     <g id="line2d_109">
      <path clip-path="url(#pa561e65636)" d="M 32.8825 230.4 
L 32.8825 177.22 
" style="fill:none;stroke:#b0b0b0;stroke-linecap:square;stroke-width:0.8;"/>
     </g>
     <g id="line2d_110">
      <g>
       <use style="stroke:#000000;stroke-width:0.8;" x="32.8825" xlink:href="#m66c06efd94" y="230.4"/>
      </g>
     </g>
    </g>
    <g id="xtick_42">
     <g id="line2d_111">
      <path clip-path="url(#pa561e65636)" d="M 54.379342 230.4 
L 54.379342 177.22 
" style="fill:none;stroke:#b0b0b0;stroke-linecap:square;stroke-width:0.8;"/>
     </g>
     <g id="line2d_112">
      <g>
       <use style="stroke:#000000;stroke-width:0.8;" x="54.379342" xlink:href="#m66c06efd94" y="230.4"/>
      </g>
     </g>
    </g>
    <g id="xtick_43">
     <g id="line2d_113">
      <path clip-path="url(#pa561e65636)" d="M 75.876184 230.4 
L 75.876184 177.22 
" style="fill:none;stroke:#b0b0b0;stroke-linecap:square;stroke-width:0.8;"/>
     </g>
     <g id="line2d_114">
      <g>
       <use style="stroke:#000000;stroke-width:0.8;" x="75.876184" xlink:href="#m66c06efd94" y="230.4"/>
      </g>
     </g>
    </g>
    <g id="xtick_44">
     <g id="line2d_115">
      <path clip-path="url(#pa561e65636)" d="M 97.373026 230.4 
L 97.373026 177.22 
" style="fill:none;stroke:#b0b0b0;stroke-linecap:square;stroke-width:0.8;"/>
     </g>
     <g id="line2d_116">
      <g>
       <use style="stroke:#000000;stroke-width:0.8;" x="97.373026" xlink:href="#m66c06efd94" y="230.4"/>
      </g>
     </g>
    </g>
    <g id="xtick_45">
     <g id="line2d_117">
      <path clip-path="url(#pa561e65636)" d="M 118.869868 230.4 
L 118.869868 177.22 
" style="fill:none;stroke:#b0b0b0;stroke-linecap:square;stroke-width:0.8;"/>
     </g>
     <g id="line2d_118">
      <g>
       <use style="stroke:#000000;stroke-width:0.8;" x="118.869868" xlink:href="#m66c06efd94" y="230.4"/>
      </g>
     </g>
    </g>
    <g id="xtick_46">
     <g id="line2d_119">
      <path clip-path="url(#pa561e65636)" d="M 140.366711 230.4 
L 140.366711 177.22 
" style="fill:none;stroke:#b0b0b0;stroke-linecap:square;stroke-width:0.8;"/>
     </g>
     <g id="line2d_120">
      <g>
       <use style="stroke:#000000;stroke-width:0.8;" x="140.366711" xlink:href="#m66c06efd94" y="230.4"/>
      </g>
     </g>
    </g>
    <g id="xtick_47">
     <g id="line2d_121">
      <path clip-path="url(#pa561e65636)" d="M 161.863553 230.4 
L 161.863553 177.22 
" style="fill:none;stroke:#b0b0b0;stroke-linecap:square;stroke-width:0.8;"/>
     </g>
     <g id="line2d_122">
      <g>
       <use style="stroke:#000000;stroke-width:0.8;" x="161.863553" xlink:href="#m66c06efd94" y="230.4"/>
      </g>
     </g>
    </g>
    <g id="xtick_48">
     <g id="line2d_123">
      <path clip-path="url(#pa561e65636)" d="M 183.360395 230.4 
L 183.360395 177.22 
" style="fill:none;stroke:#b0b0b0;stroke-linecap:square;stroke-width:0.8;"/>
     </g>
     <g id="line2d_124">
      <g>
       <use style="stroke:#000000;stroke-width:0.8;" x="183.360395" xlink:href="#m66c06efd94" y="230.4"/>
      </g>
     </g>
    </g>
    <g id="xtick_49">
     <g id="line2d_125">
      <path clip-path="url(#pa561e65636)" d="M 204.857237 230.4 
L 204.857237 177.22 
" style="fill:none;stroke:#b0b0b0;stroke-linecap:square;stroke-width:0.8;"/>
     </g>
     <g id="line2d_126">
      <g>
       <use style="stroke:#000000;stroke-width:0.8;" x="204.857237" xlink:href="#m66c06efd94" y="230.4"/>
      </g>
     </g>
    </g>
    <g id="xtick_50">
     <g id="line2d_127">
      <path clip-path="url(#pa561e65636)" d="M 226.354079 230.4 
L 226.354079 177.22 
" style="fill:none;stroke:#b0b0b0;stroke-linecap:square;stroke-width:0.8;"/>
     </g>
     <g id="line2d_128">
      <g>
       <use style="stroke:#000000;stroke-width:0.8;" x="226.354079" xlink:href="#m66c06efd94" y="230.4"/>
      </g>
     </g>
    </g>
    <g id="xtick_51">
     <g id="line2d_129">
      <path clip-path="url(#pa561e65636)" d="M 247.850921 230.4 
L 247.850921 177.22 
" style="fill:none;stroke:#b0b0b0;stroke-linecap:square;stroke-width:0.8;"/>
     </g>
     <g id="line2d_130">
      <g>
       <use style="stroke:#000000;stroke-width:0.8;" x="247.850921" xlink:href="#m66c06efd94" y="230.4"/>
      </g>
     </g>
    </g>
    <g id="xtick_52">
     <g id="line2d_131">
      <path clip-path="url(#pa561e65636)" d="M 269.347763 230.4 
L 269.347763 177.22 
" style="fill:none;stroke:#b0b0b0;stroke-linecap:square;stroke-width:0.8;"/>
     </g>
     <g id="line2d_132">
      <g>
       <use style="stroke:#000000;stroke-width:0.8;" x="269.347763" xlink:href="#m66c06efd94" y="230.4"/>
      </g>
     </g>
    </g>
    <g id="xtick_53">
     <g id="line2d_133">
      <path clip-path="url(#pa561e65636)" d="M 290.844605 230.4 
L 290.844605 177.22 
" style="fill:none;stroke:#b0b0b0;stroke-linecap:square;stroke-width:0.8;"/>
     </g>
     <g id="line2d_134">
      <g>
       <use style="stroke:#000000;stroke-width:0.8;" x="290.844605" xlink:href="#m66c06efd94" y="230.4"/>
      </g>
     </g>
    </g>
    <g id="xtick_54">
     <g id="line2d_135">
      <path clip-path="url(#pa561e65636)" d="M 312.341447 230.4 
L 312.341447 177.22 
" style="fill:none;stroke:#b0b0b0;stroke-linecap:square;stroke-width:0.8;"/>
     </g>
     <g id="line2d_136">
      <g>
       <use style="stroke:#000000;stroke-width:0.8;" x="312.341447" xlink:href="#m66c06efd94" y="230.4"/>
      </g>
     </g>
    </g>
    <g id="xtick_55">
     <g id="line2d_137">
      <path clip-path="url(#pa561e65636)" d="M 333.838289 230.4 
L 333.838289 177.22 
" style="fill:none;stroke:#b0b0b0;stroke-linecap:square;stroke-width:0.8;"/>
     </g>
     <g id="line2d_138">
      <g>
       <use style="stroke:#000000;stroke-width:0.8;" x="333.838289" xlink:href="#m66c06efd94" y="230.4"/>
      </g>
     </g>
    </g>
    <g id="xtick_56">
     <g id="line2d_139">
      <path clip-path="url(#pa561e65636)" d="M 355.335132 230.4 
L 355.335132 177.22 
" style="fill:none;stroke:#b0b0b0;stroke-linecap:square;stroke-width:0.8;"/>
     </g>
     <g id="line2d_140">
      <g>
       <use style="stroke:#000000;stroke-width:0.8;" x="355.335132" xlink:href="#m66c06efd94" y="230.4"/>
      </g>
     </g>
    </g>
    <g id="xtick_57">
     <g id="line2d_141">
      <path clip-path="url(#pa561e65636)" d="M 376.831974 230.4 
L 376.831974 177.22 
" style="fill:none;stroke:#b0b0b0;stroke-linecap:square;stroke-width:0.8;"/>
     </g>
     <g id="line2d_142">
      <g>
       <use style="stroke:#000000;stroke-width:0.8;" x="376.831974" xlink:href="#m66c06efd94" y="230.4"/>
      </g>
     </g>
    </g>
    <g id="xtick_58">
     <g id="line2d_143">
      <path clip-path="url(#pa561e65636)" d="M 398.328816 230.4 
L 398.328816 177.22 
" style="fill:none;stroke:#b0b0b0;stroke-linecap:square;stroke-width:0.8;"/>
     </g>
     <g id="line2d_144">
      <g>
       <use style="stroke:#000000;stroke-width:0.8;" x="398.328816" xlink:href="#m66c06efd94" y="230.4"/>
      </g>
     </g>
    </g>
    <g id="xtick_59">
     <g id="line2d_145">
      <path clip-path="url(#pa561e65636)" d="M 419.825658 230.4 
L 419.825658 177.22 
" style="fill:none;stroke:#b0b0b0;stroke-linecap:square;stroke-width:0.8;"/>
     </g>
     <g id="line2d_146">
      <g>
       <use style="stroke:#000000;stroke-width:0.8;" x="419.825658" xlink:href="#m66c06efd94" y="230.4"/>
      </g>
     </g>
    </g>
    <g id="xtick_60">
     <g id="line2d_147">
      <path clip-path="url(#pa561e65636)" d="M 441.3225 230.4 
L 441.3225 177.22 
" style="fill:none;stroke:#b0b0b0;stroke-linecap:square;stroke-width:0.8;"/>
     </g>
     <g id="line2d_148">
      <g>
       <use style="stroke:#000000;stroke-width:0.8;" x="441.3225" xlink:href="#m66c06efd94" y="230.4"/>
      </g>
     </g>
    </g>
    <g id="text_18">
     <!-- Lost nodes (%) -->
     <g transform="translate(207.24375 240.47875)scale(0.08 -0.08)">
      <use xlink:href="#DejaVuSans-76"/>
      <use x="55.697266" xlink:href="#DejaVuSans-111"/>
      <use x="116.878906" xlink:href="#DejaVuSans-115"/>
      <use x="168.978516" xlink:href="#DejaVuSans-116"/>
      <use x="208.1875" xlink:href="#DejaVuSans-32"/>
      <use x="239.974609" xlink:href="#DejaVuSans-110"/>
      <use x="303.353516" xlink:href="#DejaVuSans-111"/>
      <use x="364.535156" xlink:href="#DejaVuSans-100"/>
      <use x="428.011719" xlink:href="#DejaVuSans-101"/>
      <use x="489.535156" xlink:href="#DejaVuSans-115"/>
      <use x="541.634766" xlink:href="#DejaVuSans-32"/>
      <use x="573.421875" xlink:href="#DejaVuSans-40"/>
      <use x="612.435547" xlink:href="#DejaVuSans-37"/>
      <use x="707.455078" xlink:href="#DejaVuSans-41"/>
     </g>
    </g>
   </g>
   <g id="matplotlib.axis_6">
    <g id="ytick_9">
     <g id="line2d_149">
      <path clip-path="url(#pa561e65636)" d="M 32.8825 228.060955 
L 441.3225 228.060955 
" style="fill:none;stroke:#b0b0b0;stroke-linecap:square;stroke-width:0.8;"/>
     </g>
     <g id="line2d_150">
      <g>
       <use style="stroke:#000000;stroke-width:0.8;" x="32.8825" xlink:href="#m6be9bccbbe" y="228.060955"/>
      </g>
     </g>
     <g id="text_19">
      <!-- 0 -->
      <g transform="translate(19.52 231.860173)scale(0.1 -0.1)">
       <use xlink:href="#DejaVuSans-48"/>
      </g>
     </g>
    </g>
    <g id="ytick_10">
     <g id="line2d_151">
      <path clip-path="url(#pa561e65636)" d="M 32.8825 214.946175 
L 441.3225 214.946175 
" style="fill:none;stroke:#b0b0b0;stroke-linecap:square;stroke-width:0.8;"/>
     </g>
     <g id="line2d_152">
      <g>
       <use style="stroke:#000000;stroke-width:0.8;" x="32.8825" xlink:href="#m6be9bccbbe" y="214.946175"/>
      </g>
     </g>
     <g id="text_20">
      <!-- 1 -->
      <g transform="translate(19.52 218.745394)scale(0.1 -0.1)">
       <use xlink:href="#DejaVuSans-49"/>
      </g>
     </g>
    </g>
    <g id="ytick_11">
     <g id="line2d_153">
      <path clip-path="url(#pa561e65636)" d="M 32.8825 201.831396 
L 441.3225 201.831396 
" style="fill:none;stroke:#b0b0b0;stroke-linecap:square;stroke-width:0.8;"/>
     </g>
     <g id="line2d_154">
      <g>
       <use style="stroke:#000000;stroke-width:0.8;" x="32.8825" xlink:href="#m6be9bccbbe" y="201.831396"/>
      </g>
     </g>
     <g id="text_21">
      <!-- 2 -->
      <g transform="translate(19.52 205.630614)scale(0.1 -0.1)">
       <use xlink:href="#DejaVuSans-50"/>
      </g>
     </g>
    </g>
    <g id="ytick_12">
     <g id="line2d_155">
      <path clip-path="url(#pa561e65636)" d="M 32.8825 188.716616 
L 441.3225 188.716616 
" style="fill:none;stroke:#b0b0b0;stroke-linecap:square;stroke-width:0.8;"/>
     </g>
     <g id="line2d_156">
      <g>
       <use style="stroke:#000000;stroke-width:0.8;" x="32.8825" xlink:href="#m6be9bccbbe" y="188.716616"/>
      </g>
     </g>
     <g id="text_22">
      <!-- 3 -->
      <g transform="translate(19.52 192.515835)scale(0.1 -0.1)">
       <use xlink:href="#DejaVuSans-51"/>
      </g>
     </g>
    </g>
    <g id="text_23">
     <!-- $\Delta D_q$ -->
     <g transform="translate(13.04 211.53)rotate(-90)scale(0.08 -0.08)">
      <use transform="translate(0 0.09375)" xlink:href="#DejaVuSans-916"/>
      <use transform="translate(68.408203 0.09375)" xlink:href="#DejaVuSans-Oblique-68"/>
      <use transform="translate(145.410156 -16.3125)scale(0.7)" xlink:href="#DejaVuSans-Oblique-113"/>
     </g>
    </g>
   </g>
   <g id="line2d_157">
    <path clip-path="url(#pa561e65636)" d="M 32.8825 206.864983 
L 54.379342 206.897059 
L 75.876184 207.036115 
L 97.373026 207.099103 
L 118.869868 207.329433 
L 140.366711 207.330212 
L 161.863553 207.356502 
L 183.360395 207.324681 
L 204.857237 207.632049 
L 226.354079 207.813213 
L 247.850921 207.980356 
L 269.347763 208.16562 
L 290.844605 208.556058 
L 312.341447 208.854294 
L 333.838289 209.750762 
L 355.335132 210.640403 
L 376.831974 214.123238 
L 398.328816 217.90199 
L 419.825658 223.165167 
L 441.3225 223.61547 
" style="fill:none;stroke:#ff0000;stroke-linecap:square;stroke-width:1.5;"/>
   </g>
   <g id="line2d_158">
    <path clip-path="url(#pa561e65636)" d="M 32.8825 224.71387 
L 54.379342 223.037935 
L 75.876184 222.273038 
L 97.373026 222.155444 
L 118.869868 222.803774 
L 140.366711 224.22507 
L 161.863553 226.284467 
L 183.360395 227.099096 
L 204.857237 223.805386 
L 226.354079 220.200345 
L 247.850921 215.945673 
L 269.347763 210.880085 
L 290.844605 204.780781 
L 312.341447 196.756356 
L 333.838289 189.307376 
L 355.335132 184.427834 
L 376.831974 179.637273 
L 398.328816 179.637273 
L 419.825658 179.637273 
L 441.3225 179.637273 
" style="fill:none;stroke:#008000;stroke-linecap:square;stroke-width:1.5;"/>
   </g>
   <g id="line2d_159">
    <path clip-path="url(#pa561e65636)" d="M 32.8825 224.145072 
L 54.379342 222.537608 
L 75.876184 221.843866 
L 97.373026 221.668704 
L 118.869868 222.206193 
L 140.366711 223.583243 
L 161.863553 225.578219 
L 183.360395 227.982727 
L 204.857237 224.880884 
L 226.354079 221.374964 
L 247.850921 217.358754 
L 269.347763 212.853133 
L 290.844605 208.247756 
L 312.341447 203.319339 
L 333.838289 198.973652 
L 355.335132 195.113052 
L 376.831974 193.431419 
L 398.328816 191.036385 
L 419.825658 182.692815 
L 441.3225 180.106061 
" style="fill:none;stroke:#0000ff;stroke-linecap:square;stroke-width:1.5;"/>
   </g>
   <g id="patch_14">
    <path d="M 32.8825 230.4 
L 32.8825 177.22 
" style="fill:none;stroke:#000000;stroke-linecap:square;stroke-linejoin:miter;stroke-width:0.8;"/>
   </g>
   <g id="patch_15">
    <path d="M 441.3225 230.4 
L 441.3225 177.22 
" style="fill:none;stroke:#000000;stroke-linecap:square;stroke-linejoin:miter;stroke-width:0.8;"/>
   </g>
   <g id="patch_16">
    <path d="M 32.8825 230.4 
L 441.3225 230.4 
" style="fill:none;stroke:#000000;stroke-linecap:square;stroke-linejoin:miter;stroke-width:0.8;"/>
   </g>
   <g id="patch_17">
    <path d="M 32.8825 177.22 
L 441.3225 177.22 
" style="fill:none;stroke:#000000;stroke-linecap:square;stroke-linejoin:miter;stroke-width:0.8;"/>
   </g>
   <g id="text_24">
    <!-- c)hub degree 200 -->
    <g transform="translate(201.45 253.29875)scale(0.08 -0.08)">
     <use xlink:href="#DejaVuSans-99"/>
     <use x="54.980469" xlink:href="#DejaVuSans-41"/>
     <use x="93.994141" xlink:href="#DejaVuSans-104"/>
     <use x="157.373047" xlink:href="#DejaVuSans-117"/>
     <use x="220.751953" xlink:href="#DejaVuSans-98"/>
     <use x="284.228516" xlink:href="#DejaVuSans-32"/>
     <use x="316.015625" xlink:href="#DejaVuSans-100"/>
     <use x="379.492188" xlink:href="#DejaVuSans-101"/>
     <use x="441.015625" xlink:href="#DejaVuSans-103"/>
     <use x="504.492188" xlink:href="#DejaVuSans-114"/>
     <use x="545.574219" xlink:href="#DejaVuSans-101"/>
     <use x="607.097656" xlink:href="#DejaVuSans-101"/>
     <use x="668.621094" xlink:href="#DejaVuSans-32"/>
     <use x="700.408203" xlink:href="#DejaVuSans-50"/>
     <use x="764.03125" xlink:href="#DejaVuSans-48"/>
     <use x="827.654297" xlink:href="#DejaVuSans-48"/>
    </g>
   </g>
  </g>
  <g id="axes_4">
   <g id="patch_18">
    <path d="M 32.8825 313.66 
L 441.3225 313.66 
L 441.3225 260.48 
L 32.8825 260.48 
z
" style="fill:#ffffff;"/>
   </g>
   <g id="matplotlib.axis_7">
    <g id="xtick_61">
     <g id="line2d_160">
      <path clip-path="url(#pd403fe9c6d)" d="M 32.8825 313.66 
L 32.8825 260.48 
" style="fill:none;stroke:#b0b0b0;stroke-linecap:square;stroke-width:0.8;"/>
     </g>
     <g id="line2d_161">
      <g>
       <use style="stroke:#000000;stroke-width:0.8;" x="32.8825" xlink:href="#m66c06efd94" y="313.66"/>
      </g>
     </g>
     <g id="text_25">
      <!-- 0 -->
      <g transform="translate(29.70125 328.258437)scale(0.1 -0.1)">
       <use xlink:href="#DejaVuSans-48"/>
      </g>
     </g>
    </g>
    <g id="xtick_62">
     <g id="line2d_162">
      <path clip-path="url(#pd403fe9c6d)" d="M 54.379342 313.66 
L 54.379342 260.48 
" style="fill:none;stroke:#b0b0b0;stroke-linecap:square;stroke-width:0.8;"/>
     </g>
     <g id="line2d_163">
      <g>
       <use style="stroke:#000000;stroke-width:0.8;" x="54.379342" xlink:href="#m66c06efd94" y="313.66"/>
      </g>
     </g>
     <g id="text_26">
      <!-- 5 -->
      <g transform="translate(51.198092 328.258437)scale(0.1 -0.1)">
       <use xlink:href="#DejaVuSans-53"/>
      </g>
     </g>
    </g>
    <g id="xtick_63">
     <g id="line2d_164">
      <path clip-path="url(#pd403fe9c6d)" d="M 75.876184 313.66 
L 75.876184 260.48 
" style="fill:none;stroke:#b0b0b0;stroke-linecap:square;stroke-width:0.8;"/>
     </g>
     <g id="line2d_165">
      <g>
       <use style="stroke:#000000;stroke-width:0.8;" x="75.876184" xlink:href="#m66c06efd94" y="313.66"/>
      </g>
     </g>
     <g id="text_27">
      <!-- 10 -->
      <g transform="translate(69.513684 328.258437)scale(0.1 -0.1)">
       <use xlink:href="#DejaVuSans-49"/>
       <use x="63.623047" xlink:href="#DejaVuSans-48"/>
      </g>
     </g>
    </g>
    <g id="xtick_64">
     <g id="line2d_166">
      <path clip-path="url(#pd403fe9c6d)" d="M 97.373026 313.66 
L 97.373026 260.48 
" style="fill:none;stroke:#b0b0b0;stroke-linecap:square;stroke-width:0.8;"/>
     </g>
     <g id="line2d_167">
      <g>
       <use style="stroke:#000000;stroke-width:0.8;" x="97.373026" xlink:href="#m66c06efd94" y="313.66"/>
      </g>
     </g>
     <g id="text_28">
      <!-- 15 -->
      <g transform="translate(91.010526 328.258437)scale(0.1 -0.1)">
       <use xlink:href="#DejaVuSans-49"/>
       <use x="63.623047" xlink:href="#DejaVuSans-53"/>
      </g>
     </g>
    </g>
    <g id="xtick_65">
     <g id="line2d_168">
      <path clip-path="url(#pd403fe9c6d)" d="M 118.869868 313.66 
L 118.869868 260.48 
" style="fill:none;stroke:#b0b0b0;stroke-linecap:square;stroke-width:0.8;"/>
     </g>
     <g id="line2d_169">
      <g>
       <use style="stroke:#000000;stroke-width:0.8;" x="118.869868" xlink:href="#m66c06efd94" y="313.66"/>
      </g>
     </g>
     <g id="text_29">
      <!-- 20 -->
      <g transform="translate(112.507368 328.258437)scale(0.1 -0.1)">
       <use xlink:href="#DejaVuSans-50"/>
       <use x="63.623047" xlink:href="#DejaVuSans-48"/>
      </g>
     </g>
    </g>
    <g id="xtick_66">
     <g id="line2d_170">
      <path clip-path="url(#pd403fe9c6d)" d="M 140.366711 313.66 
L 140.366711 260.48 
" style="fill:none;stroke:#b0b0b0;stroke-linecap:square;stroke-width:0.8;"/>
     </g>
     <g id="line2d_171">
      <g>
       <use style="stroke:#000000;stroke-width:0.8;" x="140.366711" xlink:href="#m66c06efd94" y="313.66"/>
      </g>
     </g>
     <g id="text_30">
      <!-- 25 -->
      <g transform="translate(134.004211 328.258437)scale(0.1 -0.1)">
       <use xlink:href="#DejaVuSans-50"/>
       <use x="63.623047" xlink:href="#DejaVuSans-53"/>
      </g>
     </g>
    </g>
    <g id="xtick_67">
     <g id="line2d_172">
      <path clip-path="url(#pd403fe9c6d)" d="M 161.863553 313.66 
L 161.863553 260.48 
" style="fill:none;stroke:#b0b0b0;stroke-linecap:square;stroke-width:0.8;"/>
     </g>
     <g id="line2d_173">
      <g>
       <use style="stroke:#000000;stroke-width:0.8;" x="161.863553" xlink:href="#m66c06efd94" y="313.66"/>
      </g>
     </g>
     <g id="text_31">
      <!-- 30 -->
      <g transform="translate(155.501053 328.258437)scale(0.1 -0.1)">
       <use xlink:href="#DejaVuSans-51"/>
       <use x="63.623047" xlink:href="#DejaVuSans-48"/>
      </g>
     </g>
    </g>
    <g id="xtick_68">
     <g id="line2d_174">
      <path clip-path="url(#pd403fe9c6d)" d="M 183.360395 313.66 
L 183.360395 260.48 
" style="fill:none;stroke:#b0b0b0;stroke-linecap:square;stroke-width:0.8;"/>
     </g>
     <g id="line2d_175">
      <g>
       <use style="stroke:#000000;stroke-width:0.8;" x="183.360395" xlink:href="#m66c06efd94" y="313.66"/>
      </g>
     </g>
     <g id="text_32">
      <!-- 35 -->
      <g transform="translate(176.997895 328.258437)scale(0.1 -0.1)">
       <use xlink:href="#DejaVuSans-51"/>
       <use x="63.623047" xlink:href="#DejaVuSans-53"/>
      </g>
     </g>
    </g>
    <g id="xtick_69">
     <g id="line2d_176">
      <path clip-path="url(#pd403fe9c6d)" d="M 204.857237 313.66 
L 204.857237 260.48 
" style="fill:none;stroke:#b0b0b0;stroke-linecap:square;stroke-width:0.8;"/>
     </g>
     <g id="line2d_177">
      <g>
       <use style="stroke:#000000;stroke-width:0.8;" x="204.857237" xlink:href="#m66c06efd94" y="313.66"/>
      </g>
     </g>
     <g id="text_33">
      <!-- 40 -->
      <defs>
       <path d="M 37.796875 64.3125 
L 12.890625 25.390625 
L 37.796875 25.390625 
z
M 35.203125 72.90625 
L 47.609375 72.90625 
L 47.609375 25.390625 
L 58.015625 25.390625 
L 58.015625 17.1875 
L 47.609375 17.1875 
L 47.609375 0 
L 37.796875 0 
L 37.796875 17.1875 
L 4.890625 17.1875 
L 4.890625 26.703125 
z
" id="DejaVuSans-52"/>
      </defs>
      <g transform="translate(198.494737 328.258437)scale(0.1 -0.1)">
       <use xlink:href="#DejaVuSans-52"/>
       <use x="63.623047" xlink:href="#DejaVuSans-48"/>
      </g>
     </g>
    </g>
    <g id="xtick_70">
     <g id="line2d_178">
      <path clip-path="url(#pd403fe9c6d)" d="M 226.354079 313.66 
L 226.354079 260.48 
" style="fill:none;stroke:#b0b0b0;stroke-linecap:square;stroke-width:0.8;"/>
     </g>
     <g id="line2d_179">
      <g>
       <use style="stroke:#000000;stroke-width:0.8;" x="226.354079" xlink:href="#m66c06efd94" y="313.66"/>
      </g>
     </g>
     <g id="text_34">
      <!-- 45 -->
      <g transform="translate(219.991579 328.258437)scale(0.1 -0.1)">
       <use xlink:href="#DejaVuSans-52"/>
       <use x="63.623047" xlink:href="#DejaVuSans-53"/>
      </g>
     </g>
    </g>
    <g id="xtick_71">
     <g id="line2d_180">
      <path clip-path="url(#pd403fe9c6d)" d="M 247.850921 313.66 
L 247.850921 260.48 
" style="fill:none;stroke:#b0b0b0;stroke-linecap:square;stroke-width:0.8;"/>
     </g>
     <g id="line2d_181">
      <g>
       <use style="stroke:#000000;stroke-width:0.8;" x="247.850921" xlink:href="#m66c06efd94" y="313.66"/>
      </g>
     </g>
     <g id="text_35">
      <!-- 50 -->
      <g transform="translate(241.488421 328.258437)scale(0.1 -0.1)">
       <use xlink:href="#DejaVuSans-53"/>
       <use x="63.623047" xlink:href="#DejaVuSans-48"/>
      </g>
     </g>
    </g>
    <g id="xtick_72">
     <g id="line2d_182">
      <path clip-path="url(#pd403fe9c6d)" d="M 269.347763 313.66 
L 269.347763 260.48 
" style="fill:none;stroke:#b0b0b0;stroke-linecap:square;stroke-width:0.8;"/>
     </g>
     <g id="line2d_183">
      <g>
       <use style="stroke:#000000;stroke-width:0.8;" x="269.347763" xlink:href="#m66c06efd94" y="313.66"/>
      </g>
     </g>
     <g id="text_36">
      <!-- 55 -->
      <g transform="translate(262.985263 328.258437)scale(0.1 -0.1)">
       <use xlink:href="#DejaVuSans-53"/>
       <use x="63.623047" xlink:href="#DejaVuSans-53"/>
      </g>
     </g>
    </g>
    <g id="xtick_73">
     <g id="line2d_184">
      <path clip-path="url(#pd403fe9c6d)" d="M 290.844605 313.66 
L 290.844605 260.48 
" style="fill:none;stroke:#b0b0b0;stroke-linecap:square;stroke-width:0.8;"/>
     </g>
     <g id="line2d_185">
      <g>
       <use style="stroke:#000000;stroke-width:0.8;" x="290.844605" xlink:href="#m66c06efd94" y="313.66"/>
      </g>
     </g>
     <g id="text_37">
      <!-- 60 -->
      <defs>
       <path d="M 33.015625 40.375 
Q 26.375 40.375 22.484375 35.828125 
Q 18.609375 31.296875 18.609375 23.390625 
Q 18.609375 15.53125 22.484375 10.953125 
Q 26.375 6.390625 33.015625 6.390625 
Q 39.65625 6.390625 43.53125 10.953125 
Q 47.40625 15.53125 47.40625 23.390625 
Q 47.40625 31.296875 43.53125 35.828125 
Q 39.65625 40.375 33.015625 40.375 
z
M 52.59375 71.296875 
L 52.59375 62.3125 
Q 48.875 64.0625 45.09375 64.984375 
Q 41.3125 65.921875 37.59375 65.921875 
Q 27.828125 65.921875 22.671875 59.328125 
Q 17.53125 52.734375 16.796875 39.40625 
Q 19.671875 43.65625 24.015625 45.921875 
Q 28.375 48.1875 33.59375 48.1875 
Q 44.578125 48.1875 50.953125 41.515625 
Q 57.328125 34.859375 57.328125 23.390625 
Q 57.328125 12.15625 50.6875 5.359375 
Q 44.046875 -1.421875 33.015625 -1.421875 
Q 20.359375 -1.421875 13.671875 8.265625 
Q 6.984375 17.96875 6.984375 36.375 
Q 6.984375 53.65625 15.1875 63.9375 
Q 23.390625 74.21875 37.203125 74.21875 
Q 40.921875 74.21875 44.703125 73.484375 
Q 48.484375 72.75 52.59375 71.296875 
z
" id="DejaVuSans-54"/>
      </defs>
      <g transform="translate(284.482105 328.258437)scale(0.1 -0.1)">
       <use xlink:href="#DejaVuSans-54"/>
       <use x="63.623047" xlink:href="#DejaVuSans-48"/>
      </g>
     </g>
    </g>
    <g id="xtick_74">
     <g id="line2d_186">
      <path clip-path="url(#pd403fe9c6d)" d="M 312.341447 313.66 
L 312.341447 260.48 
" style="fill:none;stroke:#b0b0b0;stroke-linecap:square;stroke-width:0.8;"/>
     </g>
     <g id="line2d_187">
      <g>
       <use style="stroke:#000000;stroke-width:0.8;" x="312.341447" xlink:href="#m66c06efd94" y="313.66"/>
      </g>
     </g>
     <g id="text_38">
      <!-- 65 -->
      <g transform="translate(305.978947 328.258437)scale(0.1 -0.1)">
       <use xlink:href="#DejaVuSans-54"/>
       <use x="63.623047" xlink:href="#DejaVuSans-53"/>
      </g>
     </g>
    </g>
    <g id="xtick_75">
     <g id="line2d_188">
      <path clip-path="url(#pd403fe9c6d)" d="M 333.838289 313.66 
L 333.838289 260.48 
" style="fill:none;stroke:#b0b0b0;stroke-linecap:square;stroke-width:0.8;"/>
     </g>
     <g id="line2d_189">
      <g>
       <use style="stroke:#000000;stroke-width:0.8;" x="333.838289" xlink:href="#m66c06efd94" y="313.66"/>
      </g>
     </g>
     <g id="text_39">
      <!-- 70 -->
      <defs>
       <path d="M 8.203125 72.90625 
L 55.078125 72.90625 
L 55.078125 68.703125 
L 28.609375 0 
L 18.3125 0 
L 43.21875 64.59375 
L 8.203125 64.59375 
z
" id="DejaVuSans-55"/>
      </defs>
      <g transform="translate(327.475789 328.258437)scale(0.1 -0.1)">
       <use xlink:href="#DejaVuSans-55"/>
       <use x="63.623047" xlink:href="#DejaVuSans-48"/>
      </g>
     </g>
    </g>
    <g id="xtick_76">
     <g id="line2d_190">
      <path clip-path="url(#pd403fe9c6d)" d="M 355.335132 313.66 
L 355.335132 260.48 
" style="fill:none;stroke:#b0b0b0;stroke-linecap:square;stroke-width:0.8;"/>
     </g>
     <g id="line2d_191">
      <g>
       <use style="stroke:#000000;stroke-width:0.8;" x="355.335132" xlink:href="#m66c06efd94" y="313.66"/>
      </g>
     </g>
     <g id="text_40">
      <!-- 75 -->
      <g transform="translate(348.972632 328.258437)scale(0.1 -0.1)">
       <use xlink:href="#DejaVuSans-55"/>
       <use x="63.623047" xlink:href="#DejaVuSans-53"/>
      </g>
     </g>
    </g>
    <g id="xtick_77">
     <g id="line2d_192">
      <path clip-path="url(#pd403fe9c6d)" d="M 376.831974 313.66 
L 376.831974 260.48 
" style="fill:none;stroke:#b0b0b0;stroke-linecap:square;stroke-width:0.8;"/>
     </g>
     <g id="line2d_193">
      <g>
       <use style="stroke:#000000;stroke-width:0.8;" x="376.831974" xlink:href="#m66c06efd94" y="313.66"/>
      </g>
     </g>
     <g id="text_41">
      <!-- 80 -->
      <defs>
       <path d="M 31.78125 34.625 
Q 24.75 34.625 20.71875 30.859375 
Q 16.703125 27.09375 16.703125 20.515625 
Q 16.703125 13.921875 20.71875 10.15625 
Q 24.75 6.390625 31.78125 6.390625 
Q 38.8125 6.390625 42.859375 10.171875 
Q 46.921875 13.96875 46.921875 20.515625 
Q 46.921875 27.09375 42.890625 30.859375 
Q 38.875 34.625 31.78125 34.625 
z
M 21.921875 38.8125 
Q 15.578125 40.375 12.03125 44.71875 
Q 8.5 49.078125 8.5 55.328125 
Q 8.5 64.0625 14.71875 69.140625 
Q 20.953125 74.21875 31.78125 74.21875 
Q 42.671875 74.21875 48.875 69.140625 
Q 55.078125 64.0625 55.078125 55.328125 
Q 55.078125 49.078125 51.53125 44.71875 
Q 48 40.375 41.703125 38.8125 
Q 48.828125 37.15625 52.796875 32.3125 
Q 56.78125 27.484375 56.78125 20.515625 
Q 56.78125 9.90625 50.3125 4.234375 
Q 43.84375 -1.421875 31.78125 -1.421875 
Q 19.734375 -1.421875 13.25 4.234375 
Q 6.78125 9.90625 6.78125 20.515625 
Q 6.78125 27.484375 10.78125 32.3125 
Q 14.796875 37.15625 21.921875 38.8125 
z
M 18.3125 54.390625 
Q 18.3125 48.734375 21.84375 45.5625 
Q 25.390625 42.390625 31.78125 42.390625 
Q 38.140625 42.390625 41.71875 45.5625 
Q 45.3125 48.734375 45.3125 54.390625 
Q 45.3125 60.0625 41.71875 63.234375 
Q 38.140625 66.40625 31.78125 66.40625 
Q 25.390625 66.40625 21.84375 63.234375 
Q 18.3125 60.0625 18.3125 54.390625 
z
" id="DejaVuSans-56"/>
      </defs>
      <g transform="translate(370.469474 328.258437)scale(0.1 -0.1)">
       <use xlink:href="#DejaVuSans-56"/>
       <use x="63.623047" xlink:href="#DejaVuSans-48"/>
      </g>
     </g>
    </g>
    <g id="xtick_78">
     <g id="line2d_194">
      <path clip-path="url(#pd403fe9c6d)" d="M 398.328816 313.66 
L 398.328816 260.48 
" style="fill:none;stroke:#b0b0b0;stroke-linecap:square;stroke-width:0.8;"/>
     </g>
     <g id="line2d_195">
      <g>
       <use style="stroke:#000000;stroke-width:0.8;" x="398.328816" xlink:href="#m66c06efd94" y="313.66"/>
      </g>
     </g>
     <g id="text_42">
      <!-- 85 -->
      <g transform="translate(391.966316 328.258437)scale(0.1 -0.1)">
       <use xlink:href="#DejaVuSans-56"/>
       <use x="63.623047" xlink:href="#DejaVuSans-53"/>
      </g>
     </g>
    </g>
    <g id="xtick_79">
     <g id="line2d_196">
      <path clip-path="url(#pd403fe9c6d)" d="M 419.825658 313.66 
L 419.825658 260.48 
" style="fill:none;stroke:#b0b0b0;stroke-linecap:square;stroke-width:0.8;"/>
     </g>
     <g id="line2d_197">
      <g>
       <use style="stroke:#000000;stroke-width:0.8;" x="419.825658" xlink:href="#m66c06efd94" y="313.66"/>
      </g>
     </g>
     <g id="text_43">
      <!-- 90 -->
      <defs>
       <path d="M 10.984375 1.515625 
L 10.984375 10.5 
Q 14.703125 8.734375 18.5 7.8125 
Q 22.3125 6.890625 25.984375 6.890625 
Q 35.75 6.890625 40.890625 13.453125 
Q 46.046875 20.015625 46.78125 33.40625 
Q 43.953125 29.203125 39.59375 26.953125 
Q 35.25 24.703125 29.984375 24.703125 
Q 19.046875 24.703125 12.671875 31.3125 
Q 6.296875 37.9375 6.296875 49.421875 
Q 6.296875 60.640625 12.9375 67.421875 
Q 19.578125 74.21875 30.609375 74.21875 
Q 43.265625 74.21875 49.921875 64.515625 
Q 56.59375 54.828125 56.59375 36.375 
Q 56.59375 19.140625 48.40625 8.859375 
Q 40.234375 -1.421875 26.421875 -1.421875 
Q 22.703125 -1.421875 18.890625 -0.6875 
Q 15.09375 0.046875 10.984375 1.515625 
z
M 30.609375 32.421875 
Q 37.25 32.421875 41.125 36.953125 
Q 45.015625 41.5 45.015625 49.421875 
Q 45.015625 57.28125 41.125 61.84375 
Q 37.25 66.40625 30.609375 66.40625 
Q 23.96875 66.40625 20.09375 61.84375 
Q 16.21875 57.28125 16.21875 49.421875 
Q 16.21875 41.5 20.09375 36.953125 
Q 23.96875 32.421875 30.609375 32.421875 
z
" id="DejaVuSans-57"/>
      </defs>
      <g transform="translate(413.463158 328.258437)scale(0.1 -0.1)">
       <use xlink:href="#DejaVuSans-57"/>
       <use x="63.623047" xlink:href="#DejaVuSans-48"/>
      </g>
     </g>
    </g>
    <g id="xtick_80">
     <g id="line2d_198">
      <path clip-path="url(#pd403fe9c6d)" d="M 441.3225 313.66 
L 441.3225 260.48 
" style="fill:none;stroke:#b0b0b0;stroke-linecap:square;stroke-width:0.8;"/>
     </g>
     <g id="line2d_199">
      <g>
       <use style="stroke:#000000;stroke-width:0.8;" x="441.3225" xlink:href="#m66c06efd94" y="313.66"/>
      </g>
     </g>
     <g id="text_44">
      <!-- 95 -->
      <g transform="translate(434.96 328.258437)scale(0.1 -0.1)">
       <use xlink:href="#DejaVuSans-57"/>
       <use x="63.623047" xlink:href="#DejaVuSans-53"/>
      </g>
     </g>
    </g>
    <g id="text_45">
     <!-- Lost nodes (%) -->
     <g transform="translate(207.24375 340.416875)scale(0.08 -0.08)">
      <use xlink:href="#DejaVuSans-76"/>
      <use x="55.697266" xlink:href="#DejaVuSans-111"/>
      <use x="116.878906" xlink:href="#DejaVuSans-115"/>
      <use x="168.978516" xlink:href="#DejaVuSans-116"/>
      <use x="208.1875" xlink:href="#DejaVuSans-32"/>
      <use x="239.974609" xlink:href="#DejaVuSans-110"/>
      <use x="303.353516" xlink:href="#DejaVuSans-111"/>
      <use x="364.535156" xlink:href="#DejaVuSans-100"/>
      <use x="428.011719" xlink:href="#DejaVuSans-101"/>
      <use x="489.535156" xlink:href="#DejaVuSans-115"/>
      <use x="541.634766" xlink:href="#DejaVuSans-32"/>
      <use x="573.421875" xlink:href="#DejaVuSans-40"/>
      <use x="612.435547" xlink:href="#DejaVuSans-37"/>
      <use x="707.455078" xlink:href="#DejaVuSans-41"/>
     </g>
    </g>
   </g>
   <g id="matplotlib.axis_8">
    <g id="ytick_13">
     <g id="line2d_200">
      <path clip-path="url(#pd403fe9c6d)" d="M 32.8825 311.320955 
L 441.3225 311.320955 
" style="fill:none;stroke:#b0b0b0;stroke-linecap:square;stroke-width:0.8;"/>
     </g>
     <g id="line2d_201">
      <g>
       <use style="stroke:#000000;stroke-width:0.8;" x="32.8825" xlink:href="#m6be9bccbbe" y="311.320955"/>
      </g>
     </g>
     <g id="text_46">
      <!-- 0 -->
      <g transform="translate(19.52 315.120173)scale(0.1 -0.1)">
       <use xlink:href="#DejaVuSans-48"/>
      </g>
     </g>
    </g>
    <g id="ytick_14">
     <g id="line2d_202">
      <path clip-path="url(#pd403fe9c6d)" d="M 32.8825 298.206175 
L 441.3225 298.206175 
" style="fill:none;stroke:#b0b0b0;stroke-linecap:square;stroke-width:0.8;"/>
     </g>
     <g id="line2d_203">
      <g>
       <use style="stroke:#000000;stroke-width:0.8;" x="32.8825" xlink:href="#m6be9bccbbe" y="298.206175"/>
      </g>
     </g>
     <g id="text_47">
      <!-- 1 -->
      <g transform="translate(19.52 302.005394)scale(0.1 -0.1)">
       <use xlink:href="#DejaVuSans-49"/>
      </g>
     </g>
    </g>
    <g id="ytick_15">
     <g id="line2d_204">
      <path clip-path="url(#pd403fe9c6d)" d="M 32.8825 285.091396 
L 441.3225 285.091396 
" style="fill:none;stroke:#b0b0b0;stroke-linecap:square;stroke-width:0.8;"/>
     </g>
     <g id="line2d_205">
      <g>
       <use style="stroke:#000000;stroke-width:0.8;" x="32.8825" xlink:href="#m6be9bccbbe" y="285.091396"/>
      </g>
     </g>
     <g id="text_48">
      <!-- 2 -->
      <g transform="translate(19.52 288.890614)scale(0.1 -0.1)">
       <use xlink:href="#DejaVuSans-50"/>
      </g>
     </g>
    </g>
    <g id="ytick_16">
     <g id="line2d_206">
      <path clip-path="url(#pd403fe9c6d)" d="M 32.8825 271.976616 
L 441.3225 271.976616 
" style="fill:none;stroke:#b0b0b0;stroke-linecap:square;stroke-width:0.8;"/>
     </g>
     <g id="line2d_207">
      <g>
       <use style="stroke:#000000;stroke-width:0.8;" x="32.8825" xlink:href="#m6be9bccbbe" y="271.976616"/>
      </g>
     </g>
     <g id="text_49">
      <!-- 3 -->
      <g transform="translate(19.52 275.775835)scale(0.1 -0.1)">
       <use xlink:href="#DejaVuSans-51"/>
      </g>
     </g>
    </g>
    <g id="text_50">
     <!-- $\Delta D_q$ -->
     <g transform="translate(13.04 294.79)rotate(-90)scale(0.08 -0.08)">
      <use transform="translate(0 0.09375)" xlink:href="#DejaVuSans-916"/>
      <use transform="translate(68.408203 0.09375)" xlink:href="#DejaVuSans-Oblique-68"/>
      <use transform="translate(145.410156 -16.3125)scale(0.7)" xlink:href="#DejaVuSans-Oblique-113"/>
     </g>
    </g>
   </g>
   <g id="line2d_208">
    <path clip-path="url(#pd403fe9c6d)" d="M 32.8825 304.340344 
L 54.379342 304.322876 
L 75.876184 304.329715 
L 97.373026 304.371723 
L 118.869868 304.5046 
L 140.366711 304.518738 
L 161.863553 304.60305 
L 183.360395 304.623658 
L 204.857237 304.686709 
L 226.354079 304.744664 
L 247.850921 304.706206 
L 269.347763 304.503513 
L 290.844605 304.730519 
L 312.341447 304.800586 
L 333.838289 304.779867 
L 355.335132 304.819898 
L 376.831974 304.982686 
L 398.328816 304.992163 
L 419.825658 306.077923 
L 441.3225 306.494609 
" style="fill:none;stroke:#ff0000;stroke-linecap:square;stroke-width:1.5;"/>
   </g>
   <g id="line2d_209">
    <path clip-path="url(#pd403fe9c6d)" d="M 32.8825 307.76408 
L 54.379342 306.801417 
L 75.876184 305.895375 
L 97.373026 304.840018 
L 118.869868 303.726719 
L 140.366711 302.531538 
L 161.863553 301.272157 
L 183.360395 300.145341 
L 204.857237 299.019434 
L 226.354079 297.957933 
L 247.850921 297.019977 
L 269.347763 296.095294 
L 290.844605 295.197275 
L 312.341447 294.303091 
L 333.838289 293.406072 
L 355.335132 292.44258 
L 376.831974 291.33411 
L 398.328816 289.853659 
L 419.825658 287.789055 
L 441.3225 291.729307 
" style="fill:none;stroke:#008000;stroke-linecap:square;stroke-width:1.5;"/>
   </g>
   <g id="line2d_210">
    <path clip-path="url(#pd403fe9c6d)" d="M 32.8825 307.684167 
L 54.379342 306.769043 
L 75.876184 305.740064 
L 97.373026 304.858473 
L 118.869868 303.759549 
L 140.366711 302.539543 
L 161.863553 301.251853 
L 183.360395 300.056157 
L 204.857237 298.983578 
L 226.354079 297.920595 
L 247.850921 296.963729 
L 269.347763 296.077138 
L 290.844605 295.170993 
L 312.341447 294.292444 
L 333.838289 293.461419 
L 355.335132 292.57722 
L 376.831974 291.462556 
L 398.328816 290.204174 
L 419.825658 288.472122 
L 441.3225 290.511018 
" style="fill:none;stroke:#0000ff;stroke-linecap:square;stroke-width:1.5;"/>
   </g>
   <g id="patch_19">
    <path d="M 32.8825 313.66 
L 32.8825 260.48 
" style="fill:none;stroke:#000000;stroke-linecap:square;stroke-linejoin:miter;stroke-width:0.8;"/>
   </g>
   <g id="patch_20">
    <path d="M 441.3225 313.66 
L 441.3225 260.48 
" style="fill:none;stroke:#000000;stroke-linecap:square;stroke-linejoin:miter;stroke-width:0.8;"/>
   </g>
   <g id="patch_21">
    <path d="M 32.8825 313.66 
L 441.3225 313.66 
" style="fill:none;stroke:#000000;stroke-linecap:square;stroke-linejoin:miter;stroke-width:0.8;"/>
   </g>
   <g id="patch_22">
    <path d="M 32.8825 260.48 
L 441.3225 260.48 
" style="fill:none;stroke:#000000;stroke-linecap:square;stroke-linejoin:miter;stroke-width:0.8;"/>
   </g>
   <g id="text_51">
    <!-- d)hub degree 500 -->
    <g transform="translate(201.11 351.55875)scale(0.08 -0.08)">
     <use xlink:href="#DejaVuSans-100"/>
     <use x="63.476562" xlink:href="#DejaVuSans-41"/>
     <use x="102.490234" xlink:href="#DejaVuSans-104"/>
     <use x="165.869141" xlink:href="#DejaVuSans-117"/>
     <use x="229.248047" xlink:href="#DejaVuSans-98"/>
     <use x="292.724609" xlink:href="#DejaVuSans-32"/>
     <use x="324.511719" xlink:href="#DejaVuSans-100"/>
     <use x="387.988281" xlink:href="#DejaVuSans-101"/>
     <use x="449.511719" xlink:href="#DejaVuSans-103"/>
     <use x="512.988281" xlink:href="#DejaVuSans-114"/>
     <use x="554.070312" xlink:href="#DejaVuSans-101"/>
     <use x="615.59375" xlink:href="#DejaVuSans-101"/>
     <use x="677.117188" xlink:href="#DejaVuSans-32"/>
     <use x="708.904297" xlink:href="#DejaVuSans-53"/>
     <use x="772.527344" xlink:href="#DejaVuSans-48"/>
     <use x="836.150391" xlink:href="#DejaVuSans-48"/>
    </g>
   </g>
  </g>
 </g>
 <defs>
  <clipPath id="p8952ac4fc0">
   <rect height="53.18" width="408.44" x="32.8825" y="10.7"/>
  </clipPath>
  <clipPath id="pa379bcdbb9">
   <rect height="53.18" width="408.44" x="32.8825" y="93.96"/>
  </clipPath>
  <clipPath id="pa561e65636">
   <rect height="53.18" width="408.44" x="32.8825" y="177.22"/>
  </clipPath>
  <clipPath id="pd403fe9c6d">
   <rect height="53.18" width="408.44" x="32.8825" y="260.48"/>
  </clipPath>
 </defs>
</svg>
