<?xml version="1.0" encoding="utf-8" standalone="no"?>
<!DOCTYPE svg PUBLIC "-//W3C//DTD SVG 1.1//EN"
  "http://www.w3.org/Graphics/SVG/1.1/DTD/svg11.dtd">
<!-- Created with matplotlib (https://matplotlib.org/) -->
<svg height="357.859375pt" version="1.1" viewBox="0 0 533.0025 357.859375" width="533.0025pt" xmlns="http://www.w3.org/2000/svg" xmlns:xlink="http://www.w3.org/1999/xlink">
 <defs>
  <style type="text/css">
*{stroke-linecap:butt;stroke-linejoin:round;}
  </style>
 </defs>
 <g id="figure_1">
  <g id="patch_1">
   <path d="M 0 357.859375 
L 533.0025 357.859375 
L 533.0025 0 
L 0 0 
z
" style="fill:#ffffff;"/>
  </g>
  <g id="axes_1">
   <g id="patch_2">
    <path d="M 20.5625 100.212083 
L 429.0025 100.212083 
L 429.0025 19.27875 
L 20.5625 19.27875 
z
" style="fill:#ffffff;"/>
   </g>
   <g id="matplotlib.axis_1">
    <g id="xtick_1">
     <g id="line2d_1">
      <defs>
       <path d="M 0 0 
L 0 3.5 
" id="m79a149c17a" style="stroke:#000000;stroke-width:0.8;"/>
      </defs>
      <g>
       <use style="stroke:#000000;stroke-width:0.8;" x="20.5625" xlink:href="#m79a149c17a" y="100.212083"/>
      </g>
     </g>
    </g>
    <g id="xtick_2">
     <g id="line2d_2">
      <g>
       <use style="stroke:#000000;stroke-width:0.8;" x="42.059342" xlink:href="#m79a149c17a" y="100.212083"/>
      </g>
     </g>
    </g>
    <g id="xtick_3">
     <g id="line2d_3">
      <g>
       <use style="stroke:#000000;stroke-width:0.8;" x="63.556184" xlink:href="#m79a149c17a" y="100.212083"/>
      </g>
     </g>
    </g>
    <g id="xtick_4">
     <g id="line2d_4">
      <g>
       <use style="stroke:#000000;stroke-width:0.8;" x="85.053026" xlink:href="#m79a149c17a" y="100.212083"/>
      </g>
     </g>
    </g>
    <g id="xtick_5">
     <g id="line2d_5">
      <g>
       <use style="stroke:#000000;stroke-width:0.8;" x="106.549868" xlink:href="#m79a149c17a" y="100.212083"/>
      </g>
     </g>
    </g>
    <g id="xtick_6">
     <g id="line2d_6">
      <g>
       <use style="stroke:#000000;stroke-width:0.8;" x="128.046711" xlink:href="#m79a149c17a" y="100.212083"/>
      </g>
     </g>
    </g>
    <g id="xtick_7">
     <g id="line2d_7">
      <g>
       <use style="stroke:#000000;stroke-width:0.8;" x="149.543553" xlink:href="#m79a149c17a" y="100.212083"/>
      </g>
     </g>
    </g>
    <g id="xtick_8">
     <g id="line2d_8">
      <g>
       <use style="stroke:#000000;stroke-width:0.8;" x="171.040395" xlink:href="#m79a149c17a" y="100.212083"/>
      </g>
     </g>
    </g>
    <g id="xtick_9">
     <g id="line2d_9">
      <g>
       <use style="stroke:#000000;stroke-width:0.8;" x="192.537237" xlink:href="#m79a149c17a" y="100.212083"/>
      </g>
     </g>
    </g>
    <g id="xtick_10">
     <g id="line2d_10">
      <g>
       <use style="stroke:#000000;stroke-width:0.8;" x="214.034079" xlink:href="#m79a149c17a" y="100.212083"/>
      </g>
     </g>
    </g>
    <g id="xtick_11">
     <g id="line2d_11">
      <g>
       <use style="stroke:#000000;stroke-width:0.8;" x="235.530921" xlink:href="#m79a149c17a" y="100.212083"/>
      </g>
     </g>
    </g>
    <g id="xtick_12">
     <g id="line2d_12">
      <g>
       <use style="stroke:#000000;stroke-width:0.8;" x="257.027763" xlink:href="#m79a149c17a" y="100.212083"/>
      </g>
     </g>
    </g>
    <g id="xtick_13">
     <g id="line2d_13">
      <g>
       <use style="stroke:#000000;stroke-width:0.8;" x="278.524605" xlink:href="#m79a149c17a" y="100.212083"/>
      </g>
     </g>
    </g>
    <g id="xtick_14">
     <g id="line2d_14">
      <g>
       <use style="stroke:#000000;stroke-width:0.8;" x="300.021447" xlink:href="#m79a149c17a" y="100.212083"/>
      </g>
     </g>
    </g>
    <g id="xtick_15">
     <g id="line2d_15">
      <g>
       <use style="stroke:#000000;stroke-width:0.8;" x="321.518289" xlink:href="#m79a149c17a" y="100.212083"/>
      </g>
     </g>
    </g>
    <g id="xtick_16">
     <g id="line2d_16">
      <g>
       <use style="stroke:#000000;stroke-width:0.8;" x="343.015132" xlink:href="#m79a149c17a" y="100.212083"/>
      </g>
     </g>
    </g>
    <g id="xtick_17">
     <g id="line2d_17">
      <g>
       <use style="stroke:#000000;stroke-width:0.8;" x="364.511974" xlink:href="#m79a149c17a" y="100.212083"/>
      </g>
     </g>
    </g>
    <g id="xtick_18">
     <g id="line2d_18">
      <g>
       <use style="stroke:#000000;stroke-width:0.8;" x="386.008816" xlink:href="#m79a149c17a" y="100.212083"/>
      </g>
     </g>
    </g>
    <g id="xtick_19">
     <g id="line2d_19">
      <g>
       <use style="stroke:#000000;stroke-width:0.8;" x="407.505658" xlink:href="#m79a149c17a" y="100.212083"/>
      </g>
     </g>
    </g>
    <g id="xtick_20">
     <g id="line2d_20">
      <g>
       <use style="stroke:#000000;stroke-width:0.8;" x="429.0025" xlink:href="#m79a149c17a" y="100.212083"/>
      </g>
     </g>
    </g>
    <g id="text_1">
     <!-- % nodes -->
     <defs>
      <path d="M 72.703125 32.078125 
Q 68.453125 32.078125 66.03125 28.46875 
Q 63.625 24.859375 63.625 18.40625 
Q 63.625 12.0625 66.03125 8.421875 
Q 68.453125 4.78125 72.703125 4.78125 
Q 76.859375 4.78125 79.265625 8.421875 
Q 81.6875 12.0625 81.6875 18.40625 
Q 81.6875 24.8125 79.265625 28.4375 
Q 76.859375 32.078125 72.703125 32.078125 
z
M 72.703125 38.28125 
Q 80.421875 38.28125 84.953125 32.90625 
Q 89.5 27.546875 89.5 18.40625 
Q 89.5 9.28125 84.9375 3.921875 
Q 80.375 -1.421875 72.703125 -1.421875 
Q 64.890625 -1.421875 60.34375 3.921875 
Q 55.8125 9.28125 55.8125 18.40625 
Q 55.8125 27.59375 60.375 32.9375 
Q 64.9375 38.28125 72.703125 38.28125 
z
M 22.3125 68.015625 
Q 18.109375 68.015625 15.6875 64.375 
Q 13.28125 60.75 13.28125 54.390625 
Q 13.28125 47.953125 15.671875 44.328125 
Q 18.0625 40.71875 22.3125 40.71875 
Q 26.5625 40.71875 28.96875 44.328125 
Q 31.390625 47.953125 31.390625 54.390625 
Q 31.390625 60.6875 28.953125 64.34375 
Q 26.515625 68.015625 22.3125 68.015625 
z
M 66.40625 74.21875 
L 74.21875 74.21875 
L 28.609375 -1.421875 
L 20.796875 -1.421875 
z
M 22.3125 74.21875 
Q 30.03125 74.21875 34.609375 68.875 
Q 39.203125 63.53125 39.203125 54.390625 
Q 39.203125 45.171875 34.640625 39.84375 
Q 30.078125 34.515625 22.3125 34.515625 
Q 14.546875 34.515625 10.03125 39.859375 
Q 5.515625 45.21875 5.515625 54.390625 
Q 5.515625 63.484375 10.046875 68.84375 
Q 14.59375 74.21875 22.3125 74.21875 
z
" id="DejaVuSans-37"/>
      <path id="DejaVuSans-32"/>
      <path d="M 54.890625 33.015625 
L 54.890625 0 
L 45.90625 0 
L 45.90625 32.71875 
Q 45.90625 40.484375 42.875 44.328125 
Q 39.84375 48.1875 33.796875 48.1875 
Q 26.515625 48.1875 22.3125 43.546875 
Q 18.109375 38.921875 18.109375 30.90625 
L 18.109375 0 
L 9.078125 0 
L 9.078125 54.6875 
L 18.109375 54.6875 
L 18.109375 46.1875 
Q 21.34375 51.125 25.703125 53.5625 
Q 30.078125 56 35.796875 56 
Q 45.21875 56 50.046875 50.171875 
Q 54.890625 44.34375 54.890625 33.015625 
z
" id="DejaVuSans-110"/>
      <path d="M 30.609375 48.390625 
Q 23.390625 48.390625 19.1875 42.75 
Q 14.984375 37.109375 14.984375 27.296875 
Q 14.984375 17.484375 19.15625 11.84375 
Q 23.34375 6.203125 30.609375 6.203125 
Q 37.796875 6.203125 41.984375 11.859375 
Q 46.1875 17.53125 46.1875 27.296875 
Q 46.1875 37.015625 41.984375 42.703125 
Q 37.796875 48.390625 30.609375 48.390625 
z
M 30.609375 56 
Q 42.328125 56 49.015625 48.375 
Q 55.71875 40.765625 55.71875 27.296875 
Q 55.71875 13.875 49.015625 6.21875 
Q 42.328125 -1.421875 30.609375 -1.421875 
Q 18.84375 -1.421875 12.171875 6.21875 
Q 5.515625 13.875 5.515625 27.296875 
Q 5.515625 40.765625 12.171875 48.375 
Q 18.84375 56 30.609375 56 
z
" id="DejaVuSans-111"/>
      <path d="M 45.40625 46.390625 
L 45.40625 75.984375 
L 54.390625 75.984375 
L 54.390625 0 
L 45.40625 0 
L 45.40625 8.203125 
Q 42.578125 3.328125 38.25 0.953125 
Q 33.9375 -1.421875 27.875 -1.421875 
Q 17.96875 -1.421875 11.734375 6.484375 
Q 5.515625 14.40625 5.515625 27.296875 
Q 5.515625 40.1875 11.734375 48.09375 
Q 17.96875 56 27.875 56 
Q 33.9375 56 38.25 53.625 
Q 42.578125 51.265625 45.40625 46.390625 
z
M 14.796875 27.296875 
Q 14.796875 17.390625 18.875 11.75 
Q 22.953125 6.109375 30.078125 6.109375 
Q 37.203125 6.109375 41.296875 11.75 
Q 45.40625 17.390625 45.40625 27.296875 
Q 45.40625 37.203125 41.296875 42.84375 
Q 37.203125 48.484375 30.078125 48.484375 
Q 22.953125 48.484375 18.875 42.84375 
Q 14.796875 37.203125 14.796875 27.296875 
z
" id="DejaVuSans-100"/>
      <path d="M 56.203125 29.59375 
L 56.203125 25.203125 
L 14.890625 25.203125 
Q 15.484375 15.921875 20.484375 11.0625 
Q 25.484375 6.203125 34.421875 6.203125 
Q 39.59375 6.203125 44.453125 7.46875 
Q 49.3125 8.734375 54.109375 11.28125 
L 54.109375 2.78125 
Q 49.265625 0.734375 44.1875 -0.34375 
Q 39.109375 -1.421875 33.890625 -1.421875 
Q 20.796875 -1.421875 13.15625 6.1875 
Q 5.515625 13.8125 5.515625 26.8125 
Q 5.515625 40.234375 12.765625 48.109375 
Q 20.015625 56 32.328125 56 
Q 43.359375 56 49.78125 48.890625 
Q 56.203125 41.796875 56.203125 29.59375 
z
M 47.21875 32.234375 
Q 47.125 39.59375 43.09375 43.984375 
Q 39.0625 48.390625 32.421875 48.390625 
Q 24.90625 48.390625 20.390625 44.140625 
Q 15.875 39.890625 15.1875 32.171875 
z
" id="DejaVuSans-101"/>
      <path d="M 44.28125 53.078125 
L 44.28125 44.578125 
Q 40.484375 46.53125 36.375 47.5 
Q 32.28125 48.484375 27.875 48.484375 
Q 21.1875 48.484375 17.84375 46.4375 
Q 14.5 44.390625 14.5 40.28125 
Q 14.5 37.15625 16.890625 35.375 
Q 19.28125 33.59375 26.515625 31.984375 
L 29.59375 31.296875 
Q 39.15625 29.25 43.1875 25.515625 
Q 47.21875 21.78125 47.21875 15.09375 
Q 47.21875 7.46875 41.1875 3.015625 
Q 35.15625 -1.421875 24.609375 -1.421875 
Q 20.21875 -1.421875 15.453125 -0.5625 
Q 10.6875 0.296875 5.421875 2 
L 5.421875 11.28125 
Q 10.40625 8.6875 15.234375 7.390625 
Q 20.0625 6.109375 24.8125 6.109375 
Q 31.15625 6.109375 34.5625 8.28125 
Q 37.984375 10.453125 37.984375 14.40625 
Q 37.984375 18.0625 35.515625 20.015625 
Q 33.0625 21.96875 24.703125 23.78125 
L 21.578125 24.515625 
Q 13.234375 26.265625 9.515625 29.90625 
Q 5.8125 33.546875 5.8125 39.890625 
Q 5.8125 47.609375 11.28125 51.796875 
Q 16.75 56 26.8125 56 
Q 31.78125 56 36.171875 55.265625 
Q 40.578125 54.546875 44.28125 53.078125 
z
" id="DejaVuSans-115"/>
     </defs>
     <g transform="translate(207.64375 110.290833)scale(0.08 -0.08)">
      <use xlink:href="#DejaVuSans-37"/>
      <use x="95.019531" xlink:href="#DejaVuSans-32"/>
      <use x="126.806641" xlink:href="#DejaVuSans-110"/>
      <use x="190.185547" xlink:href="#DejaVuSans-111"/>
      <use x="251.367188" xlink:href="#DejaVuSans-100"/>
      <use x="314.84375" xlink:href="#DejaVuSans-101"/>
      <use x="376.367188" xlink:href="#DejaVuSans-115"/>
     </g>
    </g>
   </g>
   <g id="matplotlib.axis_2">
    <g id="ytick_1">
     <g id="line2d_21">
      <defs>
       <path d="M 0 0 
L -3.5 0 
" id="m0e4193aa26" style="stroke:#000000;stroke-width:0.8;"/>
      </defs>
      <g>
       <use style="stroke:#000000;stroke-width:0.8;" x="20.5625" xlink:href="#m0e4193aa26" y="96.533295"/>
      </g>
     </g>
     <g id="text_2">
      <!-- 0 -->
      <defs>
       <path d="M 31.78125 66.40625 
Q 24.171875 66.40625 20.328125 58.90625 
Q 16.5 51.421875 16.5 36.375 
Q 16.5 21.390625 20.328125 13.890625 
Q 24.171875 6.390625 31.78125 6.390625 
Q 39.453125 6.390625 43.28125 13.890625 
Q 47.125 21.390625 47.125 36.375 
Q 47.125 51.421875 43.28125 58.90625 
Q 39.453125 66.40625 31.78125 66.40625 
z
M 31.78125 74.21875 
Q 44.046875 74.21875 50.515625 64.515625 
Q 56.984375 54.828125 56.984375 36.375 
Q 56.984375 17.96875 50.515625 8.265625 
Q 44.046875 -1.421875 31.78125 -1.421875 
Q 19.53125 -1.421875 13.0625 8.265625 
Q 6.59375 17.96875 6.59375 36.375 
Q 6.59375 54.828125 13.0625 64.515625 
Q 19.53125 74.21875 31.78125 74.21875 
z
" id="DejaVuSans-48"/>
      </defs>
      <g transform="translate(7.2 100.332514)scale(0.1 -0.1)">
       <use xlink:href="#DejaVuSans-48"/>
      </g>
     </g>
    </g>
    <g id="ytick_2">
     <g id="line2d_22">
      <g>
       <use style="stroke:#000000;stroke-width:0.8;" x="20.5625" xlink:href="#m0e4193aa26" y="77.960279"/>
      </g>
     </g>
     <g id="text_3">
      <!-- 1 -->
      <defs>
       <path d="M 12.40625 8.296875 
L 28.515625 8.296875 
L 28.515625 63.921875 
L 10.984375 60.40625 
L 10.984375 69.390625 
L 28.421875 72.90625 
L 38.28125 72.90625 
L 38.28125 8.296875 
L 54.390625 8.296875 
L 54.390625 0 
L 12.40625 0 
z
" id="DejaVuSans-49"/>
      </defs>
      <g transform="translate(7.2 81.759498)scale(0.1 -0.1)">
       <use xlink:href="#DejaVuSans-49"/>
      </g>
     </g>
    </g>
    <g id="ytick_3">
     <g id="line2d_23">
      <g>
       <use style="stroke:#000000;stroke-width:0.8;" x="20.5625" xlink:href="#m0e4193aa26" y="59.387262"/>
      </g>
     </g>
     <g id="text_4">
      <!-- 2 -->
      <defs>
       <path d="M 19.1875 8.296875 
L 53.609375 8.296875 
L 53.609375 0 
L 7.328125 0 
L 7.328125 8.296875 
Q 12.9375 14.109375 22.625 23.890625 
Q 32.328125 33.6875 34.8125 36.53125 
Q 39.546875 41.84375 41.421875 45.53125 
Q 43.3125 49.21875 43.3125 52.78125 
Q 43.3125 58.59375 39.234375 62.25 
Q 35.15625 65.921875 28.609375 65.921875 
Q 23.96875 65.921875 18.8125 64.3125 
Q 13.671875 62.703125 7.8125 59.421875 
L 7.8125 69.390625 
Q 13.765625 71.78125 18.9375 73 
Q 24.125 74.21875 28.421875 74.21875 
Q 39.75 74.21875 46.484375 68.546875 
Q 53.21875 62.890625 53.21875 53.421875 
Q 53.21875 48.921875 51.53125 44.890625 
Q 49.859375 40.875 45.40625 35.40625 
Q 44.1875 33.984375 37.640625 27.21875 
Q 31.109375 20.453125 19.1875 8.296875 
z
" id="DejaVuSans-50"/>
      </defs>
      <g transform="translate(7.2 63.186481)scale(0.1 -0.1)">
       <use xlink:href="#DejaVuSans-50"/>
      </g>
     </g>
    </g>
    <g id="ytick_4">
     <g id="line2d_24">
      <g>
       <use style="stroke:#000000;stroke-width:0.8;" x="20.5625" xlink:href="#m0e4193aa26" y="40.814246"/>
      </g>
     </g>
     <g id="text_5">
      <!-- 3 -->
      <defs>
       <path d="M 40.578125 39.3125 
Q 47.65625 37.796875 51.625 33 
Q 55.609375 28.21875 55.609375 21.1875 
Q 55.609375 10.40625 48.1875 4.484375 
Q 40.765625 -1.421875 27.09375 -1.421875 
Q 22.515625 -1.421875 17.65625 -0.515625 
Q 12.796875 0.390625 7.625 2.203125 
L 7.625 11.71875 
Q 11.71875 9.328125 16.59375 8.109375 
Q 21.484375 6.890625 26.8125 6.890625 
Q 36.078125 6.890625 40.9375 10.546875 
Q 45.796875 14.203125 45.796875 21.1875 
Q 45.796875 27.640625 41.28125 31.265625 
Q 36.765625 34.90625 28.71875 34.90625 
L 20.21875 34.90625 
L 20.21875 43.015625 
L 29.109375 43.015625 
Q 36.375 43.015625 40.234375 45.921875 
Q 44.09375 48.828125 44.09375 54.296875 
Q 44.09375 59.90625 40.109375 62.90625 
Q 36.140625 65.921875 28.71875 65.921875 
Q 24.65625 65.921875 20.015625 65.03125 
Q 15.375 64.15625 9.8125 62.3125 
L 9.8125 71.09375 
Q 15.4375 72.65625 20.34375 73.4375 
Q 25.25 74.21875 29.59375 74.21875 
Q 40.828125 74.21875 47.359375 69.109375 
Q 53.90625 64.015625 53.90625 55.328125 
Q 53.90625 49.265625 50.4375 45.09375 
Q 46.96875 40.921875 40.578125 39.3125 
z
" id="DejaVuSans-51"/>
      </defs>
      <g transform="translate(7.2 44.613465)scale(0.1 -0.1)">
       <use xlink:href="#DejaVuSans-51"/>
      </g>
     </g>
    </g>
    <g id="ytick_5">
     <g id="line2d_25">
      <g>
       <use style="stroke:#000000;stroke-width:0.8;" x="20.5625" xlink:href="#m0e4193aa26" y="22.241229"/>
      </g>
     </g>
     <g id="text_6">
      <!-- 4 -->
      <defs>
       <path d="M 37.796875 64.3125 
L 12.890625 25.390625 
L 37.796875 25.390625 
z
M 35.203125 72.90625 
L 47.609375 72.90625 
L 47.609375 25.390625 
L 58.015625 25.390625 
L 58.015625 17.1875 
L 47.609375 17.1875 
L 47.609375 0 
L 37.796875 0 
L 37.796875 17.1875 
L 4.890625 17.1875 
L 4.890625 26.703125 
z
" id="DejaVuSans-52"/>
      </defs>
      <g transform="translate(7.2 26.040448)scale(0.1 -0.1)">
       <use xlink:href="#DejaVuSans-52"/>
      </g>
     </g>
    </g>
   </g>
   <g id="line2d_26">
    <path clip-path="url(#pb1a18968d4)" d="M 20.5625 61.662922 
L 42.059342 61.53387 
L 63.556184 61.351635 
L 85.053026 61.485 
L 106.549868 61.396459 
L 128.046711 61.47231 
L 149.543553 61.884812 
L 171.040395 61.656043 
L 192.537237 61.62846 
L 214.034079 61.717722 
L 235.530921 62.167093 
L 257.027763 61.80995 
L 278.524605 62.204424 
L 300.021447 62.18346 
L 321.518289 62.597364 
L 343.015132 61.638988 
L 364.511974 62.044781 
L 386.008816 62.397077 
L 407.505658 63.638061 
L 429.0025 66.500158 
" style="fill:none;stroke:#ff0000;stroke-dasharray:5.55,2.4;stroke-dashoffset:0;stroke-width:1.5;"/>
   </g>
   <g id="line2d_27">
    <path clip-path="url(#pb1a18968d4)" d="M 20.5625 77.935307 
L 42.059342 78.029975 
L 63.556184 78.034263 
L 85.053026 77.964939 
L 106.549868 77.930999 
L 128.046711 77.940602 
L 149.543553 77.884044 
L 171.040395 77.916994 
L 192.537237 77.886212 
L 214.034079 77.832695 
L 235.530921 77.796772 
L 257.027763 78.214407 
L 278.524605 77.649394 
L 300.021447 77.835409 
L 321.518289 77.700114 
L 343.015132 78.263526 
L 364.511974 78.390704 
L 386.008816 78.564681 
L 407.505658 78.734343 
L 429.0025 79.513886 
" style="fill:none;stroke:#ff0000;stroke-dasharray:1.5,2.475;stroke-dashoffset:0;stroke-width:1.5;"/>
   </g>
   <g id="line2d_28">
    <path clip-path="url(#pb1a18968d4)" d="M 20.5625 58.926887 
L 42.059342 58.900786 
L 63.556184 58.633582 
L 85.053026 58.364101 
L 106.549868 58.284828 
L 128.046711 57.9972 
L 149.543553 58.460266 
L 171.040395 57.616033 
L 192.537237 57.638996 
L 214.034079 57.991554 
L 235.530921 58.209276 
L 257.027763 57.972325 
L 278.524605 57.589681 
L 300.021447 57.472009 
L 321.518289 57.934712 
L 343.015132 57.538144 
L 364.511974 57.703983 
L 386.008816 57.672852 
L 407.505658 57.006134 
L 429.0025 58.049103 
" style="fill:none;stroke:#0000ff;stroke-dasharray:5.55,2.4;stroke-dashoffset:0;stroke-width:1.5;"/>
   </g>
   <g id="line2d_29">
    <path clip-path="url(#pb1a18968d4)" d="M 20.5625 76.476939 
L 42.059342 76.531263 
L 63.556184 76.615342 
L 85.053026 76.587171 
L 106.549868 76.647634 
L 128.046711 76.676646 
L 149.543553 76.721578 
L 171.040395 76.675725 
L 192.537237 76.713406 
L 214.034079 76.740741 
L 235.530921 76.495032 
L 257.027763 76.585245 
L 278.524605 76.812711 
L 300.021447 76.972555 
L 321.518289 76.675108 
L 343.015132 76.434499 
L 364.511974 76.744959 
L 386.008816 76.704813 
L 407.505658 77.055393 
L 429.0025 77.962795 
" style="fill:none;stroke:#0000ff;stroke-dasharray:1.5,2.475;stroke-dashoffset:0;stroke-width:1.5;"/>
   </g>
   <g id="line2d_30">
    <path clip-path="url(#pb1a18968d4)" d="M 20.5625 40.399562 
L 42.059342 40.260084 
L 63.556184 40.279263 
L 85.053026 40.572811 
L 106.549868 41.061694 
L 128.046711 40.965865 
L 149.543553 41.063963 
L 171.040395 41.001072 
L 192.537237 41.338125 
L 214.034079 41.112966 
L 235.530921 41.305126 
L 257.027763 41.19937 
L 278.524605 41.699156 
L 300.021447 43.033681 
L 321.518289 42.988759 
L 343.015132 43.599045 
L 364.511974 46.759066 
L 386.008816 50.609345 
L 407.505658 55.977292 
L 429.0025 65.663914 
" style="fill:none;stroke:#008000;stroke-dasharray:5.55,2.4;stroke-dashoffset:0;stroke-width:1.5;"/>
   </g>
   <g id="line2d_31">
    <path clip-path="url(#pb1a18968d4)" d="M 20.5625 66.558934 
L 42.059342 66.336166 
L 63.556184 66.758132 
L 85.053026 66.550706 
L 106.549868 66.488811 
L 128.046711 66.597484 
L 149.543553 66.598609 
L 171.040395 66.297264 
L 192.537237 66.888308 
L 214.034079 67.973087 
L 235.530921 68.019292 
L 257.027763 68.454342 
L 278.524605 68.703309 
L 300.021447 67.638946 
L 321.518289 69.49246 
L 343.015132 70.597878 
L 364.511974 74.161844 
L 386.008816 72.885789 
L 407.505658 65.916025 
L 429.0025 71.232951 
" style="fill:none;stroke:#008000;stroke-dasharray:1.5,2.475;stroke-dashoffset:0;stroke-width:1.5;"/>
   </g>
   <g id="line2d_32">
    <path clip-path="url(#pb1a18968d4)" d="M 20.5625 77.398725 
L 42.059342 77.398546 
L 63.556184 77.449597 
L 85.053026 77.476111 
L 106.549868 77.638984 
L 128.046711 77.637858 
L 149.543553 77.684425 
L 171.040395 77.723544 
L 192.537237 77.766014 
L 214.034079 77.876344 
L 235.530921 77.832502 
L 257.027763 77.583125 
L 278.524605 77.826406 
L 300.021447 77.874509 
L 321.518289 77.92609 
L 343.015132 77.918027 
L 364.511974 78.089792 
L 386.008816 78.048799 
L 407.505658 79.362576 
L 429.0025 79.266706 
" style="fill:none;stroke:#000000;stroke-dasharray:5.55,2.4;stroke-dashoffset:0;stroke-width:1.5;"/>
   </g>
   <g id="line2d_33">
    <path clip-path="url(#pb1a18968d4)" d="M 20.5625 86.738819 
L 42.059342 86.701745 
L 63.556184 86.653048 
L 85.053026 86.691864 
L 106.549868 86.774997 
L 128.046711 86.784421 
L 149.543553 86.913228 
L 171.040395 86.898304 
L 192.537237 86.950879 
L 214.034079 86.942302 
L 235.530921 86.92576 
L 257.027763 86.819938 
L 278.524605 86.930038 
L 300.021447 87.030982 
L 321.518289 86.890316 
L 343.015132 87.055026 
L 364.511974 87.186962 
L 386.008816 87.205894 
L 407.505658 87.664844 
L 429.0025 88.647183 
" style="fill:none;stroke:#000000;stroke-dasharray:1.5,2.475;stroke-dashoffset:0;stroke-width:1.5;"/>
   </g>
   <g id="patch_3">
    <path d="M 20.5625 100.212083 
L 20.5625 19.27875 
" style="fill:none;stroke:#000000;stroke-linecap:square;stroke-linejoin:miter;stroke-width:0.8;"/>
   </g>
   <g id="patch_4">
    <path d="M 429.0025 100.212083 
L 429.0025 19.27875 
" style="fill:none;stroke:#000000;stroke-linecap:square;stroke-linejoin:miter;stroke-width:0.8;"/>
   </g>
   <g id="patch_5">
    <path d="M 20.5625 100.212083 
L 429.0025 100.212083 
" style="fill:none;stroke:#000000;stroke-linecap:square;stroke-linejoin:miter;stroke-width:0.8;"/>
   </g>
   <g id="patch_6">
    <path d="M 20.5625 19.27875 
L 429.0025 19.27875 
" style="fill:none;stroke:#000000;stroke-linecap:square;stroke-linejoin:miter;stroke-width:0.8;"/>
   </g>
   <g id="text_7">
    <!-- a) random -->
    <defs>
     <path d="M 34.28125 27.484375 
Q 23.390625 27.484375 19.1875 25 
Q 14.984375 22.515625 14.984375 16.5 
Q 14.984375 11.71875 18.140625 8.90625 
Q 21.296875 6.109375 26.703125 6.109375 
Q 34.1875 6.109375 38.703125 11.40625 
Q 43.21875 16.703125 43.21875 25.484375 
L 43.21875 27.484375 
z
M 52.203125 31.203125 
L 52.203125 0 
L 43.21875 0 
L 43.21875 8.296875 
Q 40.140625 3.328125 35.546875 0.953125 
Q 30.953125 -1.421875 24.3125 -1.421875 
Q 15.921875 -1.421875 10.953125 3.296875 
Q 6 8.015625 6 15.921875 
Q 6 25.140625 12.171875 29.828125 
Q 18.359375 34.515625 30.609375 34.515625 
L 43.21875 34.515625 
L 43.21875 35.40625 
Q 43.21875 41.609375 39.140625 45 
Q 35.0625 48.390625 27.6875 48.390625 
Q 23 48.390625 18.546875 47.265625 
Q 14.109375 46.140625 10.015625 43.890625 
L 10.015625 52.203125 
Q 14.9375 54.109375 19.578125 55.046875 
Q 24.21875 56 28.609375 56 
Q 40.484375 56 46.34375 49.84375 
Q 52.203125 43.703125 52.203125 31.203125 
z
" id="DejaVuSans-97"/>
     <path d="M 8.015625 75.875 
L 15.828125 75.875 
Q 23.140625 64.359375 26.78125 53.3125 
Q 30.421875 42.28125 30.421875 31.390625 
Q 30.421875 20.453125 26.78125 9.375 
Q 23.140625 -1.703125 15.828125 -13.1875 
L 8.015625 -13.1875 
Q 14.5 -2 17.703125 9.0625 
Q 20.90625 20.125 20.90625 31.390625 
Q 20.90625 42.671875 17.703125 53.65625 
Q 14.5 64.65625 8.015625 75.875 
z
" id="DejaVuSans-41"/>
     <path d="M 41.109375 46.296875 
Q 39.59375 47.171875 37.8125 47.578125 
Q 36.03125 48 33.890625 48 
Q 26.265625 48 22.1875 43.046875 
Q 18.109375 38.09375 18.109375 28.8125 
L 18.109375 0 
L 9.078125 0 
L 9.078125 54.6875 
L 18.109375 54.6875 
L 18.109375 46.1875 
Q 20.953125 51.171875 25.484375 53.578125 
Q 30.03125 56 36.53125 56 
Q 37.453125 56 38.578125 55.875 
Q 39.703125 55.765625 41.0625 55.515625 
z
" id="DejaVuSans-114"/>
     <path d="M 52 44.1875 
Q 55.375 50.25 60.0625 53.125 
Q 64.75 56 71.09375 56 
Q 79.640625 56 84.28125 50.015625 
Q 88.921875 44.046875 88.921875 33.015625 
L 88.921875 0 
L 79.890625 0 
L 79.890625 32.71875 
Q 79.890625 40.578125 77.09375 44.375 
Q 74.3125 48.1875 68.609375 48.1875 
Q 61.625 48.1875 57.5625 43.546875 
Q 53.515625 38.921875 53.515625 30.90625 
L 53.515625 0 
L 44.484375 0 
L 44.484375 32.71875 
Q 44.484375 40.625 41.703125 44.40625 
Q 38.921875 48.1875 33.109375 48.1875 
Q 26.21875 48.1875 22.15625 43.53125 
Q 18.109375 38.875 18.109375 30.90625 
L 18.109375 0 
L 9.078125 0 
L 9.078125 54.6875 
L 18.109375 54.6875 
L 18.109375 46.1875 
Q 21.1875 51.21875 25.484375 53.609375 
Q 29.78125 56 35.6875 56 
Q 41.65625 56 45.828125 52.96875 
Q 50 49.953125 52 44.1875 
z
" id="DejaVuSans-109"/>
    </defs>
    <g transform="translate(203.985625 13.27875)scale(0.08 -0.08)">
     <use xlink:href="#DejaVuSans-97"/>
     <use x="61.279297" xlink:href="#DejaVuSans-41"/>
     <use x="100.292969" xlink:href="#DejaVuSans-32"/>
     <use x="132.080078" xlink:href="#DejaVuSans-114"/>
     <use x="173.193359" xlink:href="#DejaVuSans-97"/>
     <use x="234.472656" xlink:href="#DejaVuSans-110"/>
     <use x="297.851562" xlink:href="#DejaVuSans-100"/>
     <use x="361.328125" xlink:href="#DejaVuSans-111"/>
     <use x="422.509766" xlink:href="#DejaVuSans-109"/>
    </g>
   </g>
   <g id="legend_1">
    <g id="patch_7">
     <path d="M 434.6025 122.88875 
L 524.2025 122.88875 
Q 525.8025 122.88875 525.8025 121.28875 
L 525.8025 24.87875 
Q 525.8025 23.27875 524.2025 23.27875 
L 434.6025 23.27875 
Q 433.0025 23.27875 433.0025 24.87875 
L 433.0025 121.28875 
Q 433.0025 122.88875 434.6025 122.88875 
z
" style="fill:#ffffff;opacity:0.8;stroke:#cccccc;stroke-linejoin:miter;"/>
    </g>
    <g id="line2d_34">
     <path d="M 436.2025 29.7575 
L 452.2025 29.7575 
" style="fill:none;stroke:#ff0000;stroke-dasharray:5.55,2.4;stroke-dashoffset:0;stroke-width:1.5;"/>
    </g>
    <g id="line2d_35"/>
    <g id="text_8">
     <!-- R degree 50 -->
     <defs>
      <path d="M 44.390625 34.1875 
Q 47.5625 33.109375 50.5625 29.59375 
Q 53.5625 26.078125 56.59375 19.921875 
L 66.609375 0 
L 56 0 
L 46.6875 18.703125 
Q 43.0625 26.03125 39.671875 28.421875 
Q 36.28125 30.8125 30.421875 30.8125 
L 19.671875 30.8125 
L 19.671875 0 
L 9.8125 0 
L 9.8125 72.90625 
L 32.078125 72.90625 
Q 44.578125 72.90625 50.734375 67.671875 
Q 56.890625 62.453125 56.890625 51.90625 
Q 56.890625 45.015625 53.6875 40.46875 
Q 50.484375 35.9375 44.390625 34.1875 
z
M 19.671875 64.796875 
L 19.671875 38.921875 
L 32.078125 38.921875 
Q 39.203125 38.921875 42.84375 42.21875 
Q 46.484375 45.515625 46.484375 51.90625 
Q 46.484375 58.296875 42.84375 61.546875 
Q 39.203125 64.796875 32.078125 64.796875 
z
" id="DejaVuSans-82"/>
      <path d="M 45.40625 27.984375 
Q 45.40625 37.75 41.375 43.109375 
Q 37.359375 48.484375 30.078125 48.484375 
Q 22.859375 48.484375 18.828125 43.109375 
Q 14.796875 37.75 14.796875 27.984375 
Q 14.796875 18.265625 18.828125 12.890625 
Q 22.859375 7.515625 30.078125 7.515625 
Q 37.359375 7.515625 41.375 12.890625 
Q 45.40625 18.265625 45.40625 27.984375 
z
M 54.390625 6.78125 
Q 54.390625 -7.171875 48.1875 -13.984375 
Q 42 -20.796875 29.203125 -20.796875 
Q 24.46875 -20.796875 20.265625 -20.09375 
Q 16.0625 -19.390625 12.109375 -17.921875 
L 12.109375 -9.1875 
Q 16.0625 -11.328125 19.921875 -12.34375 
Q 23.78125 -13.375 27.78125 -13.375 
Q 36.625 -13.375 41.015625 -8.765625 
Q 45.40625 -4.15625 45.40625 5.171875 
L 45.40625 9.625 
Q 42.625 4.78125 38.28125 2.390625 
Q 33.9375 0 27.875 0 
Q 17.828125 0 11.671875 7.65625 
Q 5.515625 15.328125 5.515625 27.984375 
Q 5.515625 40.671875 11.671875 48.328125 
Q 17.828125 56 27.875 56 
Q 33.9375 56 38.28125 53.609375 
Q 42.625 51.21875 45.40625 46.390625 
L 45.40625 54.6875 
L 54.390625 54.6875 
z
" id="DejaVuSans-103"/>
      <path d="M 10.796875 72.90625 
L 49.515625 72.90625 
L 49.515625 64.59375 
L 19.828125 64.59375 
L 19.828125 46.734375 
Q 21.96875 47.46875 24.109375 47.828125 
Q 26.265625 48.1875 28.421875 48.1875 
Q 40.625 48.1875 47.75 41.5 
Q 54.890625 34.8125 54.890625 23.390625 
Q 54.890625 11.625 47.5625 5.09375 
Q 40.234375 -1.421875 26.90625 -1.421875 
Q 22.3125 -1.421875 17.546875 -0.640625 
Q 12.796875 0.140625 7.71875 1.703125 
L 7.71875 11.625 
Q 12.109375 9.234375 16.796875 8.0625 
Q 21.484375 6.890625 26.703125 6.890625 
Q 35.15625 6.890625 40.078125 11.328125 
Q 45.015625 15.765625 45.015625 23.390625 
Q 45.015625 31 40.078125 35.4375 
Q 35.15625 39.890625 26.703125 39.890625 
Q 22.75 39.890625 18.8125 39.015625 
Q 14.890625 38.140625 10.796875 36.28125 
z
" id="DejaVuSans-53"/>
     </defs>
     <g transform="translate(458.6025 32.5575)scale(0.08 -0.08)">
      <use xlink:href="#DejaVuSans-82"/>
      <use x="69.482422" xlink:href="#DejaVuSans-32"/>
      <use x="101.269531" xlink:href="#DejaVuSans-100"/>
      <use x="164.746094" xlink:href="#DejaVuSans-101"/>
      <use x="226.269531" xlink:href="#DejaVuSans-103"/>
      <use x="289.746094" xlink:href="#DejaVuSans-114"/>
      <use x="330.828125" xlink:href="#DejaVuSans-101"/>
      <use x="392.351562" xlink:href="#DejaVuSans-101"/>
      <use x="453.875" xlink:href="#DejaVuSans-32"/>
      <use x="485.662109" xlink:href="#DejaVuSans-53"/>
      <use x="549.285156" xlink:href="#DejaVuSans-48"/>
     </g>
    </g>
    <g id="line2d_36">
     <path d="M 436.2025 41.50125 
L 452.2025 41.50125 
" style="fill:none;stroke:#ff0000;stroke-dasharray:1.5,2.475;stroke-dashoffset:0;stroke-width:1.5;"/>
    </g>
    <g id="line2d_37"/>
    <g id="text_9">
     <!-- $\Delta D_q$ degree 50 -->
     <defs>
      <path d="M 34.1875 63.1875 
L 14.15625 8.203125 
L 54.25 8.203125 
z
M 0.78125 0 
L 28.609375 72.90625 
L 39.796875 72.90625 
L 67.578125 0 
z
" id="DejaVuSans-916"/>
      <path d="M 16.890625 72.90625 
L 38.09375 72.90625 
Q 54.984375 72.90625 63.59375 65.75 
Q 72.21875 58.59375 72.21875 44.484375 
Q 72.21875 35.15625 68.9375 26.53125 
Q 65.671875 17.921875 59.90625 12.015625 
Q 54.109375 5.953125 45.171875 2.96875 
Q 36.234375 0 24.03125 0 
L 2.6875 0 
z
M 25.203125 64.796875 
L 14.203125 8.109375 
L 27.09375 8.109375 
Q 43.65625 8.109375 52.734375 17.625 
Q 61.8125 27.15625 61.8125 44.484375 
Q 61.8125 54.984375 55.953125 59.890625 
Q 50.09375 64.796875 37.59375 64.796875 
z
" id="DejaVuSans-Oblique-68"/>
      <path d="M 41.703125 8.203125 
Q 38.09375 3.46875 33.171875 1.015625 
Q 28.265625 -1.421875 22.3125 -1.421875 
Q 14.015625 -1.421875 9.296875 4.171875 
Q 4.59375 9.765625 4.59375 19.578125 
Q 4.59375 27.484375 7.5 34.859375 
Q 10.40625 42.234375 15.828125 48.09375 
Q 19.34375 51.90625 23.90625 53.953125 
Q 28.46875 56 33.5 56 
Q 39.546875 56 43.453125 53.609375 
Q 47.359375 51.21875 49.125 46.390625 
L 50.6875 54.59375 
L 59.71875 54.59375 
L 45.125 -20.609375 
L 36.078125 -20.609375 
z
M 13.921875 20.90625 
Q 13.921875 13.671875 16.9375 9.890625 
Q 19.96875 6.109375 25.6875 6.109375 
Q 34.1875 6.109375 40.1875 14.234375 
Q 46.1875 22.359375 46.1875 33.984375 
Q 46.1875 41.015625 43.078125 44.75 
Q 39.984375 48.484375 34.1875 48.484375 
Q 29.9375 48.484375 26.3125 46.5 
Q 22.703125 44.53125 20.015625 40.71875 
Q 17.1875 36.71875 15.546875 31.34375 
Q 13.921875 25.984375 13.921875 20.90625 
z
" id="DejaVuSans-Oblique-113"/>
     </defs>
     <g transform="translate(458.6025 44.30125)scale(0.08 -0.08)">
      <use transform="translate(0 0.015625)" xlink:href="#DejaVuSans-916"/>
      <use transform="translate(68.408203 0.015625)" xlink:href="#DejaVuSans-Oblique-68"/>
      <use transform="translate(145.410156 -16.390625)scale(0.7)" xlink:href="#DejaVuSans-Oblique-113"/>
      <use transform="translate(192.578125 0.015625)" xlink:href="#DejaVuSans-32"/>
      <use transform="translate(224.365234 0.015625)" xlink:href="#DejaVuSans-100"/>
      <use transform="translate(287.841797 0.015625)" xlink:href="#DejaVuSans-101"/>
      <use transform="translate(349.365234 0.015625)" xlink:href="#DejaVuSans-103"/>
      <use transform="translate(412.841797 0.015625)" xlink:href="#DejaVuSans-114"/>
      <use transform="translate(453.955078 0.015625)" xlink:href="#DejaVuSans-101"/>
      <use transform="translate(515.478516 0.015625)" xlink:href="#DejaVuSans-101"/>
      <use transform="translate(577.001953 0.015625)" xlink:href="#DejaVuSans-32"/>
      <use transform="translate(608.789062 0.015625)" xlink:href="#DejaVuSans-53"/>
      <use transform="translate(672.412109 0.015625)" xlink:href="#DejaVuSans-48"/>
     </g>
    </g>
    <g id="line2d_38">
     <path d="M 436.2025 54.06 
L 452.2025 54.06 
" style="fill:none;stroke:#0000ff;stroke-dasharray:5.55,2.4;stroke-dashoffset:0;stroke-width:1.5;"/>
    </g>
    <g id="line2d_39"/>
    <g id="text_10">
     <!-- R degree 100 -->
     <g transform="translate(458.6025 56.86)scale(0.08 -0.08)">
      <use xlink:href="#DejaVuSans-82"/>
      <use x="69.482422" xlink:href="#DejaVuSans-32"/>
      <use x="101.269531" xlink:href="#DejaVuSans-100"/>
      <use x="164.746094" xlink:href="#DejaVuSans-101"/>
      <use x="226.269531" xlink:href="#DejaVuSans-103"/>
      <use x="289.746094" xlink:href="#DejaVuSans-114"/>
      <use x="330.828125" xlink:href="#DejaVuSans-101"/>
      <use x="392.351562" xlink:href="#DejaVuSans-101"/>
      <use x="453.875" xlink:href="#DejaVuSans-32"/>
      <use x="485.662109" xlink:href="#DejaVuSans-49"/>
      <use x="549.285156" xlink:href="#DejaVuSans-48"/>
      <use x="612.908203" xlink:href="#DejaVuSans-48"/>
     </g>
    </g>
    <g id="line2d_40">
     <path d="M 436.2025 65.80375 
L 452.2025 65.80375 
" style="fill:none;stroke:#0000ff;stroke-dasharray:1.5,2.475;stroke-dashoffset:0;stroke-width:1.5;"/>
    </g>
    <g id="line2d_41"/>
    <g id="text_11">
     <!-- $\Delta D_q$ degree 100 -->
     <g transform="translate(458.6025 68.60375)scale(0.08 -0.08)">
      <use transform="translate(0 0.015625)" xlink:href="#DejaVuSans-916"/>
      <use transform="translate(68.408203 0.015625)" xlink:href="#DejaVuSans-Oblique-68"/>
      <use transform="translate(145.410156 -16.390625)scale(0.7)" xlink:href="#DejaVuSans-Oblique-113"/>
      <use transform="translate(192.578125 0.015625)" xlink:href="#DejaVuSans-32"/>
      <use transform="translate(224.365234 0.015625)" xlink:href="#DejaVuSans-100"/>
      <use transform="translate(287.841797 0.015625)" xlink:href="#DejaVuSans-101"/>
      <use transform="translate(349.365234 0.015625)" xlink:href="#DejaVuSans-103"/>
      <use transform="translate(412.841797 0.015625)" xlink:href="#DejaVuSans-114"/>
      <use transform="translate(453.955078 0.015625)" xlink:href="#DejaVuSans-101"/>
      <use transform="translate(515.478516 0.015625)" xlink:href="#DejaVuSans-101"/>
      <use transform="translate(577.001953 0.015625)" xlink:href="#DejaVuSans-32"/>
      <use transform="translate(608.789062 0.015625)" xlink:href="#DejaVuSans-49"/>
      <use transform="translate(672.412109 0.015625)" xlink:href="#DejaVuSans-48"/>
      <use transform="translate(736.035156 0.015625)" xlink:href="#DejaVuSans-48"/>
     </g>
    </g>
    <g id="line2d_42">
     <path d="M 436.2025 78.3625 
L 452.2025 78.3625 
" style="fill:none;stroke:#008000;stroke-dasharray:5.55,2.4;stroke-dashoffset:0;stroke-width:1.5;"/>
    </g>
    <g id="line2d_43"/>
    <g id="text_12">
     <!-- R degree 200 -->
     <g transform="translate(458.6025 81.1625)scale(0.08 -0.08)">
      <use xlink:href="#DejaVuSans-82"/>
      <use x="69.482422" xlink:href="#DejaVuSans-32"/>
      <use x="101.269531" xlink:href="#DejaVuSans-100"/>
      <use x="164.746094" xlink:href="#DejaVuSans-101"/>
      <use x="226.269531" xlink:href="#DejaVuSans-103"/>
      <use x="289.746094" xlink:href="#DejaVuSans-114"/>
      <use x="330.828125" xlink:href="#DejaVuSans-101"/>
      <use x="392.351562" xlink:href="#DejaVuSans-101"/>
      <use x="453.875" xlink:href="#DejaVuSans-32"/>
      <use x="485.662109" xlink:href="#DejaVuSans-50"/>
      <use x="549.285156" xlink:href="#DejaVuSans-48"/>
      <use x="612.908203" xlink:href="#DejaVuSans-48"/>
     </g>
    </g>
    <g id="line2d_44">
     <path d="M 436.2025 90.10625 
L 452.2025 90.10625 
" style="fill:none;stroke:#008000;stroke-dasharray:1.5,2.475;stroke-dashoffset:0;stroke-width:1.5;"/>
    </g>
    <g id="line2d_45"/>
    <g id="text_13">
     <!-- $\Delta D_q$ degree 200 -->
     <g transform="translate(458.6025 92.90625)scale(0.08 -0.08)">
      <use transform="translate(0 0.015625)" xlink:href="#DejaVuSans-916"/>
      <use transform="translate(68.408203 0.015625)" xlink:href="#DejaVuSans-Oblique-68"/>
      <use transform="translate(145.410156 -16.390625)scale(0.7)" xlink:href="#DejaVuSans-Oblique-113"/>
      <use transform="translate(192.578125 0.015625)" xlink:href="#DejaVuSans-32"/>
      <use transform="translate(224.365234 0.015625)" xlink:href="#DejaVuSans-100"/>
      <use transform="translate(287.841797 0.015625)" xlink:href="#DejaVuSans-101"/>
      <use transform="translate(349.365234 0.015625)" xlink:href="#DejaVuSans-103"/>
      <use transform="translate(412.841797 0.015625)" xlink:href="#DejaVuSans-114"/>
      <use transform="translate(453.955078 0.015625)" xlink:href="#DejaVuSans-101"/>
      <use transform="translate(515.478516 0.015625)" xlink:href="#DejaVuSans-101"/>
      <use transform="translate(577.001953 0.015625)" xlink:href="#DejaVuSans-32"/>
      <use transform="translate(608.789062 0.015625)" xlink:href="#DejaVuSans-50"/>
      <use transform="translate(672.412109 0.015625)" xlink:href="#DejaVuSans-48"/>
      <use transform="translate(736.035156 0.015625)" xlink:href="#DejaVuSans-48"/>
     </g>
    </g>
    <g id="line2d_46">
     <path d="M 436.2025 102.665 
L 452.2025 102.665 
" style="fill:none;stroke:#000000;stroke-dasharray:5.55,2.4;stroke-dashoffset:0;stroke-width:1.5;"/>
    </g>
    <g id="line2d_47"/>
    <g id="text_14">
     <!-- R degree 500 -->
     <g transform="translate(458.6025 105.465)scale(0.08 -0.08)">
      <use xlink:href="#DejaVuSans-82"/>
      <use x="69.482422" xlink:href="#DejaVuSans-32"/>
      <use x="101.269531" xlink:href="#DejaVuSans-100"/>
      <use x="164.746094" xlink:href="#DejaVuSans-101"/>
      <use x="226.269531" xlink:href="#DejaVuSans-103"/>
      <use x="289.746094" xlink:href="#DejaVuSans-114"/>
      <use x="330.828125" xlink:href="#DejaVuSans-101"/>
      <use x="392.351562" xlink:href="#DejaVuSans-101"/>
      <use x="453.875" xlink:href="#DejaVuSans-32"/>
      <use x="485.662109" xlink:href="#DejaVuSans-53"/>
      <use x="549.285156" xlink:href="#DejaVuSans-48"/>
      <use x="612.908203" xlink:href="#DejaVuSans-48"/>
     </g>
    </g>
    <g id="line2d_48">
     <path d="M 436.2025 114.40875 
L 452.2025 114.40875 
" style="fill:none;stroke:#000000;stroke-dasharray:1.5,2.475;stroke-dashoffset:0;stroke-width:1.5;"/>
    </g>
    <g id="line2d_49"/>
    <g id="text_15">
     <!-- $\Delta D_q$ degree 500 -->
     <g transform="translate(458.6025 117.20875)scale(0.08 -0.08)">
      <use transform="translate(0 0.015625)" xlink:href="#DejaVuSans-916"/>
      <use transform="translate(68.408203 0.015625)" xlink:href="#DejaVuSans-Oblique-68"/>
      <use transform="translate(145.410156 -16.390625)scale(0.7)" xlink:href="#DejaVuSans-Oblique-113"/>
      <use transform="translate(192.578125 0.015625)" xlink:href="#DejaVuSans-32"/>
      <use transform="translate(224.365234 0.015625)" xlink:href="#DejaVuSans-100"/>
      <use transform="translate(287.841797 0.015625)" xlink:href="#DejaVuSans-101"/>
      <use transform="translate(349.365234 0.015625)" xlink:href="#DejaVuSans-103"/>
      <use transform="translate(412.841797 0.015625)" xlink:href="#DejaVuSans-114"/>
      <use transform="translate(453.955078 0.015625)" xlink:href="#DejaVuSans-101"/>
      <use transform="translate(515.478516 0.015625)" xlink:href="#DejaVuSans-101"/>
      <use transform="translate(577.001953 0.015625)" xlink:href="#DejaVuSans-32"/>
      <use transform="translate(608.789062 0.015625)" xlink:href="#DejaVuSans-53"/>
      <use transform="translate(672.412109 0.015625)" xlink:href="#DejaVuSans-48"/>
      <use transform="translate(736.035156 0.015625)" xlink:href="#DejaVuSans-48"/>
     </g>
    </g>
   </g>
  </g>
  <g id="axes_2">
   <g id="patch_8">
    <path d="M 20.5625 211.225417 
L 429.0025 211.225417 
L 429.0025 130.292083 
L 20.5625 130.292083 
z
" style="fill:#ffffff;"/>
   </g>
   <g id="matplotlib.axis_3">
    <g id="xtick_21">
     <g id="line2d_50">
      <g>
       <use style="stroke:#000000;stroke-width:0.8;" x="20.5625" xlink:href="#m79a149c17a" y="211.225417"/>
      </g>
     </g>
    </g>
    <g id="xtick_22">
     <g id="line2d_51">
      <g>
       <use style="stroke:#000000;stroke-width:0.8;" x="42.059342" xlink:href="#m79a149c17a" y="211.225417"/>
      </g>
     </g>
    </g>
    <g id="xtick_23">
     <g id="line2d_52">
      <g>
       <use style="stroke:#000000;stroke-width:0.8;" x="63.556184" xlink:href="#m79a149c17a" y="211.225417"/>
      </g>
     </g>
    </g>
    <g id="xtick_24">
     <g id="line2d_53">
      <g>
       <use style="stroke:#000000;stroke-width:0.8;" x="85.053026" xlink:href="#m79a149c17a" y="211.225417"/>
      </g>
     </g>
    </g>
    <g id="xtick_25">
     <g id="line2d_54">
      <g>
       <use style="stroke:#000000;stroke-width:0.8;" x="106.549868" xlink:href="#m79a149c17a" y="211.225417"/>
      </g>
     </g>
    </g>
    <g id="xtick_26">
     <g id="line2d_55">
      <g>
       <use style="stroke:#000000;stroke-width:0.8;" x="128.046711" xlink:href="#m79a149c17a" y="211.225417"/>
      </g>
     </g>
    </g>
    <g id="xtick_27">
     <g id="line2d_56">
      <g>
       <use style="stroke:#000000;stroke-width:0.8;" x="149.543553" xlink:href="#m79a149c17a" y="211.225417"/>
      </g>
     </g>
    </g>
    <g id="xtick_28">
     <g id="line2d_57">
      <g>
       <use style="stroke:#000000;stroke-width:0.8;" x="171.040395" xlink:href="#m79a149c17a" y="211.225417"/>
      </g>
     </g>
    </g>
    <g id="xtick_29">
     <g id="line2d_58">
      <g>
       <use style="stroke:#000000;stroke-width:0.8;" x="192.537237" xlink:href="#m79a149c17a" y="211.225417"/>
      </g>
     </g>
    </g>
    <g id="xtick_30">
     <g id="line2d_59">
      <g>
       <use style="stroke:#000000;stroke-width:0.8;" x="214.034079" xlink:href="#m79a149c17a" y="211.225417"/>
      </g>
     </g>
    </g>
    <g id="xtick_31">
     <g id="line2d_60">
      <g>
       <use style="stroke:#000000;stroke-width:0.8;" x="235.530921" xlink:href="#m79a149c17a" y="211.225417"/>
      </g>
     </g>
    </g>
    <g id="xtick_32">
     <g id="line2d_61">
      <g>
       <use style="stroke:#000000;stroke-width:0.8;" x="257.027763" xlink:href="#m79a149c17a" y="211.225417"/>
      </g>
     </g>
    </g>
    <g id="xtick_33">
     <g id="line2d_62">
      <g>
       <use style="stroke:#000000;stroke-width:0.8;" x="278.524605" xlink:href="#m79a149c17a" y="211.225417"/>
      </g>
     </g>
    </g>
    <g id="xtick_34">
     <g id="line2d_63">
      <g>
       <use style="stroke:#000000;stroke-width:0.8;" x="300.021447" xlink:href="#m79a149c17a" y="211.225417"/>
      </g>
     </g>
    </g>
    <g id="xtick_35">
     <g id="line2d_64">
      <g>
       <use style="stroke:#000000;stroke-width:0.8;" x="321.518289" xlink:href="#m79a149c17a" y="211.225417"/>
      </g>
     </g>
    </g>
    <g id="xtick_36">
     <g id="line2d_65">
      <g>
       <use style="stroke:#000000;stroke-width:0.8;" x="343.015132" xlink:href="#m79a149c17a" y="211.225417"/>
      </g>
     </g>
    </g>
    <g id="xtick_37">
     <g id="line2d_66">
      <g>
       <use style="stroke:#000000;stroke-width:0.8;" x="364.511974" xlink:href="#m79a149c17a" y="211.225417"/>
      </g>
     </g>
    </g>
    <g id="xtick_38">
     <g id="line2d_67">
      <g>
       <use style="stroke:#000000;stroke-width:0.8;" x="386.008816" xlink:href="#m79a149c17a" y="211.225417"/>
      </g>
     </g>
    </g>
    <g id="xtick_39">
     <g id="line2d_68">
      <g>
       <use style="stroke:#000000;stroke-width:0.8;" x="407.505658" xlink:href="#m79a149c17a" y="211.225417"/>
      </g>
     </g>
    </g>
    <g id="xtick_40">
     <g id="line2d_69">
      <g>
       <use style="stroke:#000000;stroke-width:0.8;" x="429.0025" xlink:href="#m79a149c17a" y="211.225417"/>
      </g>
     </g>
    </g>
    <g id="text_16">
     <!-- % nodes -->
     <g transform="translate(207.64375 221.304167)scale(0.08 -0.08)">
      <use xlink:href="#DejaVuSans-37"/>
      <use x="95.019531" xlink:href="#DejaVuSans-32"/>
      <use x="126.806641" xlink:href="#DejaVuSans-110"/>
      <use x="190.185547" xlink:href="#DejaVuSans-111"/>
      <use x="251.367188" xlink:href="#DejaVuSans-100"/>
      <use x="314.84375" xlink:href="#DejaVuSans-101"/>
      <use x="376.367188" xlink:href="#DejaVuSans-115"/>
     </g>
    </g>
   </g>
   <g id="matplotlib.axis_4">
    <g id="ytick_6">
     <g id="line2d_70">
      <g>
       <use style="stroke:#000000;stroke-width:0.8;" x="20.5625" xlink:href="#m0e4193aa26" y="207.546629"/>
      </g>
     </g>
     <g id="text_17">
      <!-- 0 -->
      <g transform="translate(7.2 211.345848)scale(0.1 -0.1)">
       <use xlink:href="#DejaVuSans-48"/>
      </g>
     </g>
    </g>
    <g id="ytick_7">
     <g id="line2d_71">
      <g>
       <use style="stroke:#000000;stroke-width:0.8;" x="20.5625" xlink:href="#m0e4193aa26" y="188.973612"/>
      </g>
     </g>
     <g id="text_18">
      <!-- 1 -->
      <g transform="translate(7.2 192.772831)scale(0.1 -0.1)">
       <use xlink:href="#DejaVuSans-49"/>
      </g>
     </g>
    </g>
    <g id="ytick_8">
     <g id="line2d_72">
      <g>
       <use style="stroke:#000000;stroke-width:0.8;" x="20.5625" xlink:href="#m0e4193aa26" y="170.400596"/>
      </g>
     </g>
     <g id="text_19">
      <!-- 2 -->
      <g transform="translate(7.2 174.199815)scale(0.1 -0.1)">
       <use xlink:href="#DejaVuSans-50"/>
      </g>
     </g>
    </g>
    <g id="ytick_9">
     <g id="line2d_73">
      <g>
       <use style="stroke:#000000;stroke-width:0.8;" x="20.5625" xlink:href="#m0e4193aa26" y="151.827579"/>
      </g>
     </g>
     <g id="text_20">
      <!-- 3 -->
      <g transform="translate(7.2 155.626798)scale(0.1 -0.1)">
       <use xlink:href="#DejaVuSans-51"/>
      </g>
     </g>
    </g>
    <g id="ytick_10">
     <g id="line2d_74">
      <g>
       <use style="stroke:#000000;stroke-width:0.8;" x="20.5625" xlink:href="#m0e4193aa26" y="133.254563"/>
      </g>
     </g>
     <g id="text_21">
      <!-- 4 -->
      <g transform="translate(7.2 137.053782)scale(0.1 -0.1)">
       <use xlink:href="#DejaVuSans-52"/>
      </g>
     </g>
    </g>
   </g>
   <g id="line2d_75">
    <path clip-path="url(#p1545cac260)" d="M 20.5625 172.543511 
L 42.059342 167.006152 
L 63.556184 161.934123 
L 85.053026 158.677199 
L 106.549868 156.337317 
L 128.046711 154.420826 
L 149.543553 152.969557 
L 171.040395 151.684032 
L 192.537237 150.679412 
L 214.034079 149.862369 
L 235.530921 148.972554 
L 257.027763 148.259699 
L 278.524605 147.540473 
L 300.021447 146.816384 
L 321.518289 146.318538 
L 343.015132 146.749305 
L 364.511974 151.265894 
L 386.008816 164.972554 
L 407.505658 195.543205 
L 429.0025 207.546629 
" style="fill:none;stroke:#ff0000;stroke-dasharray:5.55,2.4;stroke-dashoffset:0;stroke-width:1.5;"/>
   </g>
   <g id="line2d_76">
    <path clip-path="url(#p1545cac260)" d="M 20.5625 189.00647 
L 42.059342 192.609275 
L 63.556184 197.947964 
L 85.053026 200.548992 
L 106.549868 202.310531 
L 128.046711 203.465344 
L 149.543553 204.327115 
L 171.040395 204.925539 
L 192.537237 205.308367 
L 214.034079 205.579183 
L 235.530921 205.749258 
L 257.027763 205.879569 
L 278.524605 205.936155 
L 300.021447 205.87157 
L 321.518289 205.741559 
L 343.015132 205.725657 
L 364.511974 206.373082 
L 386.008816 205.009093 
L 407.505658 199.706343 
L 429.0025 207.546629 
" style="fill:none;stroke:#ff0000;stroke-dasharray:1.5,2.475;stroke-dashoffset:0;stroke-width:1.5;"/>
   </g>
   <g id="line2d_77">
    <path clip-path="url(#p1545cac260)" d="M 20.5625 169.83294 
L 42.059342 165.698254 
L 63.556184 161.169549 
L 85.053026 155.872261 
L 106.549868 152.072189 
L 128.046711 148.950225 
L 149.543553 146.441135 
L 171.040395 144.411236 
L 192.537237 142.523913 
L 214.034079 140.840216 
L 235.530921 139.365498 
L 257.027763 138.169547 
L 278.524605 136.995057 
L 300.021447 136.255076 
L 321.518289 136.19821 
L 343.015132 137.19803 
L 364.511974 140.380569 
L 386.008816 147.198467 
L 407.505658 162.537754 
L 429.0025 200.320953 
" style="fill:none;stroke:#0000ff;stroke-dasharray:5.55,2.4;stroke-dashoffset:0;stroke-width:1.5;"/>
   </g>
   <g id="line2d_78">
    <path clip-path="url(#p1545cac260)" d="M 20.5625 187.530758 
L 42.059342 188.951293 
L 63.556184 191.796971 
L 85.053026 196.207115 
L 106.549868 199.156586 
L 128.046711 201.254691 
L 149.543553 202.744915 
L 171.040395 203.658526 
L 192.537237 204.419637 
L 214.034079 204.953701 
L 235.530921 205.405093 
L 257.027763 205.667911 
L 278.524605 205.754254 
L 300.021447 205.916112 
L 321.518289 205.987511 
L 343.015132 206.048856 
L 364.511974 206.501954 
L 386.008816 206.995248 
L 407.505658 206.336901 
L 429.0025 201.438875 
" style="fill:none;stroke:#0000ff;stroke-dasharray:1.5,2.475;stroke-dashoffset:0;stroke-width:1.5;"/>
   </g>
   <g id="line2d_79">
    <path clip-path="url(#p1545cac260)" d="M 20.5625 151.473837 
L 42.059342 138.284379 
L 63.556184 135.251911 
L 85.053026 133.976976 
L 106.549868 133.988506 
L 128.046711 135.185373 
L 149.543553 137.430915 
L 171.040395 140.737498 
L 192.537237 145.072047 
L 214.034079 150.891748 
L 235.530921 157.360457 
L 257.027763 165.176559 
L 278.524605 174.56389 
L 300.021447 185.877602 
L 321.518289 196.619297 
L 343.015132 203.690455 
L 364.511974 207.546629 
L 386.008816 207.546629 
L 407.505658 207.546629 
L 429.0025 207.546629 
" style="fill:none;stroke:#008000;stroke-dasharray:5.55,2.4;stroke-dashoffset:0;stroke-width:1.5;"/>
   </g>
   <g id="line2d_80">
    <path clip-path="url(#p1545cac260)" d="M 20.5625 177.424002 
L 42.059342 195.854392 
L 63.556184 199.34984 
L 85.053026 201.43105 
L 106.549868 203.209496 
L 128.046711 204.678958 
L 149.543553 205.875177 
L 171.040395 206.804197 
L 192.537237 206.983643 
L 214.034079 201.674886 
L 235.530921 200.212228 
L 257.027763 197.55946 
L 278.524605 194.840294 
L 300.021447 195.354728 
L 321.518289 197.932685 
L 343.015132 201.242039 
L 364.511974 207.546629 
L 386.008816 207.546629 
L 407.505658 207.546629 
L 429.0025 207.546629 
" style="fill:none;stroke:#008000;stroke-dasharray:1.5,2.475;stroke-dashoffset:0;stroke-width:1.5;"/>
   </g>
   <g id="line2d_81">
    <path clip-path="url(#p1545cac260)" d="M 20.5625 188.424396 
L 42.059342 186.908371 
L 63.556184 185.413837 
L 85.053026 183.568064 
L 106.549868 181.487562 
L 128.046711 179.0849 
L 149.543553 176.425787 
L 171.040395 174.059407 
L 192.537237 171.911646 
L 214.034079 169.970142 
L 235.530921 168.330379 
L 257.027763 166.754913 
L 278.524605 165.279107 
L 300.021447 163.876919 
L 321.518289 162.538413 
L 343.015132 161.145711 
L 364.511974 159.554691 
L 386.008816 157.575813 
L 407.505658 154.902073 
L 429.0025 160.148117 
" style="fill:none;stroke:#000000;stroke-dasharray:5.55,2.4;stroke-dashoffset:0;stroke-width:1.5;"/>
   </g>
   <g id="line2d_82">
    <path clip-path="url(#p1545cac260)" d="M 20.5625 197.795362 
L 42.059342 197.83083 
L 63.556184 198.022725 
L 85.053026 198.368392 
L 106.549868 198.996564 
L 128.046711 200.055203 
L 149.543553 201.543771 
L 171.040395 202.974557 
L 192.537237 203.978796 
L 214.034079 204.79924 
L 235.530921 205.400844 
L 257.027763 205.910139 
L 278.524605 206.309379 
L 300.021447 206.574137 
L 321.518289 206.714076 
L 343.015132 206.770358 
L 364.511974 206.815957 
L 386.008816 206.62127 
L 407.505658 206.184991 
L 429.0025 206.820427 
" style="fill:none;stroke:#000000;stroke-dasharray:1.5,2.475;stroke-dashoffset:0;stroke-width:1.5;"/>
   </g>
   <g id="patch_9">
    <path d="M 20.5625 211.225417 
L 20.5625 130.292083 
" style="fill:none;stroke:#000000;stroke-linecap:square;stroke-linejoin:miter;stroke-width:0.8;"/>
   </g>
   <g id="patch_10">
    <path d="M 429.0025 211.225417 
L 429.0025 130.292083 
" style="fill:none;stroke:#000000;stroke-linecap:square;stroke-linejoin:miter;stroke-width:0.8;"/>
   </g>
   <g id="patch_11">
    <path d="M 20.5625 211.225417 
L 429.0025 211.225417 
" style="fill:none;stroke:#000000;stroke-linecap:square;stroke-linejoin:miter;stroke-width:0.8;"/>
   </g>
   <g id="patch_12">
    <path d="M 20.5625 130.292083 
L 429.0025 130.292083 
" style="fill:none;stroke:#000000;stroke-linecap:square;stroke-linejoin:miter;stroke-width:0.8;"/>
   </g>
   <g id="text_22">
    <!-- b) degree -->
    <defs>
     <path d="M 48.6875 27.296875 
Q 48.6875 37.203125 44.609375 42.84375 
Q 40.53125 48.484375 33.40625 48.484375 
Q 26.265625 48.484375 22.1875 42.84375 
Q 18.109375 37.203125 18.109375 27.296875 
Q 18.109375 17.390625 22.1875 11.75 
Q 26.265625 6.109375 33.40625 6.109375 
Q 40.53125 6.109375 44.609375 11.75 
Q 48.6875 17.390625 48.6875 27.296875 
z
M 18.109375 46.390625 
Q 20.953125 51.265625 25.265625 53.625 
Q 29.59375 56 35.59375 56 
Q 45.5625 56 51.78125 48.09375 
Q 58.015625 40.1875 58.015625 27.296875 
Q 58.015625 14.40625 51.78125 6.484375 
Q 45.5625 -1.421875 35.59375 -1.421875 
Q 29.59375 -1.421875 25.265625 0.953125 
Q 20.953125 3.328125 18.109375 8.203125 
L 18.109375 0 
L 9.078125 0 
L 9.078125 75.984375 
L 18.109375 75.984375 
z
" id="DejaVuSans-98"/>
    </defs>
    <g transform="translate(205.305625 124.292083)scale(0.08 -0.08)">
     <use xlink:href="#DejaVuSans-98"/>
     <use x="63.476562" xlink:href="#DejaVuSans-41"/>
     <use x="102.490234" xlink:href="#DejaVuSans-32"/>
     <use x="134.277344" xlink:href="#DejaVuSans-100"/>
     <use x="197.753906" xlink:href="#DejaVuSans-101"/>
     <use x="259.277344" xlink:href="#DejaVuSans-103"/>
     <use x="322.753906" xlink:href="#DejaVuSans-114"/>
     <use x="363.835938" xlink:href="#DejaVuSans-101"/>
     <use x="425.359375" xlink:href="#DejaVuSans-101"/>
    </g>
   </g>
  </g>
  <g id="axes_3">
   <g id="patch_13">
    <path d="M 20.5625 322.23875 
L 429.0025 322.23875 
L 429.0025 241.305417 
L 20.5625 241.305417 
z
" style="fill:#ffffff;"/>
   </g>
   <g id="matplotlib.axis_5">
    <g id="xtick_41">
     <g id="line2d_83">
      <g>
       <use style="stroke:#000000;stroke-width:0.8;" x="20.5625" xlink:href="#m79a149c17a" y="322.23875"/>
      </g>
     </g>
     <g id="text_23">
      <!-- 0 -->
      <g transform="translate(17.38125 336.837187)scale(0.1 -0.1)">
       <use xlink:href="#DejaVuSans-48"/>
      </g>
     </g>
    </g>
    <g id="xtick_42">
     <g id="line2d_84">
      <g>
       <use style="stroke:#000000;stroke-width:0.8;" x="42.059342" xlink:href="#m79a149c17a" y="322.23875"/>
      </g>
     </g>
     <g id="text_24">
      <!-- 5 -->
      <g transform="translate(38.878092 336.837187)scale(0.1 -0.1)">
       <use xlink:href="#DejaVuSans-53"/>
      </g>
     </g>
    </g>
    <g id="xtick_43">
     <g id="line2d_85">
      <g>
       <use style="stroke:#000000;stroke-width:0.8;" x="63.556184" xlink:href="#m79a149c17a" y="322.23875"/>
      </g>
     </g>
     <g id="text_25">
      <!-- 10 -->
      <g transform="translate(57.193684 336.837187)scale(0.1 -0.1)">
       <use xlink:href="#DejaVuSans-49"/>
       <use x="63.623047" xlink:href="#DejaVuSans-48"/>
      </g>
     </g>
    </g>
    <g id="xtick_44">
     <g id="line2d_86">
      <g>
       <use style="stroke:#000000;stroke-width:0.8;" x="85.053026" xlink:href="#m79a149c17a" y="322.23875"/>
      </g>
     </g>
     <g id="text_26">
      <!-- 15 -->
      <g transform="translate(78.690526 336.837187)scale(0.1 -0.1)">
       <use xlink:href="#DejaVuSans-49"/>
       <use x="63.623047" xlink:href="#DejaVuSans-53"/>
      </g>
     </g>
    </g>
    <g id="xtick_45">
     <g id="line2d_87">
      <g>
       <use style="stroke:#000000;stroke-width:0.8;" x="106.549868" xlink:href="#m79a149c17a" y="322.23875"/>
      </g>
     </g>
     <g id="text_27">
      <!-- 20 -->
      <g transform="translate(100.187368 336.837187)scale(0.1 -0.1)">
       <use xlink:href="#DejaVuSans-50"/>
       <use x="63.623047" xlink:href="#DejaVuSans-48"/>
      </g>
     </g>
    </g>
    <g id="xtick_46">
     <g id="line2d_88">
      <g>
       <use style="stroke:#000000;stroke-width:0.8;" x="128.046711" xlink:href="#m79a149c17a" y="322.23875"/>
      </g>
     </g>
     <g id="text_28">
      <!-- 25 -->
      <g transform="translate(121.684211 336.837187)scale(0.1 -0.1)">
       <use xlink:href="#DejaVuSans-50"/>
       <use x="63.623047" xlink:href="#DejaVuSans-53"/>
      </g>
     </g>
    </g>
    <g id="xtick_47">
     <g id="line2d_89">
      <g>
       <use style="stroke:#000000;stroke-width:0.8;" x="149.543553" xlink:href="#m79a149c17a" y="322.23875"/>
      </g>
     </g>
     <g id="text_29">
      <!-- 30 -->
      <g transform="translate(143.181053 336.837187)scale(0.1 -0.1)">
       <use xlink:href="#DejaVuSans-51"/>
       <use x="63.623047" xlink:href="#DejaVuSans-48"/>
      </g>
     </g>
    </g>
    <g id="xtick_48">
     <g id="line2d_90">
      <g>
       <use style="stroke:#000000;stroke-width:0.8;" x="171.040395" xlink:href="#m79a149c17a" y="322.23875"/>
      </g>
     </g>
     <g id="text_30">
      <!-- 35 -->
      <g transform="translate(164.677895 336.837187)scale(0.1 -0.1)">
       <use xlink:href="#DejaVuSans-51"/>
       <use x="63.623047" xlink:href="#DejaVuSans-53"/>
      </g>
     </g>
    </g>
    <g id="xtick_49">
     <g id="line2d_91">
      <g>
       <use style="stroke:#000000;stroke-width:0.8;" x="192.537237" xlink:href="#m79a149c17a" y="322.23875"/>
      </g>
     </g>
     <g id="text_31">
      <!-- 40 -->
      <g transform="translate(186.174737 336.837187)scale(0.1 -0.1)">
       <use xlink:href="#DejaVuSans-52"/>
       <use x="63.623047" xlink:href="#DejaVuSans-48"/>
      </g>
     </g>
    </g>
    <g id="xtick_50">
     <g id="line2d_92">
      <g>
       <use style="stroke:#000000;stroke-width:0.8;" x="214.034079" xlink:href="#m79a149c17a" y="322.23875"/>
      </g>
     </g>
     <g id="text_32">
      <!-- 45 -->
      <g transform="translate(207.671579 336.837187)scale(0.1 -0.1)">
       <use xlink:href="#DejaVuSans-52"/>
       <use x="63.623047" xlink:href="#DejaVuSans-53"/>
      </g>
     </g>
    </g>
    <g id="xtick_51">
     <g id="line2d_93">
      <g>
       <use style="stroke:#000000;stroke-width:0.8;" x="235.530921" xlink:href="#m79a149c17a" y="322.23875"/>
      </g>
     </g>
     <g id="text_33">
      <!-- 50 -->
      <g transform="translate(229.168421 336.837187)scale(0.1 -0.1)">
       <use xlink:href="#DejaVuSans-53"/>
       <use x="63.623047" xlink:href="#DejaVuSans-48"/>
      </g>
     </g>
    </g>
    <g id="xtick_52">
     <g id="line2d_94">
      <g>
       <use style="stroke:#000000;stroke-width:0.8;" x="257.027763" xlink:href="#m79a149c17a" y="322.23875"/>
      </g>
     </g>
     <g id="text_34">
      <!-- 55 -->
      <g transform="translate(250.665263 336.837187)scale(0.1 -0.1)">
       <use xlink:href="#DejaVuSans-53"/>
       <use x="63.623047" xlink:href="#DejaVuSans-53"/>
      </g>
     </g>
    </g>
    <g id="xtick_53">
     <g id="line2d_95">
      <g>
       <use style="stroke:#000000;stroke-width:0.8;" x="278.524605" xlink:href="#m79a149c17a" y="322.23875"/>
      </g>
     </g>
     <g id="text_35">
      <!-- 60 -->
      <defs>
       <path d="M 33.015625 40.375 
Q 26.375 40.375 22.484375 35.828125 
Q 18.609375 31.296875 18.609375 23.390625 
Q 18.609375 15.53125 22.484375 10.953125 
Q 26.375 6.390625 33.015625 6.390625 
Q 39.65625 6.390625 43.53125 10.953125 
Q 47.40625 15.53125 47.40625 23.390625 
Q 47.40625 31.296875 43.53125 35.828125 
Q 39.65625 40.375 33.015625 40.375 
z
M 52.59375 71.296875 
L 52.59375 62.3125 
Q 48.875 64.0625 45.09375 64.984375 
Q 41.3125 65.921875 37.59375 65.921875 
Q 27.828125 65.921875 22.671875 59.328125 
Q 17.53125 52.734375 16.796875 39.40625 
Q 19.671875 43.65625 24.015625 45.921875 
Q 28.375 48.1875 33.59375 48.1875 
Q 44.578125 48.1875 50.953125 41.515625 
Q 57.328125 34.859375 57.328125 23.390625 
Q 57.328125 12.15625 50.6875 5.359375 
Q 44.046875 -1.421875 33.015625 -1.421875 
Q 20.359375 -1.421875 13.671875 8.265625 
Q 6.984375 17.96875 6.984375 36.375 
Q 6.984375 53.65625 15.1875 63.9375 
Q 23.390625 74.21875 37.203125 74.21875 
Q 40.921875 74.21875 44.703125 73.484375 
Q 48.484375 72.75 52.59375 71.296875 
z
" id="DejaVuSans-54"/>
      </defs>
      <g transform="translate(272.162105 336.837187)scale(0.1 -0.1)">
       <use xlink:href="#DejaVuSans-54"/>
       <use x="63.623047" xlink:href="#DejaVuSans-48"/>
      </g>
     </g>
    </g>
    <g id="xtick_54">
     <g id="line2d_96">
      <g>
       <use style="stroke:#000000;stroke-width:0.8;" x="300.021447" xlink:href="#m79a149c17a" y="322.23875"/>
      </g>
     </g>
     <g id="text_36">
      <!-- 65 -->
      <g transform="translate(293.658947 336.837187)scale(0.1 -0.1)">
       <use xlink:href="#DejaVuSans-54"/>
       <use x="63.623047" xlink:href="#DejaVuSans-53"/>
      </g>
     </g>
    </g>
    <g id="xtick_55">
     <g id="line2d_97">
      <g>
       <use style="stroke:#000000;stroke-width:0.8;" x="321.518289" xlink:href="#m79a149c17a" y="322.23875"/>
      </g>
     </g>
     <g id="text_37">
      <!-- 70 -->
      <defs>
       <path d="M 8.203125 72.90625 
L 55.078125 72.90625 
L 55.078125 68.703125 
L 28.609375 0 
L 18.3125 0 
L 43.21875 64.59375 
L 8.203125 64.59375 
z
" id="DejaVuSans-55"/>
      </defs>
      <g transform="translate(315.155789 336.837187)scale(0.1 -0.1)">
       <use xlink:href="#DejaVuSans-55"/>
       <use x="63.623047" xlink:href="#DejaVuSans-48"/>
      </g>
     </g>
    </g>
    <g id="xtick_56">
     <g id="line2d_98">
      <g>
       <use style="stroke:#000000;stroke-width:0.8;" x="343.015132" xlink:href="#m79a149c17a" y="322.23875"/>
      </g>
     </g>
     <g id="text_38">
      <!-- 75 -->
      <g transform="translate(336.652632 336.837187)scale(0.1 -0.1)">
       <use xlink:href="#DejaVuSans-55"/>
       <use x="63.623047" xlink:href="#DejaVuSans-53"/>
      </g>
     </g>
    </g>
    <g id="xtick_57">
     <g id="line2d_99">
      <g>
       <use style="stroke:#000000;stroke-width:0.8;" x="364.511974" xlink:href="#m79a149c17a" y="322.23875"/>
      </g>
     </g>
     <g id="text_39">
      <!-- 80 -->
      <defs>
       <path d="M 31.78125 34.625 
Q 24.75 34.625 20.71875 30.859375 
Q 16.703125 27.09375 16.703125 20.515625 
Q 16.703125 13.921875 20.71875 10.15625 
Q 24.75 6.390625 31.78125 6.390625 
Q 38.8125 6.390625 42.859375 10.171875 
Q 46.921875 13.96875 46.921875 20.515625 
Q 46.921875 27.09375 42.890625 30.859375 
Q 38.875 34.625 31.78125 34.625 
z
M 21.921875 38.8125 
Q 15.578125 40.375 12.03125 44.71875 
Q 8.5 49.078125 8.5 55.328125 
Q 8.5 64.0625 14.71875 69.140625 
Q 20.953125 74.21875 31.78125 74.21875 
Q 42.671875 74.21875 48.875 69.140625 
Q 55.078125 64.0625 55.078125 55.328125 
Q 55.078125 49.078125 51.53125 44.71875 
Q 48 40.375 41.703125 38.8125 
Q 48.828125 37.15625 52.796875 32.3125 
Q 56.78125 27.484375 56.78125 20.515625 
Q 56.78125 9.90625 50.3125 4.234375 
Q 43.84375 -1.421875 31.78125 -1.421875 
Q 19.734375 -1.421875 13.25 4.234375 
Q 6.78125 9.90625 6.78125 20.515625 
Q 6.78125 27.484375 10.78125 32.3125 
Q 14.796875 37.15625 21.921875 38.8125 
z
M 18.3125 54.390625 
Q 18.3125 48.734375 21.84375 45.5625 
Q 25.390625 42.390625 31.78125 42.390625 
Q 38.140625 42.390625 41.71875 45.5625 
Q 45.3125 48.734375 45.3125 54.390625 
Q 45.3125 60.0625 41.71875 63.234375 
Q 38.140625 66.40625 31.78125 66.40625 
Q 25.390625 66.40625 21.84375 63.234375 
Q 18.3125 60.0625 18.3125 54.390625 
z
" id="DejaVuSans-56"/>
      </defs>
      <g transform="translate(358.149474 336.837187)scale(0.1 -0.1)">
       <use xlink:href="#DejaVuSans-56"/>
       <use x="63.623047" xlink:href="#DejaVuSans-48"/>
      </g>
     </g>
    </g>
    <g id="xtick_58">
     <g id="line2d_100">
      <g>
       <use style="stroke:#000000;stroke-width:0.8;" x="386.008816" xlink:href="#m79a149c17a" y="322.23875"/>
      </g>
     </g>
     <g id="text_40">
      <!-- 85 -->
      <g transform="translate(379.646316 336.837187)scale(0.1 -0.1)">
       <use xlink:href="#DejaVuSans-56"/>
       <use x="63.623047" xlink:href="#DejaVuSans-53"/>
      </g>
     </g>
    </g>
    <g id="xtick_59">
     <g id="line2d_101">
      <g>
       <use style="stroke:#000000;stroke-width:0.8;" x="407.505658" xlink:href="#m79a149c17a" y="322.23875"/>
      </g>
     </g>
     <g id="text_41">
      <!-- 90 -->
      <defs>
       <path d="M 10.984375 1.515625 
L 10.984375 10.5 
Q 14.703125 8.734375 18.5 7.8125 
Q 22.3125 6.890625 25.984375 6.890625 
Q 35.75 6.890625 40.890625 13.453125 
Q 46.046875 20.015625 46.78125 33.40625 
Q 43.953125 29.203125 39.59375 26.953125 
Q 35.25 24.703125 29.984375 24.703125 
Q 19.046875 24.703125 12.671875 31.3125 
Q 6.296875 37.9375 6.296875 49.421875 
Q 6.296875 60.640625 12.9375 67.421875 
Q 19.578125 74.21875 30.609375 74.21875 
Q 43.265625 74.21875 49.921875 64.515625 
Q 56.59375 54.828125 56.59375 36.375 
Q 56.59375 19.140625 48.40625 8.859375 
Q 40.234375 -1.421875 26.421875 -1.421875 
Q 22.703125 -1.421875 18.890625 -0.6875 
Q 15.09375 0.046875 10.984375 1.515625 
z
M 30.609375 32.421875 
Q 37.25 32.421875 41.125 36.953125 
Q 45.015625 41.5 45.015625 49.421875 
Q 45.015625 57.28125 41.125 61.84375 
Q 37.25 66.40625 30.609375 66.40625 
Q 23.96875 66.40625 20.09375 61.84375 
Q 16.21875 57.28125 16.21875 49.421875 
Q 16.21875 41.5 20.09375 36.953125 
Q 23.96875 32.421875 30.609375 32.421875 
z
" id="DejaVuSans-57"/>
      </defs>
      <g transform="translate(401.143158 336.837187)scale(0.1 -0.1)">
       <use xlink:href="#DejaVuSans-57"/>
       <use x="63.623047" xlink:href="#DejaVuSans-48"/>
      </g>
     </g>
    </g>
    <g id="xtick_60">
     <g id="line2d_102">
      <g>
       <use style="stroke:#000000;stroke-width:0.8;" x="429.0025" xlink:href="#m79a149c17a" y="322.23875"/>
      </g>
     </g>
     <g id="text_42">
      <!-- 95 -->
      <g transform="translate(422.64 336.837187)scale(0.1 -0.1)">
       <use xlink:href="#DejaVuSans-57"/>
       <use x="63.623047" xlink:href="#DejaVuSans-53"/>
      </g>
     </g>
    </g>
    <g id="text_43">
     <!-- % nodes -->
     <g transform="translate(207.64375 348.995625)scale(0.08 -0.08)">
      <use xlink:href="#DejaVuSans-37"/>
      <use x="95.019531" xlink:href="#DejaVuSans-32"/>
      <use x="126.806641" xlink:href="#DejaVuSans-110"/>
      <use x="190.185547" xlink:href="#DejaVuSans-111"/>
      <use x="251.367188" xlink:href="#DejaVuSans-100"/>
      <use x="314.84375" xlink:href="#DejaVuSans-101"/>
      <use x="376.367188" xlink:href="#DejaVuSans-115"/>
     </g>
    </g>
   </g>
   <g id="matplotlib.axis_6">
    <g id="ytick_11">
     <g id="line2d_103">
      <g>
       <use style="stroke:#000000;stroke-width:0.8;" x="20.5625" xlink:href="#m0e4193aa26" y="318.559962"/>
      </g>
     </g>
     <g id="text_44">
      <!-- 0 -->
      <g transform="translate(7.2 322.359181)scale(0.1 -0.1)">
       <use xlink:href="#DejaVuSans-48"/>
      </g>
     </g>
    </g>
    <g id="ytick_12">
     <g id="line2d_104">
      <g>
       <use style="stroke:#000000;stroke-width:0.8;" x="20.5625" xlink:href="#m0e4193aa26" y="299.986946"/>
      </g>
     </g>
     <g id="text_45">
      <!-- 1 -->
      <g transform="translate(7.2 303.786164)scale(0.1 -0.1)">
       <use xlink:href="#DejaVuSans-49"/>
      </g>
     </g>
    </g>
    <g id="ytick_13">
     <g id="line2d_105">
      <g>
       <use style="stroke:#000000;stroke-width:0.8;" x="20.5625" xlink:href="#m0e4193aa26" y="281.413929"/>
      </g>
     </g>
     <g id="text_46">
      <!-- 2 -->
      <g transform="translate(7.2 285.213148)scale(0.1 -0.1)">
       <use xlink:href="#DejaVuSans-50"/>
      </g>
     </g>
    </g>
    <g id="ytick_14">
     <g id="line2d_106">
      <g>
       <use style="stroke:#000000;stroke-width:0.8;" x="20.5625" xlink:href="#m0e4193aa26" y="262.840913"/>
      </g>
     </g>
     <g id="text_47">
      <!-- 3 -->
      <g transform="translate(7.2 266.640131)scale(0.1 -0.1)">
       <use xlink:href="#DejaVuSans-51"/>
      </g>
     </g>
    </g>
    <g id="ytick_15">
     <g id="line2d_107">
      <g>
       <use style="stroke:#000000;stroke-width:0.8;" x="20.5625" xlink:href="#m0e4193aa26" y="244.267896"/>
      </g>
     </g>
     <g id="text_48">
      <!-- 4 -->
      <g transform="translate(7.2 248.067115)scale(0.1 -0.1)">
       <use xlink:href="#DejaVuSans-52"/>
      </g>
     </g>
    </g>
   </g>
   <g id="line2d_108">
    <path clip-path="url(#pe6ccc6f639)" d="M 20.5625 283.566716 
L 42.059342 278.215133 
L 63.556184 272.896651 
L 85.053026 269.693054 
L 106.549868 267.322561 
L 128.046711 265.588769 
L 149.543553 264.045683 
L 171.040395 262.830703 
L 192.537237 261.791372 
L 214.034079 260.957309 
L 235.530921 260.212507 
L 257.027763 259.55336 
L 278.524605 258.922126 
L 300.021447 258.357214 
L 321.518289 257.992551 
L 343.015132 258.168122 
L 364.511974 260.849556 
L 386.008816 269.355948 
L 407.505658 284.851831 
L 429.0025 301.416166 
" style="fill:none;stroke:#ff0000;stroke-dasharray:5.55,2.4;stroke-dashoffset:0;stroke-width:1.5;"/>
   </g>
   <g id="line2d_109">
    <path clip-path="url(#pe6ccc6f639)" d="M 20.5625 299.926355 
L 42.059342 303.57287 
L 63.556184 308.850551 
L 85.053026 311.60332 
L 106.549868 313.283941 
L 128.046711 314.386008 
L 149.543553 315.235732 
L 171.040395 315.872162 
L 192.537237 316.252362 
L 214.034079 316.518464 
L 235.530921 316.688267 
L 257.027763 316.656281 
L 278.524605 316.732045 
L 300.021447 316.652964 
L 321.518289 316.381183 
L 343.015132 316.218371 
L 364.511974 316.485546 
L 386.008816 314.140863 
L 407.505658 309.560484 
L 429.0025 307.125151 
" style="fill:none;stroke:#ff0000;stroke-dasharray:1.5,2.475;stroke-dashoffset:0;stroke-width:1.5;"/>
   </g>
   <g id="line2d_110">
    <path clip-path="url(#pe6ccc6f639)" d="M 20.5625 280.864703 
L 42.059342 276.782099 
L 63.556184 272.035187 
L 85.053026 267.057606 
L 106.549868 263.023193 
L 128.046711 259.926808 
L 149.543553 257.413399 
L 171.040395 255.473309 
L 192.537237 253.550859 
L 214.034079 251.90438 
L 235.530921 250.385077 
L 257.027763 249.136036 
L 278.524605 248.171707 
L 300.021447 247.548277 
L 321.518289 247.508877 
L 343.015132 248.697647 
L 364.511974 251.427613 
L 386.008816 257.299253 
L 407.505658 268.479896 
L 429.0025 290.231831 
" style="fill:none;stroke:#0000ff;stroke-dasharray:5.55,2.4;stroke-dashoffset:0;stroke-width:1.5;"/>
   </g>
   <g id="line2d_111">
    <path clip-path="url(#pe6ccc6f639)" d="M 20.5625 298.617747 
L 42.059342 300.047139 
L 63.556184 302.851423 
L 85.053026 307.190247 
L 106.549868 310.084126 
L 128.046711 312.238343 
L 149.543553 313.701131 
L 171.040395 314.606488 
L 192.537237 315.339091 
L 214.034079 315.951004 
L 235.530921 316.329082 
L 257.027763 316.487101 
L 278.524605 316.666124 
L 300.021447 316.777816 
L 321.518289 316.821898 
L 343.015132 316.724247 
L 364.511974 316.805047 
L 386.008816 317.101953 
L 407.505658 318.241397 
L 429.0025 309.376315 
" style="fill:none;stroke:#0000ff;stroke-dasharray:1.5,2.475;stroke-dashoffset:0;stroke-width:1.5;"/>
   </g>
   <g id="line2d_112">
    <path clip-path="url(#pe6ccc6f639)" d="M 20.5625 262.416825 
L 42.059342 249.575913 
L 63.556184 246.560367 
L 85.053026 245.177666 
L 106.549868 244.984205 
L 128.046711 246.184502 
L 149.543553 248.375696 
L 171.040395 251.562156 
L 192.537237 255.48226 
L 214.034079 260.262487 
L 235.530921 265.929843 
L 257.027763 272.76138 
L 278.524605 279.562284 
L 300.021447 286.70081 
L 321.518289 293.575683 
L 343.015132 299.506433 
L 364.511974 301.972941 
L 386.008816 305.919061 
L 407.505658 315.710245 
L 429.0025 318.559962 
" style="fill:none;stroke:#008000;stroke-dasharray:5.55,2.4;stroke-dashoffset:0;stroke-width:1.5;"/>
   </g>
   <g id="line2d_113">
    <path clip-path="url(#pe6ccc6f639)" d="M 20.5625 288.332497 
L 42.059342 306.048047 
L 63.556184 309.755386 
L 85.053026 311.846372 
L 106.549868 313.76771 
L 128.046711 315.16757 
L 149.543553 316.281701 
L 171.040395 317.050982 
L 192.537237 317.818408 
L 214.034079 318.242306 
L 235.530921 317.803268 
L 257.027763 314.248079 
L 278.524605 312.008168 
L 300.021447 311.426799 
L 321.518289 307.694858 
L 343.015132 307.177016 
L 364.511974 306.754255 
L 386.008816 306.975071 
L 407.505658 315.542216 
L 429.0025 318.559962 
" style="fill:none;stroke:#008000;stroke-dasharray:1.5,2.475;stroke-dashoffset:0;stroke-width:1.5;"/>
   </g>
   <g id="line2d_114">
    <path clip-path="url(#pe6ccc6f639)" d="M 20.5625 299.417124 
L 42.059342 297.961841 
L 63.556184 296.347202 
L 85.053026 294.651639 
L 106.549868 292.589665 
L 128.046711 290.122318 
L 149.543553 287.474855 
L 171.040395 284.970909 
L 192.537237 282.893129 
L 214.034079 280.991893 
L 235.530921 279.30673 
L 257.027763 277.832374 
L 278.524605 276.325217 
L 300.021447 274.964524 
L 321.518289 273.731865 
L 343.015132 272.455052 
L 364.511974 270.88888 
L 386.008816 269.278566 
L 407.505658 267.23723 
L 429.0025 271.029903 
" style="fill:none;stroke:#000000;stroke-dasharray:5.55,2.4;stroke-dashoffset:0;stroke-width:1.5;"/>
   </g>
   <g id="line2d_115">
    <path clip-path="url(#pe6ccc6f639)" d="M 20.5625 308.750103 
L 42.059342 308.811137 
L 63.556184 308.870855 
L 85.053026 309.407861 
L 106.549868 310.044202 
L 128.046711 311.145181 
L 149.543553 312.545325 
L 171.040395 314.023922 
L 192.537237 315.053394 
L 214.034079 315.803066 
L 235.530921 316.42658 
L 257.027763 316.85424 
L 278.524605 317.279919 
L 300.021447 317.511745 
L 321.518289 317.631381 
L 343.015132 317.675103 
L 364.511974 317.658845 
L 386.008816 317.350732 
L 407.505658 316.551352 
L 429.0025 314.908664 
" style="fill:none;stroke:#000000;stroke-dasharray:1.5,2.475;stroke-dashoffset:0;stroke-width:1.5;"/>
   </g>
   <g id="patch_14">
    <path d="M 20.5625 322.23875 
L 20.5625 241.305417 
" style="fill:none;stroke:#000000;stroke-linecap:square;stroke-linejoin:miter;stroke-width:0.8;"/>
   </g>
   <g id="patch_15">
    <path d="M 429.0025 322.23875 
L 429.0025 241.305417 
" style="fill:none;stroke:#000000;stroke-linecap:square;stroke-linejoin:miter;stroke-width:0.8;"/>
   </g>
   <g id="patch_16">
    <path d="M 20.5625 322.23875 
L 429.0025 322.23875 
" style="fill:none;stroke:#000000;stroke-linecap:square;stroke-linejoin:miter;stroke-width:0.8;"/>
   </g>
   <g id="patch_17">
    <path d="M 20.5625 241.305417 
L 429.0025 241.305417 
" style="fill:none;stroke:#000000;stroke-linecap:square;stroke-linejoin:miter;stroke-width:0.8;"/>
   </g>
   <g id="text_49">
    <!-- c) centrality -->
    <defs>
     <path d="M 48.78125 52.59375 
L 48.78125 44.1875 
Q 44.96875 46.296875 41.140625 47.34375 
Q 37.3125 48.390625 33.40625 48.390625 
Q 24.65625 48.390625 19.8125 42.84375 
Q 14.984375 37.3125 14.984375 27.296875 
Q 14.984375 17.28125 19.8125 11.734375 
Q 24.65625 6.203125 33.40625 6.203125 
Q 37.3125 6.203125 41.140625 7.25 
Q 44.96875 8.296875 48.78125 10.40625 
L 48.78125 2.09375 
Q 45.015625 0.34375 40.984375 -0.53125 
Q 36.96875 -1.421875 32.421875 -1.421875 
Q 20.0625 -1.421875 12.78125 6.34375 
Q 5.515625 14.109375 5.515625 27.296875 
Q 5.515625 40.671875 12.859375 48.328125 
Q 20.21875 56 33.015625 56 
Q 37.15625 56 41.109375 55.140625 
Q 45.0625 54.296875 48.78125 52.59375 
z
" id="DejaVuSans-99"/>
     <path d="M 18.3125 70.21875 
L 18.3125 54.6875 
L 36.8125 54.6875 
L 36.8125 47.703125 
L 18.3125 47.703125 
L 18.3125 18.015625 
Q 18.3125 11.328125 20.140625 9.421875 
Q 21.96875 7.515625 27.59375 7.515625 
L 36.8125 7.515625 
L 36.8125 0 
L 27.59375 0 
Q 17.1875 0 13.234375 3.875 
Q 9.28125 7.765625 9.28125 18.015625 
L 9.28125 47.703125 
L 2.6875 47.703125 
L 2.6875 54.6875 
L 9.28125 54.6875 
L 9.28125 70.21875 
z
" id="DejaVuSans-116"/>
     <path d="M 9.421875 75.984375 
L 18.40625 75.984375 
L 18.40625 0 
L 9.421875 0 
z
" id="DejaVuSans-108"/>
     <path d="M 9.421875 54.6875 
L 18.40625 54.6875 
L 18.40625 0 
L 9.421875 0 
z
M 9.421875 75.984375 
L 18.40625 75.984375 
L 18.40625 64.59375 
L 9.421875 64.59375 
z
" id="DejaVuSans-105"/>
     <path d="M 32.171875 -5.078125 
Q 28.375 -14.84375 24.75 -17.8125 
Q 21.140625 -20.796875 15.09375 -20.796875 
L 7.90625 -20.796875 
L 7.90625 -13.28125 
L 13.1875 -13.28125 
Q 16.890625 -13.28125 18.9375 -11.515625 
Q 21 -9.765625 23.484375 -3.21875 
L 25.09375 0.875 
L 2.984375 54.6875 
L 12.5 54.6875 
L 29.59375 11.921875 
L 46.6875 54.6875 
L 56.203125 54.6875 
z
" id="DejaVuSans-121"/>
    </defs>
    <g transform="translate(200.73375 235.305417)scale(0.08 -0.08)">
     <use xlink:href="#DejaVuSans-99"/>
     <use x="54.980469" xlink:href="#DejaVuSans-41"/>
     <use x="93.994141" xlink:href="#DejaVuSans-32"/>
     <use x="125.78125" xlink:href="#DejaVuSans-99"/>
     <use x="180.761719" xlink:href="#DejaVuSans-101"/>
     <use x="242.285156" xlink:href="#DejaVuSans-110"/>
     <use x="305.664062" xlink:href="#DejaVuSans-116"/>
     <use x="344.873047" xlink:href="#DejaVuSans-114"/>
     <use x="385.986328" xlink:href="#DejaVuSans-97"/>
     <use x="447.265625" xlink:href="#DejaVuSans-108"/>
     <use x="475.048828" xlink:href="#DejaVuSans-105"/>
     <use x="502.832031" xlink:href="#DejaVuSans-116"/>
     <use x="542.041016" xlink:href="#DejaVuSans-121"/>
    </g>
   </g>
  </g>
 </g>
 <defs>
  <clipPath id="pb1a18968d4">
   <rect height="80.933333" width="408.44" x="20.5625" y="19.27875"/>
  </clipPath>
  <clipPath id="p1545cac260">
   <rect height="80.933333" width="408.44" x="20.5625" y="130.292083"/>
  </clipPath>
  <clipPath id="pe6ccc6f639">
   <rect height="80.933333" width="408.44" x="20.5625" y="241.305417"/>
  </clipPath>
 </defs>
</svg>
