<?xml version="1.0" encoding="utf-8" standalone="no"?>
<!DOCTYPE svg PUBLIC "-//W3C//DTD SVG 1.1//EN"
  "http://www.w3.org/Graphics/SVG/1.1/DTD/svg11.dtd">
<!-- Created with matplotlib (https://matplotlib.org/) -->
<svg height="300.720831pt" version="1.1" viewBox="0 0 482.062187 300.720831" width="482.062187pt" xmlns="http://www.w3.org/2000/svg" xmlns:xlink="http://www.w3.org/1999/xlink">
 <defs>
  <style type="text/css">
*{stroke-linecap:butt;stroke-linejoin:round;}
  </style>
 </defs>
 <g id="figure_1">
  <g id="patch_1">
   <path d="M 0 300.720831 
L 482.062187 300.720831 
L 482.062187 0 
L 0 0 
z
" style="fill:#ffffff;"/>
  </g>
  <g id="axes_1">
   <g id="patch_2">
    <path d="M 28.942188 131.690706 
L 191.26946 131.690706 
L 191.26946 10.730706 
L 28.942188 10.730706 
z
" style="fill:#ffffff;"/>
   </g>
   <g id="matplotlib.axis_1">
    <g id="xtick_1">
     <g id="line2d_1">
      <path clip-path="url(#p924695f91a)" d="M 36.3207 131.690706 
L 36.3207 10.730706 
" style="fill:none;stroke:#b0b0b0;stroke-linecap:square;stroke-width:0.8;"/>
     </g>
     <g id="line2d_2">
      <defs>
       <path d="M 0 0 
L 0 3.5 
" id="m2b57b61852" style="stroke:#000000;stroke-width:0.8;"/>
      </defs>
      <g>
       <use style="stroke:#000000;stroke-width:0.8;" x="36.3207" xlink:href="#m2b57b61852" y="131.690706"/>
      </g>
     </g>
     <g id="text_1">
      <!-- 0 -->
      <defs>
       <path d="M 31.78125 66.40625 
Q 24.171875 66.40625 20.328125 58.90625 
Q 16.5 51.421875 16.5 36.375 
Q 16.5 21.390625 20.328125 13.890625 
Q 24.171875 6.390625 31.78125 6.390625 
Q 39.453125 6.390625 43.28125 13.890625 
Q 47.125 21.390625 47.125 36.375 
Q 47.125 51.421875 43.28125 58.90625 
Q 39.453125 66.40625 31.78125 66.40625 
z
M 31.78125 74.21875 
Q 44.046875 74.21875 50.515625 64.515625 
Q 56.984375 54.828125 56.984375 36.375 
Q 56.984375 17.96875 50.515625 8.265625 
Q 44.046875 -1.421875 31.78125 -1.421875 
Q 19.53125 -1.421875 13.0625 8.265625 
Q 6.59375 17.96875 6.59375 36.375 
Q 6.59375 54.828125 13.0625 64.515625 
Q 19.53125 74.21875 31.78125 74.21875 
z
" id="DejaVuSans-48"/>
      </defs>
      <g transform="translate(33.13945 146.289144)scale(0.1 -0.1)">
       <use xlink:href="#DejaVuSans-48"/>
      </g>
     </g>
    </g>
    <g id="xtick_2">
     <g id="line2d_3">
      <path clip-path="url(#p924695f91a)" d="M 75.154976 131.690706 
L 75.154976 10.730706 
" style="fill:none;stroke:#b0b0b0;stroke-linecap:square;stroke-width:0.8;"/>
     </g>
     <g id="line2d_4">
      <g>
       <use style="stroke:#000000;stroke-width:0.8;" x="75.154976" xlink:href="#m2b57b61852" y="131.690706"/>
      </g>
     </g>
     <g id="text_2">
      <!-- 25 -->
      <defs>
       <path d="M 19.1875 8.296875 
L 53.609375 8.296875 
L 53.609375 0 
L 7.328125 0 
L 7.328125 8.296875 
Q 12.9375 14.109375 22.625 23.890625 
Q 32.328125 33.6875 34.8125 36.53125 
Q 39.546875 41.84375 41.421875 45.53125 
Q 43.3125 49.21875 43.3125 52.78125 
Q 43.3125 58.59375 39.234375 62.25 
Q 35.15625 65.921875 28.609375 65.921875 
Q 23.96875 65.921875 18.8125 64.3125 
Q 13.671875 62.703125 7.8125 59.421875 
L 7.8125 69.390625 
Q 13.765625 71.78125 18.9375 73 
Q 24.125 74.21875 28.421875 74.21875 
Q 39.75 74.21875 46.484375 68.546875 
Q 53.21875 62.890625 53.21875 53.421875 
Q 53.21875 48.921875 51.53125 44.890625 
Q 49.859375 40.875 45.40625 35.40625 
Q 44.1875 33.984375 37.640625 27.21875 
Q 31.109375 20.453125 19.1875 8.296875 
z
" id="DejaVuSans-50"/>
       <path d="M 10.796875 72.90625 
L 49.515625 72.90625 
L 49.515625 64.59375 
L 19.828125 64.59375 
L 19.828125 46.734375 
Q 21.96875 47.46875 24.109375 47.828125 
Q 26.265625 48.1875 28.421875 48.1875 
Q 40.625 48.1875 47.75 41.5 
Q 54.890625 34.8125 54.890625 23.390625 
Q 54.890625 11.625 47.5625 5.09375 
Q 40.234375 -1.421875 26.90625 -1.421875 
Q 22.3125 -1.421875 17.546875 -0.640625 
Q 12.796875 0.140625 7.71875 1.703125 
L 7.71875 11.625 
Q 12.109375 9.234375 16.796875 8.0625 
Q 21.484375 6.890625 26.703125 6.890625 
Q 35.15625 6.890625 40.078125 11.328125 
Q 45.015625 15.765625 45.015625 23.390625 
Q 45.015625 31 40.078125 35.4375 
Q 35.15625 39.890625 26.703125 39.890625 
Q 22.75 39.890625 18.8125 39.015625 
Q 14.890625 38.140625 10.796875 36.28125 
z
" id="DejaVuSans-53"/>
      </defs>
      <g transform="translate(68.792476 146.289144)scale(0.1 -0.1)">
       <use xlink:href="#DejaVuSans-50"/>
       <use x="63.623047" xlink:href="#DejaVuSans-53"/>
      </g>
     </g>
    </g>
    <g id="xtick_3">
     <g id="line2d_5">
      <path clip-path="url(#p924695f91a)" d="M 113.989251 131.690706 
L 113.989251 10.730706 
" style="fill:none;stroke:#b0b0b0;stroke-linecap:square;stroke-width:0.8;"/>
     </g>
     <g id="line2d_6">
      <g>
       <use style="stroke:#000000;stroke-width:0.8;" x="113.989251" xlink:href="#m2b57b61852" y="131.690706"/>
      </g>
     </g>
     <g id="text_3">
      <!-- 50 -->
      <g transform="translate(107.626751 146.289144)scale(0.1 -0.1)">
       <use xlink:href="#DejaVuSans-53"/>
       <use x="63.623047" xlink:href="#DejaVuSans-48"/>
      </g>
     </g>
    </g>
    <g id="xtick_4">
     <g id="line2d_7">
      <path clip-path="url(#p924695f91a)" d="M 152.823527 131.690706 
L 152.823527 10.730706 
" style="fill:none;stroke:#b0b0b0;stroke-linecap:square;stroke-width:0.8;"/>
     </g>
     <g id="line2d_8">
      <g>
       <use style="stroke:#000000;stroke-width:0.8;" x="152.823527" xlink:href="#m2b57b61852" y="131.690706"/>
      </g>
     </g>
     <g id="text_4">
      <!-- 75 -->
      <defs>
       <path d="M 8.203125 72.90625 
L 55.078125 72.90625 
L 55.078125 68.703125 
L 28.609375 0 
L 18.3125 0 
L 43.21875 64.59375 
L 8.203125 64.59375 
z
" id="DejaVuSans-55"/>
      </defs>
      <g transform="translate(146.461027 146.289144)scale(0.1 -0.1)">
       <use xlink:href="#DejaVuSans-55"/>
       <use x="63.623047" xlink:href="#DejaVuSans-53"/>
      </g>
     </g>
    </g>
    <g id="xtick_5">
     <g id="line2d_9">
      <path clip-path="url(#p924695f91a)" d="M 191.657803 131.690706 
L 191.657803 10.730706 
" style="fill:none;stroke:#b0b0b0;stroke-linecap:square;stroke-width:0.8;"/>
     </g>
     <g id="line2d_10">
      <g>
       <use style="stroke:#000000;stroke-width:0.8;" x="191.657803" xlink:href="#m2b57b61852" y="131.690706"/>
      </g>
     </g>
     <g id="text_5">
      <!-- 100 -->
      <defs>
       <path d="M 12.40625 8.296875 
L 28.515625 8.296875 
L 28.515625 63.921875 
L 10.984375 60.40625 
L 10.984375 69.390625 
L 28.421875 72.90625 
L 38.28125 72.90625 
L 38.28125 8.296875 
L 54.390625 8.296875 
L 54.390625 0 
L 12.40625 0 
z
" id="DejaVuSans-49"/>
      </defs>
      <g transform="translate(182.114053 146.289144)scale(0.1 -0.1)">
       <use xlink:href="#DejaVuSans-49"/>
       <use x="63.623047" xlink:href="#DejaVuSans-48"/>
       <use x="127.246094" xlink:href="#DejaVuSans-48"/>
      </g>
     </g>
    </g>
   </g>
   <g id="matplotlib.axis_2">
    <g id="ytick_1">
     <g id="line2d_11">
      <path clip-path="url(#p924695f91a)" d="M 28.942188 109.374916 
L 191.26946 109.374916 
" style="fill:none;stroke:#b0b0b0;stroke-linecap:square;stroke-width:0.8;"/>
     </g>
     <g id="line2d_12">
      <defs>
       <path d="M 0 0 
L -3.5 0 
" id="mafd6172eda" style="stroke:#000000;stroke-width:0.8;"/>
      </defs>
      <g>
       <use style="stroke:#000000;stroke-width:0.8;" x="28.942188" xlink:href="#mafd6172eda" y="109.374916"/>
      </g>
     </g>
     <g id="text_6">
      <!-- −1 -->
      <defs>
       <path d="M 10.59375 35.5 
L 73.1875 35.5 
L 73.1875 27.203125 
L 10.59375 27.203125 
z
" id="DejaVuSans-8722"/>
      </defs>
      <g transform="translate(7.2 113.174135)scale(0.1 -0.1)">
       <use xlink:href="#DejaVuSans-8722"/>
       <use x="83.789062" xlink:href="#DejaVuSans-49"/>
      </g>
     </g>
    </g>
    <g id="ytick_2">
     <g id="line2d_13">
      <path clip-path="url(#p924695f91a)" d="M 28.942188 76.583017 
L 191.26946 76.583017 
" style="fill:none;stroke:#b0b0b0;stroke-linecap:square;stroke-width:0.8;"/>
     </g>
     <g id="line2d_14">
      <g>
       <use style="stroke:#000000;stroke-width:0.8;" x="28.942188" xlink:href="#mafd6172eda" y="76.583017"/>
      </g>
     </g>
     <g id="text_7">
      <!-- 0 -->
      <g transform="translate(15.579688 80.382236)scale(0.1 -0.1)">
       <use xlink:href="#DejaVuSans-48"/>
      </g>
     </g>
    </g>
    <g id="ytick_3">
     <g id="line2d_15">
      <path clip-path="url(#p924695f91a)" d="M 28.942188 43.791118 
L 191.26946 43.791118 
" style="fill:none;stroke:#b0b0b0;stroke-linecap:square;stroke-width:0.8;"/>
     </g>
     <g id="line2d_16">
      <g>
       <use style="stroke:#000000;stroke-width:0.8;" x="28.942188" xlink:href="#mafd6172eda" y="43.791118"/>
      </g>
     </g>
     <g id="text_8">
      <!-- 1 -->
      <g transform="translate(15.579688 47.590337)scale(0.1 -0.1)">
       <use xlink:href="#DejaVuSans-49"/>
      </g>
     </g>
    </g>
    <g id="ytick_4">
     <g id="line2d_17">
      <path clip-path="url(#p924695f91a)" d="M 28.942188 10.999219 
L 191.26946 10.999219 
" style="fill:none;stroke:#b0b0b0;stroke-linecap:square;stroke-width:0.8;"/>
     </g>
     <g id="line2d_18">
      <g>
       <use style="stroke:#000000;stroke-width:0.8;" x="28.942188" xlink:href="#mafd6172eda" y="10.999219"/>
      </g>
     </g>
     <g id="text_9">
      <!-- 2 -->
      <g transform="translate(15.579688 14.798438)scale(0.1 -0.1)">
       <use xlink:href="#DejaVuSans-50"/>
      </g>
     </g>
    </g>
   </g>
   <g id="line2d_19">
    <path clip-path="url(#p924695f91a)" d="M 36.3207 44.894955 
L 44.087555 44.874164 
L 51.85441 44.685546 
L 59.621265 44.783682 
L 67.388121 44.586706 
L 75.154976 44.745874 
L 82.921831 45.162882 
L 90.688686 44.934552 
L 98.455541 44.919235 
L 106.222396 44.916057 
L 113.989251 45.581246 
L 121.756107 45.666801 
L 129.522962 45.555964 
L 137.289817 45.848417 
L 145.056672 46.290712 
L 152.823527 45.446099 
L 160.590382 46.077452 
L 168.357238 46.835157 
L 176.124093 48.781064 
L 183.890948 54.032927 
" style="fill:none;stroke:#ff0000;stroke-linecap:square;stroke-width:1.5;"/>
   </g>
   <g id="line2d_20">
    <path clip-path="url(#p924695f91a)" d="M 36.3207 45.022981 
L 44.087555 40.138501 
L 51.85441 36.464803 
L 59.621265 33.28459 
L 67.388121 30.866225 
L 75.154976 28.583841 
L 82.921831 26.800697 
L 90.688686 25.070137 
L 98.455541 23.644523 
L 106.222396 22.436553 
L 113.989251 21.024424 
L 121.756107 19.882167 
L 129.522962 18.643422 
L 137.289817 17.269343 
L 145.056672 16.228888 
L 152.823527 16.964813 
L 160.590382 25.651545 
L 168.357238 49.920583 
L 176.124093 101.478007 
L 183.890948 126.192525 
" style="fill:none;stroke:#008000;stroke-linecap:square;stroke-width:1.5;"/>
   </g>
   <g id="line2d_21">
    <path clip-path="url(#p924695f91a)" d="M 36.3207 44.851412 
L 44.087555 40.280524 
L 51.85441 36.265436 
L 59.621265 33.308053 
L 67.388121 30.749537 
L 75.154976 28.736814 
L 82.921831 26.79708 
L 90.688686 25.220914 
L 98.455541 23.754567 
L 106.222396 22.516577 
L 113.989251 21.352672 
L 121.756107 20.163343 
L 129.522962 19.120174 
L 137.289817 17.998259 
L 145.056672 17.130109 
L 152.823527 17.238428 
L 160.590382 22.244579 
L 168.357238 38.274348 
L 176.124093 64.102675 
L 183.890948 92.29761 
" style="fill:none;stroke:#0000ff;stroke-linecap:square;stroke-width:1.5;"/>
   </g>
   <g id="patch_3">
    <path d="M 28.942188 131.690706 
L 28.942188 10.730706 
" style="fill:none;stroke:#000000;stroke-linecap:square;stroke-linejoin:miter;stroke-width:0.8;"/>
   </g>
   <g id="patch_4">
    <path d="M 191.26946 131.690706 
L 191.26946 10.730706 
" style="fill:none;stroke:#000000;stroke-linecap:square;stroke-linejoin:miter;stroke-width:0.8;"/>
   </g>
   <g id="patch_5">
    <path d="M 28.942188 131.690706 
L 191.26946 131.690706 
" style="fill:none;stroke:#000000;stroke-linecap:square;stroke-linejoin:miter;stroke-width:0.8;"/>
   </g>
   <g id="patch_6">
    <path d="M 28.942188 10.730706 
L 191.26946 10.730706 
" style="fill:none;stroke:#000000;stroke-linecap:square;stroke-linejoin:miter;stroke-width:0.8;"/>
   </g>
   <g id="legend_1">
    <g id="patch_7">
     <path d="M 196.86946 54.810706 
L 278.46946 54.810706 
Q 280.06946 54.810706 280.06946 53.210706 
L 280.06946 16.330706 
Q 280.06946 14.730706 278.46946 14.730706 
L 196.86946 14.730706 
Q 195.26946 14.730706 195.26946 16.330706 
L 195.26946 53.210706 
Q 195.26946 54.810706 196.86946 54.810706 
z
" style="fill:#ffffff;opacity:0.8;stroke:#cccccc;stroke-linejoin:miter;"/>
    </g>
    <g id="line2d_22">
     <path d="M 198.46946 21.210706 
L 214.46946 21.210706 
" style="fill:none;stroke:#ff0000;stroke-linecap:square;stroke-width:1.5;"/>
    </g>
    <g id="line2d_23"/>
    <g id="text_10">
     <!-- $\Delta D_q$ random -->
     <defs>
      <path d="M 34.1875 63.1875 
L 14.15625 8.203125 
L 54.25 8.203125 
z
M 0.78125 0 
L 28.609375 72.90625 
L 39.796875 72.90625 
L 67.578125 0 
z
" id="DejaVuSans-916"/>
      <path d="M 16.890625 72.90625 
L 38.09375 72.90625 
Q 54.984375 72.90625 63.59375 65.75 
Q 72.21875 58.59375 72.21875 44.484375 
Q 72.21875 35.15625 68.9375 26.53125 
Q 65.671875 17.921875 59.90625 12.015625 
Q 54.109375 5.953125 45.171875 2.96875 
Q 36.234375 0 24.03125 0 
L 2.6875 0 
z
M 25.203125 64.796875 
L 14.203125 8.109375 
L 27.09375 8.109375 
Q 43.65625 8.109375 52.734375 17.625 
Q 61.8125 27.15625 61.8125 44.484375 
Q 61.8125 54.984375 55.953125 59.890625 
Q 50.09375 64.796875 37.59375 64.796875 
z
" id="DejaVuSans-Oblique-68"/>
      <path d="M 41.703125 8.203125 
Q 38.09375 3.46875 33.171875 1.015625 
Q 28.265625 -1.421875 22.3125 -1.421875 
Q 14.015625 -1.421875 9.296875 4.171875 
Q 4.59375 9.765625 4.59375 19.578125 
Q 4.59375 27.484375 7.5 34.859375 
Q 10.40625 42.234375 15.828125 48.09375 
Q 19.34375 51.90625 23.90625 53.953125 
Q 28.46875 56 33.5 56 
Q 39.546875 56 43.453125 53.609375 
Q 47.359375 51.21875 49.125 46.390625 
L 50.6875 54.59375 
L 59.71875 54.59375 
L 45.125 -20.609375 
L 36.078125 -20.609375 
z
M 13.921875 20.90625 
Q 13.921875 13.671875 16.9375 9.890625 
Q 19.96875 6.109375 25.6875 6.109375 
Q 34.1875 6.109375 40.1875 14.234375 
Q 46.1875 22.359375 46.1875 33.984375 
Q 46.1875 41.015625 43.078125 44.75 
Q 39.984375 48.484375 34.1875 48.484375 
Q 29.9375 48.484375 26.3125 46.5 
Q 22.703125 44.53125 20.015625 40.71875 
Q 17.1875 36.71875 15.546875 31.34375 
Q 13.921875 25.984375 13.921875 20.90625 
z
" id="DejaVuSans-Oblique-113"/>
      <path id="DejaVuSans-32"/>
      <path d="M 41.109375 46.296875 
Q 39.59375 47.171875 37.8125 47.578125 
Q 36.03125 48 33.890625 48 
Q 26.265625 48 22.1875 43.046875 
Q 18.109375 38.09375 18.109375 28.8125 
L 18.109375 0 
L 9.078125 0 
L 9.078125 54.6875 
L 18.109375 54.6875 
L 18.109375 46.1875 
Q 20.953125 51.171875 25.484375 53.578125 
Q 30.03125 56 36.53125 56 
Q 37.453125 56 38.578125 55.875 
Q 39.703125 55.765625 41.0625 55.515625 
z
" id="DejaVuSans-114"/>
      <path d="M 34.28125 27.484375 
Q 23.390625 27.484375 19.1875 25 
Q 14.984375 22.515625 14.984375 16.5 
Q 14.984375 11.71875 18.140625 8.90625 
Q 21.296875 6.109375 26.703125 6.109375 
Q 34.1875 6.109375 38.703125 11.40625 
Q 43.21875 16.703125 43.21875 25.484375 
L 43.21875 27.484375 
z
M 52.203125 31.203125 
L 52.203125 0 
L 43.21875 0 
L 43.21875 8.296875 
Q 40.140625 3.328125 35.546875 0.953125 
Q 30.953125 -1.421875 24.3125 -1.421875 
Q 15.921875 -1.421875 10.953125 3.296875 
Q 6 8.015625 6 15.921875 
Q 6 25.140625 12.171875 29.828125 
Q 18.359375 34.515625 30.609375 34.515625 
L 43.21875 34.515625 
L 43.21875 35.40625 
Q 43.21875 41.609375 39.140625 45 
Q 35.0625 48.390625 27.6875 48.390625 
Q 23 48.390625 18.546875 47.265625 
Q 14.109375 46.140625 10.015625 43.890625 
L 10.015625 52.203125 
Q 14.9375 54.109375 19.578125 55.046875 
Q 24.21875 56 28.609375 56 
Q 40.484375 56 46.34375 49.84375 
Q 52.203125 43.703125 52.203125 31.203125 
z
" id="DejaVuSans-97"/>
      <path d="M 54.890625 33.015625 
L 54.890625 0 
L 45.90625 0 
L 45.90625 32.71875 
Q 45.90625 40.484375 42.875 44.328125 
Q 39.84375 48.1875 33.796875 48.1875 
Q 26.515625 48.1875 22.3125 43.546875 
Q 18.109375 38.921875 18.109375 30.90625 
L 18.109375 0 
L 9.078125 0 
L 9.078125 54.6875 
L 18.109375 54.6875 
L 18.109375 46.1875 
Q 21.34375 51.125 25.703125 53.5625 
Q 30.078125 56 35.796875 56 
Q 45.21875 56 50.046875 50.171875 
Q 54.890625 44.34375 54.890625 33.015625 
z
" id="DejaVuSans-110"/>
      <path d="M 45.40625 46.390625 
L 45.40625 75.984375 
L 54.390625 75.984375 
L 54.390625 0 
L 45.40625 0 
L 45.40625 8.203125 
Q 42.578125 3.328125 38.25 0.953125 
Q 33.9375 -1.421875 27.875 -1.421875 
Q 17.96875 -1.421875 11.734375 6.484375 
Q 5.515625 14.40625 5.515625 27.296875 
Q 5.515625 40.1875 11.734375 48.09375 
Q 17.96875 56 27.875 56 
Q 33.9375 56 38.25 53.625 
Q 42.578125 51.265625 45.40625 46.390625 
z
M 14.796875 27.296875 
Q 14.796875 17.390625 18.875 11.75 
Q 22.953125 6.109375 30.078125 6.109375 
Q 37.203125 6.109375 41.296875 11.75 
Q 45.40625 17.390625 45.40625 27.296875 
Q 45.40625 37.203125 41.296875 42.84375 
Q 37.203125 48.484375 30.078125 48.484375 
Q 22.953125 48.484375 18.875 42.84375 
Q 14.796875 37.203125 14.796875 27.296875 
z
" id="DejaVuSans-100"/>
      <path d="M 30.609375 48.390625 
Q 23.390625 48.390625 19.1875 42.75 
Q 14.984375 37.109375 14.984375 27.296875 
Q 14.984375 17.484375 19.15625 11.84375 
Q 23.34375 6.203125 30.609375 6.203125 
Q 37.796875 6.203125 41.984375 11.859375 
Q 46.1875 17.53125 46.1875 27.296875 
Q 46.1875 37.015625 41.984375 42.703125 
Q 37.796875 48.390625 30.609375 48.390625 
z
M 30.609375 56 
Q 42.328125 56 49.015625 48.375 
Q 55.71875 40.765625 55.71875 27.296875 
Q 55.71875 13.875 49.015625 6.21875 
Q 42.328125 -1.421875 30.609375 -1.421875 
Q 18.84375 -1.421875 12.171875 6.21875 
Q 5.515625 13.875 5.515625 27.296875 
Q 5.515625 40.765625 12.171875 48.375 
Q 18.84375 56 30.609375 56 
z
" id="DejaVuSans-111"/>
      <path d="M 52 44.1875 
Q 55.375 50.25 60.0625 53.125 
Q 64.75 56 71.09375 56 
Q 79.640625 56 84.28125 50.015625 
Q 88.921875 44.046875 88.921875 33.015625 
L 88.921875 0 
L 79.890625 0 
L 79.890625 32.71875 
Q 79.890625 40.578125 77.09375 44.375 
Q 74.3125 48.1875 68.609375 48.1875 
Q 61.625 48.1875 57.5625 43.546875 
Q 53.515625 38.921875 53.515625 30.90625 
L 53.515625 0 
L 44.484375 0 
L 44.484375 32.71875 
Q 44.484375 40.625 41.703125 44.40625 
Q 38.921875 48.1875 33.109375 48.1875 
Q 26.21875 48.1875 22.15625 43.53125 
Q 18.109375 38.875 18.109375 30.90625 
L 18.109375 0 
L 9.078125 0 
L 9.078125 54.6875 
L 18.109375 54.6875 
L 18.109375 46.1875 
Q 21.1875 51.21875 25.484375 53.609375 
Q 29.78125 56 35.6875 56 
Q 41.65625 56 45.828125 52.96875 
Q 50 49.953125 52 44.1875 
z
" id="DejaVuSans-109"/>
     </defs>
     <g transform="translate(220.86946 24.010706)scale(0.08 -0.08)">
      <use transform="translate(0 0.015625)" xlink:href="#DejaVuSans-916"/>
      <use transform="translate(68.408203 0.015625)" xlink:href="#DejaVuSans-Oblique-68"/>
      <use transform="translate(145.410156 -16.390625)scale(0.7)" xlink:href="#DejaVuSans-Oblique-113"/>
      <use transform="translate(192.578125 0.015625)" xlink:href="#DejaVuSans-32"/>
      <use transform="translate(224.365234 0.015625)" xlink:href="#DejaVuSans-114"/>
      <use transform="translate(265.478516 0.015625)" xlink:href="#DejaVuSans-97"/>
      <use transform="translate(326.757812 0.015625)" xlink:href="#DejaVuSans-110"/>
      <use transform="translate(390.136719 0.015625)" xlink:href="#DejaVuSans-100"/>
      <use transform="translate(453.613281 0.015625)" xlink:href="#DejaVuSans-111"/>
      <use transform="translate(514.794922 0.015625)" xlink:href="#DejaVuSans-109"/>
     </g>
    </g>
    <g id="line2d_24">
     <path d="M 198.46946 33.770706 
L 214.46946 33.770706 
" style="fill:none;stroke:#008000;stroke-linecap:square;stroke-width:1.5;"/>
    </g>
    <g id="line2d_25"/>
    <g id="text_11">
     <!-- $\Delta D_q$ degree -->
     <defs>
      <path d="M 56.203125 29.59375 
L 56.203125 25.203125 
L 14.890625 25.203125 
Q 15.484375 15.921875 20.484375 11.0625 
Q 25.484375 6.203125 34.421875 6.203125 
Q 39.59375 6.203125 44.453125 7.46875 
Q 49.3125 8.734375 54.109375 11.28125 
L 54.109375 2.78125 
Q 49.265625 0.734375 44.1875 -0.34375 
Q 39.109375 -1.421875 33.890625 -1.421875 
Q 20.796875 -1.421875 13.15625 6.1875 
Q 5.515625 13.8125 5.515625 26.8125 
Q 5.515625 40.234375 12.765625 48.109375 
Q 20.015625 56 32.328125 56 
Q 43.359375 56 49.78125 48.890625 
Q 56.203125 41.796875 56.203125 29.59375 
z
M 47.21875 32.234375 
Q 47.125 39.59375 43.09375 43.984375 
Q 39.0625 48.390625 32.421875 48.390625 
Q 24.90625 48.390625 20.390625 44.140625 
Q 15.875 39.890625 15.1875 32.171875 
z
" id="DejaVuSans-101"/>
      <path d="M 45.40625 27.984375 
Q 45.40625 37.75 41.375 43.109375 
Q 37.359375 48.484375 30.078125 48.484375 
Q 22.859375 48.484375 18.828125 43.109375 
Q 14.796875 37.75 14.796875 27.984375 
Q 14.796875 18.265625 18.828125 12.890625 
Q 22.859375 7.515625 30.078125 7.515625 
Q 37.359375 7.515625 41.375 12.890625 
Q 45.40625 18.265625 45.40625 27.984375 
z
M 54.390625 6.78125 
Q 54.390625 -7.171875 48.1875 -13.984375 
Q 42 -20.796875 29.203125 -20.796875 
Q 24.46875 -20.796875 20.265625 -20.09375 
Q 16.0625 -19.390625 12.109375 -17.921875 
L 12.109375 -9.1875 
Q 16.0625 -11.328125 19.921875 -12.34375 
Q 23.78125 -13.375 27.78125 -13.375 
Q 36.625 -13.375 41.015625 -8.765625 
Q 45.40625 -4.15625 45.40625 5.171875 
L 45.40625 9.625 
Q 42.625 4.78125 38.28125 2.390625 
Q 33.9375 0 27.875 0 
Q 17.828125 0 11.671875 7.65625 
Q 5.515625 15.328125 5.515625 27.984375 
Q 5.515625 40.671875 11.671875 48.328125 
Q 17.828125 56 27.875 56 
Q 33.9375 56 38.28125 53.609375 
Q 42.625 51.21875 45.40625 46.390625 
L 45.40625 54.6875 
L 54.390625 54.6875 
z
" id="DejaVuSans-103"/>
     </defs>
     <g transform="translate(220.86946 36.570706)scale(0.08 -0.08)">
      <use transform="translate(0 0.015625)" xlink:href="#DejaVuSans-916"/>
      <use transform="translate(68.408203 0.015625)" xlink:href="#DejaVuSans-Oblique-68"/>
      <use transform="translate(145.410156 -16.390625)scale(0.7)" xlink:href="#DejaVuSans-Oblique-113"/>
      <use transform="translate(192.578125 0.015625)" xlink:href="#DejaVuSans-32"/>
      <use transform="translate(224.365234 0.015625)" xlink:href="#DejaVuSans-100"/>
      <use transform="translate(287.841797 0.015625)" xlink:href="#DejaVuSans-101"/>
      <use transform="translate(349.365234 0.015625)" xlink:href="#DejaVuSans-103"/>
      <use transform="translate(412.841797 0.015625)" xlink:href="#DejaVuSans-114"/>
      <use transform="translate(453.955078 0.015625)" xlink:href="#DejaVuSans-101"/>
      <use transform="translate(515.478516 0.015625)" xlink:href="#DejaVuSans-101"/>
     </g>
    </g>
    <g id="line2d_26">
     <path d="M 198.46946 46.330706 
L 214.46946 46.330706 
" style="fill:none;stroke:#0000ff;stroke-linecap:square;stroke-width:1.5;"/>
    </g>
    <g id="line2d_27"/>
    <g id="text_12">
     <!-- $\Delta D_q$ centrality -->
     <defs>
      <path d="M 48.78125 52.59375 
L 48.78125 44.1875 
Q 44.96875 46.296875 41.140625 47.34375 
Q 37.3125 48.390625 33.40625 48.390625 
Q 24.65625 48.390625 19.8125 42.84375 
Q 14.984375 37.3125 14.984375 27.296875 
Q 14.984375 17.28125 19.8125 11.734375 
Q 24.65625 6.203125 33.40625 6.203125 
Q 37.3125 6.203125 41.140625 7.25 
Q 44.96875 8.296875 48.78125 10.40625 
L 48.78125 2.09375 
Q 45.015625 0.34375 40.984375 -0.53125 
Q 36.96875 -1.421875 32.421875 -1.421875 
Q 20.0625 -1.421875 12.78125 6.34375 
Q 5.515625 14.109375 5.515625 27.296875 
Q 5.515625 40.671875 12.859375 48.328125 
Q 20.21875 56 33.015625 56 
Q 37.15625 56 41.109375 55.140625 
Q 45.0625 54.296875 48.78125 52.59375 
z
" id="DejaVuSans-99"/>
      <path d="M 18.3125 70.21875 
L 18.3125 54.6875 
L 36.8125 54.6875 
L 36.8125 47.703125 
L 18.3125 47.703125 
L 18.3125 18.015625 
Q 18.3125 11.328125 20.140625 9.421875 
Q 21.96875 7.515625 27.59375 7.515625 
L 36.8125 7.515625 
L 36.8125 0 
L 27.59375 0 
Q 17.1875 0 13.234375 3.875 
Q 9.28125 7.765625 9.28125 18.015625 
L 9.28125 47.703125 
L 2.6875 47.703125 
L 2.6875 54.6875 
L 9.28125 54.6875 
L 9.28125 70.21875 
z
" id="DejaVuSans-116"/>
      <path d="M 9.421875 75.984375 
L 18.40625 75.984375 
L 18.40625 0 
L 9.421875 0 
z
" id="DejaVuSans-108"/>
      <path d="M 9.421875 54.6875 
L 18.40625 54.6875 
L 18.40625 0 
L 9.421875 0 
z
M 9.421875 75.984375 
L 18.40625 75.984375 
L 18.40625 64.59375 
L 9.421875 64.59375 
z
" id="DejaVuSans-105"/>
      <path d="M 32.171875 -5.078125 
Q 28.375 -14.84375 24.75 -17.8125 
Q 21.140625 -20.796875 15.09375 -20.796875 
L 7.90625 -20.796875 
L 7.90625 -13.28125 
L 13.1875 -13.28125 
Q 16.890625 -13.28125 18.9375 -11.515625 
Q 21 -9.765625 23.484375 -3.21875 
L 25.09375 0.875 
L 2.984375 54.6875 
L 12.5 54.6875 
L 29.59375 11.921875 
L 46.6875 54.6875 
L 56.203125 54.6875 
z
" id="DejaVuSans-121"/>
     </defs>
     <g transform="translate(220.86946 49.130706)scale(0.08 -0.08)">
      <use transform="translate(0 0.015625)" xlink:href="#DejaVuSans-916"/>
      <use transform="translate(68.408203 0.015625)" xlink:href="#DejaVuSans-Oblique-68"/>
      <use transform="translate(145.410156 -16.390625)scale(0.7)" xlink:href="#DejaVuSans-Oblique-113"/>
      <use transform="translate(192.578125 0.015625)" xlink:href="#DejaVuSans-32"/>
      <use transform="translate(224.365234 0.015625)" xlink:href="#DejaVuSans-99"/>
      <use transform="translate(279.345703 0.015625)" xlink:href="#DejaVuSans-101"/>
      <use transform="translate(340.869141 0.015625)" xlink:href="#DejaVuSans-110"/>
      <use transform="translate(404.248047 0.015625)" xlink:href="#DejaVuSans-116"/>
      <use transform="translate(443.457031 0.015625)" xlink:href="#DejaVuSans-114"/>
      <use transform="translate(484.570312 0.015625)" xlink:href="#DejaVuSans-97"/>
      <use transform="translate(545.849609 0.015625)" xlink:href="#DejaVuSans-108"/>
      <use transform="translate(573.632812 0.015625)" xlink:href="#DejaVuSans-105"/>
      <use transform="translate(601.416016 0.015625)" xlink:href="#DejaVuSans-116"/>
      <use transform="translate(640.625 0.015625)" xlink:href="#DejaVuSans-121"/>
     </g>
    </g>
   </g>
  </g>
  <g id="axes_2">
   <g id="patch_8">
    <path d="M 223.734915 131.690706 
L 386.062187 131.690706 
L 386.062187 10.730706 
L 223.734915 10.730706 
z
" style="fill:#ffffff;"/>
   </g>
   <g id="matplotlib.axis_3">
    <g id="xtick_6">
     <g id="line2d_28">
      <path clip-path="url(#pa56a7eb5a0)" d="M 231.113427 131.690706 
L 231.113427 10.730706 
" style="fill:none;stroke:#b0b0b0;stroke-linecap:square;stroke-width:0.8;"/>
     </g>
     <g id="line2d_29">
      <g>
       <use style="stroke:#000000;stroke-width:0.8;" x="231.113427" xlink:href="#m2b57b61852" y="131.690706"/>
      </g>
     </g>
     <g id="text_13">
      <!-- 0 -->
      <g transform="translate(227.932177 146.289144)scale(0.1 -0.1)">
       <use xlink:href="#DejaVuSans-48"/>
      </g>
     </g>
    </g>
    <g id="xtick_7">
     <g id="line2d_30">
      <path clip-path="url(#pa56a7eb5a0)" d="M 269.947703 131.690706 
L 269.947703 10.730706 
" style="fill:none;stroke:#b0b0b0;stroke-linecap:square;stroke-width:0.8;"/>
     </g>
     <g id="line2d_31">
      <g>
       <use style="stroke:#000000;stroke-width:0.8;" x="269.947703" xlink:href="#m2b57b61852" y="131.690706"/>
      </g>
     </g>
     <g id="text_14">
      <!-- 25 -->
      <g transform="translate(263.585203 146.289144)scale(0.1 -0.1)">
       <use xlink:href="#DejaVuSans-50"/>
       <use x="63.623047" xlink:href="#DejaVuSans-53"/>
      </g>
     </g>
    </g>
    <g id="xtick_8">
     <g id="line2d_32">
      <path clip-path="url(#pa56a7eb5a0)" d="M 308.781979 131.690706 
L 308.781979 10.730706 
" style="fill:none;stroke:#b0b0b0;stroke-linecap:square;stroke-width:0.8;"/>
     </g>
     <g id="line2d_33">
      <g>
       <use style="stroke:#000000;stroke-width:0.8;" x="308.781979" xlink:href="#m2b57b61852" y="131.690706"/>
      </g>
     </g>
     <g id="text_15">
      <!-- 50 -->
      <g transform="translate(302.419479 146.289144)scale(0.1 -0.1)">
       <use xlink:href="#DejaVuSans-53"/>
       <use x="63.623047" xlink:href="#DejaVuSans-48"/>
      </g>
     </g>
    </g>
    <g id="xtick_9">
     <g id="line2d_34">
      <path clip-path="url(#pa56a7eb5a0)" d="M 347.616254 131.690706 
L 347.616254 10.730706 
" style="fill:none;stroke:#b0b0b0;stroke-linecap:square;stroke-width:0.8;"/>
     </g>
     <g id="line2d_35">
      <g>
       <use style="stroke:#000000;stroke-width:0.8;" x="347.616254" xlink:href="#m2b57b61852" y="131.690706"/>
      </g>
     </g>
     <g id="text_16">
      <!-- 75 -->
      <g transform="translate(341.253754 146.289144)scale(0.1 -0.1)">
       <use xlink:href="#DejaVuSans-55"/>
       <use x="63.623047" xlink:href="#DejaVuSans-53"/>
      </g>
     </g>
    </g>
    <g id="xtick_10">
     <g id="line2d_36">
      <path clip-path="url(#pa56a7eb5a0)" d="M 386.45053 131.690706 
L 386.45053 10.730706 
" style="fill:none;stroke:#b0b0b0;stroke-linecap:square;stroke-width:0.8;"/>
     </g>
     <g id="line2d_37">
      <g>
       <use style="stroke:#000000;stroke-width:0.8;" x="386.45053" xlink:href="#m2b57b61852" y="131.690706"/>
      </g>
     </g>
     <g id="text_17">
      <!-- 100 -->
      <g transform="translate(376.90678 146.289144)scale(0.1 -0.1)">
       <use xlink:href="#DejaVuSans-49"/>
       <use x="63.623047" xlink:href="#DejaVuSans-48"/>
       <use x="127.246094" xlink:href="#DejaVuSans-48"/>
      </g>
     </g>
    </g>
   </g>
   <g id="matplotlib.axis_4">
    <g id="ytick_5">
     <g id="line2d_38">
      <path clip-path="url(#pa56a7eb5a0)" d="M 223.734915 121.012097 
L 386.062187 121.012097 
" style="fill:none;stroke:#b0b0b0;stroke-linecap:square;stroke-width:0.8;"/>
     </g>
     <g id="line2d_39">
      <g>
       <use style="stroke:#000000;stroke-width:0.8;" x="223.734915" xlink:href="#mafd6172eda" y="121.012097"/>
      </g>
     </g>
     <g id="text_18">
      <!-- −1 -->
      <g transform="translate(201.992727 124.811316)scale(0.1 -0.1)">
       <use xlink:href="#DejaVuSans-8722"/>
       <use x="83.789062" xlink:href="#DejaVuSans-49"/>
      </g>
     </g>
    </g>
    <g id="ytick_6">
     <g id="line2d_40">
      <path clip-path="url(#pa56a7eb5a0)" d="M 223.734915 88.733547 
L 386.062187 88.733547 
" style="fill:none;stroke:#b0b0b0;stroke-linecap:square;stroke-width:0.8;"/>
     </g>
     <g id="line2d_41">
      <g>
       <use style="stroke:#000000;stroke-width:0.8;" x="223.734915" xlink:href="#mafd6172eda" y="88.733547"/>
      </g>
     </g>
     <g id="text_19">
      <!-- 0 -->
      <g transform="translate(210.372415 92.532766)scale(0.1 -0.1)">
       <use xlink:href="#DejaVuSans-48"/>
      </g>
     </g>
    </g>
    <g id="ytick_7">
     <g id="line2d_42">
      <path clip-path="url(#pa56a7eb5a0)" d="M 223.734915 56.454997 
L 386.062187 56.454997 
" style="fill:none;stroke:#b0b0b0;stroke-linecap:square;stroke-width:0.8;"/>
     </g>
     <g id="line2d_43">
      <g>
       <use style="stroke:#000000;stroke-width:0.8;" x="223.734915" xlink:href="#mafd6172eda" y="56.454997"/>
      </g>
     </g>
     <g id="text_20">
      <!-- 1 -->
      <g transform="translate(210.372415 60.254216)scale(0.1 -0.1)">
       <use xlink:href="#DejaVuSans-49"/>
      </g>
     </g>
    </g>
    <g id="ytick_8">
     <g id="line2d_44">
      <path clip-path="url(#pa56a7eb5a0)" d="M 223.734915 24.176448 
L 386.062187 24.176448 
" style="fill:none;stroke:#b0b0b0;stroke-linecap:square;stroke-width:0.8;"/>
     </g>
     <g id="line2d_45">
      <g>
       <use style="stroke:#000000;stroke-width:0.8;" x="223.734915" xlink:href="#mafd6172eda" y="24.176448"/>
      </g>
     </g>
     <g id="text_21">
      <!-- 2 -->
      <g transform="translate(210.372415 27.975666)scale(0.1 -0.1)">
       <use xlink:href="#DejaVuSans-50"/>
      </g>
     </g>
    </g>
   </g>
   <g id="line2d_46">
    <path clip-path="url(#pa56a7eb5a0)" d="M 231.113427 55.11431 
L 238.880282 55.157582 
L 246.647137 54.903398 
L 254.413993 54.451788 
L 262.180848 54.391671 
L 269.947703 53.971978 
L 277.714558 54.666819 
L 285.481413 53.412976 
L 293.248268 53.505031 
L 301.015124 54.069737 
L 308.781979 54.101588 
L 316.548834 53.867508 
L 324.315689 53.496778 
L 332.082544 53.50935 
L 339.849399 53.832957 
L 347.616254 52.967576 
L 355.38311 53.463532 
L 363.149965 53.385773 
L 370.91682 52.572562 
L 378.683675 55.29675 
" style="fill:none;stroke:#ff0000;stroke-linecap:square;stroke-width:1.5;"/>
   </g>
   <g id="line2d_47">
    <path clip-path="url(#pa56a7eb5a0)" d="M 231.113427 55.193305 
L 238.880282 50.335239 
L 246.647137 46.021396 
L 254.413993 41.32114 
L 262.180848 37.549504 
L 269.947703 34.07673 
L 277.714558 31.130049 
L 285.481413 28.433757 
L 293.248268 25.870184 
L 301.015124 23.410712 
L 308.781979 21.249776 
L 316.548834 19.392262 
L 324.315689 17.41785 
L 332.082544 16.27146 
L 339.849399 16.228888 
L 347.616254 18.01623 
L 355.38311 23.952379 
L 363.149965 36.211993 
L 370.91682 62.774282 
L 378.683675 126.192525 
" style="fill:none;stroke:#008000;stroke-linecap:square;stroke-width:1.5;"/>
   </g>
   <g id="line2d_48">
    <path clip-path="url(#pa56a7eb5a0)" d="M 231.113427 55.323548 
L 238.880282 50.530363 
L 246.647137 45.832154 
L 254.413993 41.535101 
L 262.180848 37.383264 
L 269.947703 33.994433 
L 277.714558 30.989427 
L 285.481413 28.450662 
L 293.248268 25.783008 
L 301.015124 23.476204 
L 308.781979 21.171897 
L 316.548834 19.144747 
L 324.315689 17.615972 
L 332.082544 16.629952 
L 339.849399 16.618836 
L 347.616254 18.590383 
L 355.38311 23.388702 
L 363.149965 33.861678 
L 370.91682 54.495593 
L 378.683675 88.89867 
" style="fill:none;stroke:#0000ff;stroke-linecap:square;stroke-width:1.5;"/>
   </g>
   <g id="patch_9">
    <path d="M 223.734915 131.690706 
L 223.734915 10.730706 
" style="fill:none;stroke:#000000;stroke-linecap:square;stroke-linejoin:miter;stroke-width:0.8;"/>
   </g>
   <g id="patch_10">
    <path d="M 386.062187 131.690706 
L 386.062187 10.730706 
" style="fill:none;stroke:#000000;stroke-linecap:square;stroke-linejoin:miter;stroke-width:0.8;"/>
   </g>
   <g id="patch_11">
    <path d="M 223.734915 131.690706 
L 386.062187 131.690706 
" style="fill:none;stroke:#000000;stroke-linecap:square;stroke-linejoin:miter;stroke-width:0.8;"/>
   </g>
   <g id="patch_12">
    <path d="M 223.734915 10.730706 
L 386.062187 10.730706 
" style="fill:none;stroke:#000000;stroke-linecap:square;stroke-linejoin:miter;stroke-width:0.8;"/>
   </g>
   <g id="legend_2">
    <g id="patch_13">
     <path d="M 391.662188 54.810706 
L 473.262187 54.810706 
Q 474.862188 54.810706 474.862188 53.210706 
L 474.862188 16.330706 
Q 474.862188 14.730706 473.262187 14.730706 
L 391.662188 14.730706 
Q 390.062187 14.730706 390.062187 16.330706 
L 390.062187 53.210706 
Q 390.062187 54.810706 391.662188 54.810706 
z
" style="fill:#ffffff;opacity:0.8;stroke:#cccccc;stroke-linejoin:miter;"/>
    </g>
    <g id="line2d_49">
     <path d="M 393.262187 21.210706 
L 409.262187 21.210706 
" style="fill:none;stroke:#ff0000;stroke-linecap:square;stroke-width:1.5;"/>
    </g>
    <g id="line2d_50"/>
    <g id="text_22">
     <!-- $\Delta D_q$ random -->
     <g transform="translate(415.662187 24.010706)scale(0.08 -0.08)">
      <use transform="translate(0 0.015625)" xlink:href="#DejaVuSans-916"/>
      <use transform="translate(68.408203 0.015625)" xlink:href="#DejaVuSans-Oblique-68"/>
      <use transform="translate(145.410156 -16.390625)scale(0.7)" xlink:href="#DejaVuSans-Oblique-113"/>
      <use transform="translate(192.578125 0.015625)" xlink:href="#DejaVuSans-32"/>
      <use transform="translate(224.365234 0.015625)" xlink:href="#DejaVuSans-114"/>
      <use transform="translate(265.478516 0.015625)" xlink:href="#DejaVuSans-97"/>
      <use transform="translate(326.757812 0.015625)" xlink:href="#DejaVuSans-110"/>
      <use transform="translate(390.136719 0.015625)" xlink:href="#DejaVuSans-100"/>
      <use transform="translate(453.613281 0.015625)" xlink:href="#DejaVuSans-111"/>
      <use transform="translate(514.794922 0.015625)" xlink:href="#DejaVuSans-109"/>
     </g>
    </g>
    <g id="line2d_51">
     <path d="M 393.262187 33.770706 
L 409.262187 33.770706 
" style="fill:none;stroke:#008000;stroke-linecap:square;stroke-width:1.5;"/>
    </g>
    <g id="line2d_52"/>
    <g id="text_23">
     <!-- $\Delta D_q$ degree -->
     <g transform="translate(415.662187 36.570706)scale(0.08 -0.08)">
      <use transform="translate(0 0.015625)" xlink:href="#DejaVuSans-916"/>
      <use transform="translate(68.408203 0.015625)" xlink:href="#DejaVuSans-Oblique-68"/>
      <use transform="translate(145.410156 -16.390625)scale(0.7)" xlink:href="#DejaVuSans-Oblique-113"/>
      <use transform="translate(192.578125 0.015625)" xlink:href="#DejaVuSans-32"/>
      <use transform="translate(224.365234 0.015625)" xlink:href="#DejaVuSans-100"/>
      <use transform="translate(287.841797 0.015625)" xlink:href="#DejaVuSans-101"/>
      <use transform="translate(349.365234 0.015625)" xlink:href="#DejaVuSans-103"/>
      <use transform="translate(412.841797 0.015625)" xlink:href="#DejaVuSans-114"/>
      <use transform="translate(453.955078 0.015625)" xlink:href="#DejaVuSans-101"/>
      <use transform="translate(515.478516 0.015625)" xlink:href="#DejaVuSans-101"/>
     </g>
    </g>
    <g id="line2d_53">
     <path d="M 393.262187 46.330706 
L 409.262187 46.330706 
" style="fill:none;stroke:#0000ff;stroke-linecap:square;stroke-width:1.5;"/>
    </g>
    <g id="line2d_54"/>
    <g id="text_24">
     <!-- $\Delta D_q$ centrality -->
     <g transform="translate(415.662187 49.130706)scale(0.08 -0.08)">
      <use transform="translate(0 0.015625)" xlink:href="#DejaVuSans-916"/>
      <use transform="translate(68.408203 0.015625)" xlink:href="#DejaVuSans-Oblique-68"/>
      <use transform="translate(145.410156 -16.390625)scale(0.7)" xlink:href="#DejaVuSans-Oblique-113"/>
      <use transform="translate(192.578125 0.015625)" xlink:href="#DejaVuSans-32"/>
      <use transform="translate(224.365234 0.015625)" xlink:href="#DejaVuSans-99"/>
      <use transform="translate(279.345703 0.015625)" xlink:href="#DejaVuSans-101"/>
      <use transform="translate(340.869141 0.015625)" xlink:href="#DejaVuSans-110"/>
      <use transform="translate(404.248047 0.015625)" xlink:href="#DejaVuSans-116"/>
      <use transform="translate(443.457031 0.015625)" xlink:href="#DejaVuSans-114"/>
      <use transform="translate(484.570312 0.015625)" xlink:href="#DejaVuSans-97"/>
      <use transform="translate(545.849609 0.015625)" xlink:href="#DejaVuSans-108"/>
      <use transform="translate(573.632812 0.015625)" xlink:href="#DejaVuSans-105"/>
      <use transform="translate(601.416016 0.015625)" xlink:href="#DejaVuSans-116"/>
      <use transform="translate(640.625 0.015625)" xlink:href="#DejaVuSans-121"/>
     </g>
    </g>
   </g>
  </g>
  <g id="axes_3">
   <g id="patch_14">
    <path d="M 28.942188 276.842706 
L 191.26946 276.842706 
L 191.26946 155.882706 
L 28.942188 155.882706 
z
" style="fill:#ffffff;"/>
   </g>
   <g id="matplotlib.axis_5">
    <g id="xtick_11">
     <g id="line2d_55">
      <path clip-path="url(#pebeae410a6)" d="M 36.3207 276.842706 
L 36.3207 155.882706 
" style="fill:none;stroke:#b0b0b0;stroke-linecap:square;stroke-width:0.8;"/>
     </g>
     <g id="line2d_56">
      <g>
       <use style="stroke:#000000;stroke-width:0.8;" x="36.3207" xlink:href="#m2b57b61852" y="276.842706"/>
      </g>
     </g>
     <g id="text_25">
      <!-- 0 -->
      <g transform="translate(33.13945 291.441144)scale(0.1 -0.1)">
       <use xlink:href="#DejaVuSans-48"/>
      </g>
     </g>
    </g>
    <g id="xtick_12">
     <g id="line2d_57">
      <path clip-path="url(#pebeae410a6)" d="M 75.154976 276.842706 
L 75.154976 155.882706 
" style="fill:none;stroke:#b0b0b0;stroke-linecap:square;stroke-width:0.8;"/>
     </g>
     <g id="line2d_58">
      <g>
       <use style="stroke:#000000;stroke-width:0.8;" x="75.154976" xlink:href="#m2b57b61852" y="276.842706"/>
      </g>
     </g>
     <g id="text_26">
      <!-- 25 -->
      <g transform="translate(68.792476 291.441144)scale(0.1 -0.1)">
       <use xlink:href="#DejaVuSans-50"/>
       <use x="63.623047" xlink:href="#DejaVuSans-53"/>
      </g>
     </g>
    </g>
    <g id="xtick_13">
     <g id="line2d_59">
      <path clip-path="url(#pebeae410a6)" d="M 113.989251 276.842706 
L 113.989251 155.882706 
" style="fill:none;stroke:#b0b0b0;stroke-linecap:square;stroke-width:0.8;"/>
     </g>
     <g id="line2d_60">
      <g>
       <use style="stroke:#000000;stroke-width:0.8;" x="113.989251" xlink:href="#m2b57b61852" y="276.842706"/>
      </g>
     </g>
     <g id="text_27">
      <!-- 50 -->
      <g transform="translate(107.626751 291.441144)scale(0.1 -0.1)">
       <use xlink:href="#DejaVuSans-53"/>
       <use x="63.623047" xlink:href="#DejaVuSans-48"/>
      </g>
     </g>
    </g>
    <g id="xtick_14">
     <g id="line2d_61">
      <path clip-path="url(#pebeae410a6)" d="M 152.823527 276.842706 
L 152.823527 155.882706 
" style="fill:none;stroke:#b0b0b0;stroke-linecap:square;stroke-width:0.8;"/>
     </g>
     <g id="line2d_62">
      <g>
       <use style="stroke:#000000;stroke-width:0.8;" x="152.823527" xlink:href="#m2b57b61852" y="276.842706"/>
      </g>
     </g>
     <g id="text_28">
      <!-- 75 -->
      <g transform="translate(146.461027 291.441144)scale(0.1 -0.1)">
       <use xlink:href="#DejaVuSans-55"/>
       <use x="63.623047" xlink:href="#DejaVuSans-53"/>
      </g>
     </g>
    </g>
    <g id="xtick_15">
     <g id="line2d_63">
      <path clip-path="url(#pebeae410a6)" d="M 191.657803 276.842706 
L 191.657803 155.882706 
" style="fill:none;stroke:#b0b0b0;stroke-linecap:square;stroke-width:0.8;"/>
     </g>
     <g id="line2d_64">
      <g>
       <use style="stroke:#000000;stroke-width:0.8;" x="191.657803" xlink:href="#m2b57b61852" y="276.842706"/>
      </g>
     </g>
     <g id="text_29">
      <!-- 100 -->
      <g transform="translate(182.114053 291.441144)scale(0.1 -0.1)">
       <use xlink:href="#DejaVuSans-49"/>
       <use x="63.623047" xlink:href="#DejaVuSans-48"/>
       <use x="127.246094" xlink:href="#DejaVuSans-48"/>
      </g>
     </g>
    </g>
   </g>
   <g id="matplotlib.axis_6">
    <g id="ytick_9">
     <g id="line2d_65">
      <path clip-path="url(#pebeae410a6)" d="M 28.942188 260.900358 
L 191.26946 260.900358 
" style="fill:none;stroke:#b0b0b0;stroke-linecap:square;stroke-width:0.8;"/>
     </g>
     <g id="line2d_66">
      <g>
       <use style="stroke:#000000;stroke-width:0.8;" x="28.942188" xlink:href="#mafd6172eda" y="260.900358"/>
      </g>
     </g>
     <g id="text_30">
      <!-- −3 -->
      <defs>
       <path d="M 40.578125 39.3125 
Q 47.65625 37.796875 51.625 33 
Q 55.609375 28.21875 55.609375 21.1875 
Q 55.609375 10.40625 48.1875 4.484375 
Q 40.765625 -1.421875 27.09375 -1.421875 
Q 22.515625 -1.421875 17.65625 -0.515625 
Q 12.796875 0.390625 7.625 2.203125 
L 7.625 11.71875 
Q 11.71875 9.328125 16.59375 8.109375 
Q 21.484375 6.890625 26.8125 6.890625 
Q 36.078125 6.890625 40.9375 10.546875 
Q 45.796875 14.203125 45.796875 21.1875 
Q 45.796875 27.640625 41.28125 31.265625 
Q 36.765625 34.90625 28.71875 34.90625 
L 20.21875 34.90625 
L 20.21875 43.015625 
L 29.109375 43.015625 
Q 36.375 43.015625 40.234375 45.921875 
Q 44.09375 48.828125 44.09375 54.296875 
Q 44.09375 59.90625 40.109375 62.90625 
Q 36.140625 65.921875 28.71875 65.921875 
Q 24.65625 65.921875 20.015625 65.03125 
Q 15.375 64.15625 9.8125 62.3125 
L 9.8125 71.09375 
Q 15.4375 72.65625 20.34375 73.4375 
Q 25.25 74.21875 29.59375 74.21875 
Q 40.828125 74.21875 47.359375 69.109375 
Q 53.90625 64.015625 53.90625 55.328125 
Q 53.90625 49.265625 50.4375 45.09375 
Q 46.96875 40.921875 40.578125 39.3125 
z
" id="DejaVuSans-51"/>
      </defs>
      <g transform="translate(7.2 264.699577)scale(0.1 -0.1)">
       <use xlink:href="#DejaVuSans-8722"/>
       <use x="83.789062" xlink:href="#DejaVuSans-51"/>
      </g>
     </g>
    </g>
    <g id="ytick_10">
     <g id="line2d_67">
      <path clip-path="url(#pebeae410a6)" d="M 28.942188 239.108228 
L 191.26946 239.108228 
" style="fill:none;stroke:#b0b0b0;stroke-linecap:square;stroke-width:0.8;"/>
     </g>
     <g id="line2d_68">
      <g>
       <use style="stroke:#000000;stroke-width:0.8;" x="28.942188" xlink:href="#mafd6172eda" y="239.108228"/>
      </g>
     </g>
     <g id="text_31">
      <!-- −2 -->
      <g transform="translate(7.2 242.907447)scale(0.1 -0.1)">
       <use xlink:href="#DejaVuSans-8722"/>
       <use x="83.789062" xlink:href="#DejaVuSans-50"/>
      </g>
     </g>
    </g>
    <g id="ytick_11">
     <g id="line2d_69">
      <path clip-path="url(#pebeae410a6)" d="M 28.942188 217.316099 
L 191.26946 217.316099 
" style="fill:none;stroke:#b0b0b0;stroke-linecap:square;stroke-width:0.8;"/>
     </g>
     <g id="line2d_70">
      <g>
       <use style="stroke:#000000;stroke-width:0.8;" x="28.942188" xlink:href="#mafd6172eda" y="217.316099"/>
      </g>
     </g>
     <g id="text_32">
      <!-- −1 -->
      <g transform="translate(7.2 221.115318)scale(0.1 -0.1)">
       <use xlink:href="#DejaVuSans-8722"/>
       <use x="83.789062" xlink:href="#DejaVuSans-49"/>
      </g>
     </g>
    </g>
    <g id="ytick_12">
     <g id="line2d_71">
      <path clip-path="url(#pebeae410a6)" d="M 28.942188 195.523969 
L 191.26946 195.523969 
" style="fill:none;stroke:#b0b0b0;stroke-linecap:square;stroke-width:0.8;"/>
     </g>
     <g id="line2d_72">
      <g>
       <use style="stroke:#000000;stroke-width:0.8;" x="28.942188" xlink:href="#mafd6172eda" y="195.523969"/>
      </g>
     </g>
     <g id="text_33">
      <!-- 0 -->
      <g transform="translate(15.579688 199.323188)scale(0.1 -0.1)">
       <use xlink:href="#DejaVuSans-48"/>
      </g>
     </g>
    </g>
    <g id="ytick_13">
     <g id="line2d_73">
      <path clip-path="url(#pebeae410a6)" d="M 28.942188 173.73184 
L 191.26946 173.73184 
" style="fill:none;stroke:#b0b0b0;stroke-linecap:square;stroke-width:0.8;"/>
     </g>
     <g id="line2d_74">
      <g>
       <use style="stroke:#000000;stroke-width:0.8;" x="28.942188" xlink:href="#mafd6172eda" y="173.73184"/>
      </g>
     </g>
     <g id="text_34">
      <!-- 1 -->
      <g transform="translate(15.579688 177.531059)scale(0.1 -0.1)">
       <use xlink:href="#DejaVuSans-49"/>
      </g>
     </g>
    </g>
   </g>
   <g id="line2d_75">
    <path clip-path="url(#pebeae410a6)" d="M 36.3207 161.380888 
L 44.087555 161.434187 
L 51.85441 161.665248 
L 59.621265 161.769912 
L 67.388121 162.15264 
L 75.154976 162.153934 
L 82.921831 162.197619 
L 90.688686 162.144744 
L 98.455541 162.655481 
L 106.222396 162.956511 
L 113.989251 163.234244 
L 121.756107 163.542087 
L 129.522962 164.190857 
L 137.289817 164.68642 
L 145.056672 166.176032 
L 152.823527 167.654302 
L 160.590382 173.441544 
L 168.357238 179.720493 
L 176.124093 188.466035 
L 183.890948 203.987927 
" style="fill:none;stroke:#ff0000;stroke-linecap:square;stroke-width:1.5;"/>
   </g>
   <g id="line2d_76">
    <path clip-path="url(#pebeae410a6)" d="M 36.3207 185.319803 
L 44.087555 182.534991 
L 51.85441 181.264002 
L 59.621265 181.068603 
L 67.388121 182.145898 
L 75.154976 184.507591 
L 82.921831 187.929581 
L 90.688686 192.479744 
L 98.455541 197.952726 
L 106.222396 203.981713 
L 113.989251 211.121674 
L 121.756107 219.612708 
L 129.522962 229.805474 
L 137.289817 243.086672 
L 145.056672 255.468932 
L 152.823527 263.802727 
L 160.590382 271.344525 
L 168.357238 271.344525 
L 176.124093 271.344525 
L 183.890948 271.344525 
" style="fill:none;stroke:#008000;stroke-linecap:square;stroke-width:1.5;"/>
   </g>
   <g id="line2d_77">
    <path clip-path="url(#pebeae410a6)" d="M 36.3207 184.356414 
L 44.087555 181.685379 
L 51.85441 180.532625 
L 59.621265 180.241567 
L 67.388121 181.134683 
L 75.154976 183.422854 
L 82.921831 186.737799 
L 90.688686 190.993215 
L 98.455541 196.147382 
L 106.222396 201.972983 
L 113.989251 208.646503 
L 121.756107 216.133254 
L 129.522962 223.785763 
L 137.289817 231.975052 
L 145.056672 239.196047 
L 152.823527 245.653602 
L 160.590382 248.41444 
L 168.357238 252.402215 
L 176.124093 266.249046 
L 183.890948 270.547317 
" style="fill:none;stroke:#0000ff;stroke-linecap:square;stroke-width:1.5;"/>
   </g>
   <g id="patch_15">
    <path d="M 28.942188 276.842706 
L 28.942188 155.882706 
" style="fill:none;stroke:#000000;stroke-linecap:square;stroke-linejoin:miter;stroke-width:0.8;"/>
   </g>
   <g id="patch_16">
    <path d="M 191.26946 276.842706 
L 191.26946 155.882706 
" style="fill:none;stroke:#000000;stroke-linecap:square;stroke-linejoin:miter;stroke-width:0.8;"/>
   </g>
   <g id="patch_17">
    <path d="M 28.942188 276.842706 
L 191.26946 276.842706 
" style="fill:none;stroke:#000000;stroke-linecap:square;stroke-linejoin:miter;stroke-width:0.8;"/>
   </g>
   <g id="patch_18">
    <path d="M 28.942188 155.882706 
L 191.26946 155.882706 
" style="fill:none;stroke:#000000;stroke-linecap:square;stroke-linejoin:miter;stroke-width:0.8;"/>
   </g>
   <g id="legend_3">
    <g id="patch_19">
     <path d="M 196.86946 199.962706 
L 278.46946 199.962706 
Q 280.06946 199.962706 280.06946 198.362706 
L 280.06946 161.482706 
Q 280.06946 159.882706 278.46946 159.882706 
L 196.86946 159.882706 
Q 195.26946 159.882706 195.26946 161.482706 
L 195.26946 198.362706 
Q 195.26946 199.962706 196.86946 199.962706 
z
" style="fill:#ffffff;opacity:0.8;stroke:#cccccc;stroke-linejoin:miter;"/>
    </g>
    <g id="line2d_78">
     <path d="M 198.46946 166.362706 
L 214.46946 166.362706 
" style="fill:none;stroke:#ff0000;stroke-linecap:square;stroke-width:1.5;"/>
    </g>
    <g id="line2d_79"/>
    <g id="text_35">
     <!-- $\Delta D_q$ random -->
     <g transform="translate(220.86946 169.162706)scale(0.08 -0.08)">
      <use transform="translate(0 0.015625)" xlink:href="#DejaVuSans-916"/>
      <use transform="translate(68.408203 0.015625)" xlink:href="#DejaVuSans-Oblique-68"/>
      <use transform="translate(145.410156 -16.390625)scale(0.7)" xlink:href="#DejaVuSans-Oblique-113"/>
      <use transform="translate(192.578125 0.015625)" xlink:href="#DejaVuSans-32"/>
      <use transform="translate(224.365234 0.015625)" xlink:href="#DejaVuSans-114"/>
      <use transform="translate(265.478516 0.015625)" xlink:href="#DejaVuSans-97"/>
      <use transform="translate(326.757812 0.015625)" xlink:href="#DejaVuSans-110"/>
      <use transform="translate(390.136719 0.015625)" xlink:href="#DejaVuSans-100"/>
      <use transform="translate(453.613281 0.015625)" xlink:href="#DejaVuSans-111"/>
      <use transform="translate(514.794922 0.015625)" xlink:href="#DejaVuSans-109"/>
     </g>
    </g>
    <g id="line2d_80">
     <path d="M 198.46946 178.922706 
L 214.46946 178.922706 
" style="fill:none;stroke:#008000;stroke-linecap:square;stroke-width:1.5;"/>
    </g>
    <g id="line2d_81"/>
    <g id="text_36">
     <!-- $\Delta D_q$ degree -->
     <g transform="translate(220.86946 181.722706)scale(0.08 -0.08)">
      <use transform="translate(0 0.015625)" xlink:href="#DejaVuSans-916"/>
      <use transform="translate(68.408203 0.015625)" xlink:href="#DejaVuSans-Oblique-68"/>
      <use transform="translate(145.410156 -16.390625)scale(0.7)" xlink:href="#DejaVuSans-Oblique-113"/>
      <use transform="translate(192.578125 0.015625)" xlink:href="#DejaVuSans-32"/>
      <use transform="translate(224.365234 0.015625)" xlink:href="#DejaVuSans-100"/>
      <use transform="translate(287.841797 0.015625)" xlink:href="#DejaVuSans-101"/>
      <use transform="translate(349.365234 0.015625)" xlink:href="#DejaVuSans-103"/>
      <use transform="translate(412.841797 0.015625)" xlink:href="#DejaVuSans-114"/>
      <use transform="translate(453.955078 0.015625)" xlink:href="#DejaVuSans-101"/>
      <use transform="translate(515.478516 0.015625)" xlink:href="#DejaVuSans-101"/>
     </g>
    </g>
    <g id="line2d_82">
     <path d="M 198.46946 191.482706 
L 214.46946 191.482706 
" style="fill:none;stroke:#0000ff;stroke-linecap:square;stroke-width:1.5;"/>
    </g>
    <g id="line2d_83"/>
    <g id="text_37">
     <!-- $\Delta D_q$ centrality -->
     <g transform="translate(220.86946 194.282706)scale(0.08 -0.08)">
      <use transform="translate(0 0.015625)" xlink:href="#DejaVuSans-916"/>
      <use transform="translate(68.408203 0.015625)" xlink:href="#DejaVuSans-Oblique-68"/>
      <use transform="translate(145.410156 -16.390625)scale(0.7)" xlink:href="#DejaVuSans-Oblique-113"/>
      <use transform="translate(192.578125 0.015625)" xlink:href="#DejaVuSans-32"/>
      <use transform="translate(224.365234 0.015625)" xlink:href="#DejaVuSans-99"/>
      <use transform="translate(279.345703 0.015625)" xlink:href="#DejaVuSans-101"/>
      <use transform="translate(340.869141 0.015625)" xlink:href="#DejaVuSans-110"/>
      <use transform="translate(404.248047 0.015625)" xlink:href="#DejaVuSans-116"/>
      <use transform="translate(443.457031 0.015625)" xlink:href="#DejaVuSans-114"/>
      <use transform="translate(484.570312 0.015625)" xlink:href="#DejaVuSans-97"/>
      <use transform="translate(545.849609 0.015625)" xlink:href="#DejaVuSans-108"/>
      <use transform="translate(573.632812 0.015625)" xlink:href="#DejaVuSans-105"/>
      <use transform="translate(601.416016 0.015625)" xlink:href="#DejaVuSans-116"/>
      <use transform="translate(640.625 0.015625)" xlink:href="#DejaVuSans-121"/>
     </g>
    </g>
   </g>
  </g>
  <g id="axes_4">
   <g id="patch_20">
    <path d="M 223.734915 276.842706 
L 386.062187 276.842706 
L 386.062187 155.882706 
L 223.734915 155.882706 
z
" style="fill:#ffffff;"/>
   </g>
   <g id="matplotlib.axis_7">
    <g id="xtick_16">
     <g id="line2d_84">
      <path clip-path="url(#pf1f4eef0a6)" d="M 231.113427 276.842706 
L 231.113427 155.882706 
" style="fill:none;stroke:#b0b0b0;stroke-linecap:square;stroke-width:0.8;"/>
     </g>
     <g id="line2d_85">
      <g>
       <use style="stroke:#000000;stroke-width:0.8;" x="231.113427" xlink:href="#m2b57b61852" y="276.842706"/>
      </g>
     </g>
     <g id="text_38">
      <!-- 0 -->
      <g transform="translate(227.932177 291.441144)scale(0.1 -0.1)">
       <use xlink:href="#DejaVuSans-48"/>
      </g>
     </g>
    </g>
    <g id="xtick_17">
     <g id="line2d_86">
      <path clip-path="url(#pf1f4eef0a6)" d="M 269.947703 276.842706 
L 269.947703 155.882706 
" style="fill:none;stroke:#b0b0b0;stroke-linecap:square;stroke-width:0.8;"/>
     </g>
     <g id="line2d_87">
      <g>
       <use style="stroke:#000000;stroke-width:0.8;" x="269.947703" xlink:href="#m2b57b61852" y="276.842706"/>
      </g>
     </g>
     <g id="text_39">
      <!-- 25 -->
      <g transform="translate(263.585203 291.441144)scale(0.1 -0.1)">
       <use xlink:href="#DejaVuSans-50"/>
       <use x="63.623047" xlink:href="#DejaVuSans-53"/>
      </g>
     </g>
    </g>
    <g id="xtick_18">
     <g id="line2d_88">
      <path clip-path="url(#pf1f4eef0a6)" d="M 308.781979 276.842706 
L 308.781979 155.882706 
" style="fill:none;stroke:#b0b0b0;stroke-linecap:square;stroke-width:0.8;"/>
     </g>
     <g id="line2d_89">
      <g>
       <use style="stroke:#000000;stroke-width:0.8;" x="308.781979" xlink:href="#m2b57b61852" y="276.842706"/>
      </g>
     </g>
     <g id="text_40">
      <!-- 50 -->
      <g transform="translate(302.419479 291.441144)scale(0.1 -0.1)">
       <use xlink:href="#DejaVuSans-53"/>
       <use x="63.623047" xlink:href="#DejaVuSans-48"/>
      </g>
     </g>
    </g>
    <g id="xtick_19">
     <g id="line2d_90">
      <path clip-path="url(#pf1f4eef0a6)" d="M 347.616254 276.842706 
L 347.616254 155.882706 
" style="fill:none;stroke:#b0b0b0;stroke-linecap:square;stroke-width:0.8;"/>
     </g>
     <g id="line2d_91">
      <g>
       <use style="stroke:#000000;stroke-width:0.8;" x="347.616254" xlink:href="#m2b57b61852" y="276.842706"/>
      </g>
     </g>
     <g id="text_41">
      <!-- 75 -->
      <g transform="translate(341.253754 291.441144)scale(0.1 -0.1)">
       <use xlink:href="#DejaVuSans-55"/>
       <use x="63.623047" xlink:href="#DejaVuSans-53"/>
      </g>
     </g>
    </g>
    <g id="xtick_20">
     <g id="line2d_92">
      <path clip-path="url(#pf1f4eef0a6)" d="M 386.45053 276.842706 
L 386.45053 155.882706 
" style="fill:none;stroke:#b0b0b0;stroke-linecap:square;stroke-width:0.8;"/>
     </g>
     <g id="line2d_93">
      <g>
       <use style="stroke:#000000;stroke-width:0.8;" x="386.45053" xlink:href="#m2b57b61852" y="276.842706"/>
      </g>
     </g>
     <g id="text_42">
      <!-- 100 -->
      <g transform="translate(376.90678 291.441144)scale(0.1 -0.1)">
       <use xlink:href="#DejaVuSans-49"/>
       <use x="63.623047" xlink:href="#DejaVuSans-48"/>
       <use x="127.246094" xlink:href="#DejaVuSans-48"/>
      </g>
     </g>
    </g>
   </g>
   <g id="matplotlib.axis_8">
    <g id="ytick_14">
     <g id="line2d_94">
      <path clip-path="url(#pf1f4eef0a6)" d="M 223.734915 260.638028 
L 386.062187 260.638028 
" style="fill:none;stroke:#b0b0b0;stroke-linecap:square;stroke-width:0.8;"/>
     </g>
     <g id="line2d_95">
      <g>
       <use style="stroke:#000000;stroke-width:0.8;" x="223.734915" xlink:href="#mafd6172eda" y="260.638028"/>
      </g>
     </g>
     <g id="text_43">
      <!-- 0.5 -->
      <defs>
       <path d="M 10.6875 12.40625 
L 21 12.40625 
L 21 0 
L 10.6875 0 
z
" id="DejaVuSans-46"/>
      </defs>
      <g transform="translate(200.83179 264.437246)scale(0.1 -0.1)">
       <use xlink:href="#DejaVuSans-48"/>
       <use x="63.623047" xlink:href="#DejaVuSans-46"/>
       <use x="95.410156" xlink:href="#DejaVuSans-53"/>
      </g>
     </g>
    </g>
    <g id="ytick_15">
     <g id="line2d_96">
      <path clip-path="url(#pf1f4eef0a6)" d="M 223.734915 226.431211 
L 386.062187 226.431211 
" style="fill:none;stroke:#b0b0b0;stroke-linecap:square;stroke-width:0.8;"/>
     </g>
     <g id="line2d_97">
      <g>
       <use style="stroke:#000000;stroke-width:0.8;" x="223.734915" xlink:href="#mafd6172eda" y="226.431211"/>
      </g>
     </g>
     <g id="text_44">
      <!-- 1.0 -->
      <g transform="translate(200.83179 230.230429)scale(0.1 -0.1)">
       <use xlink:href="#DejaVuSans-49"/>
       <use x="63.623047" xlink:href="#DejaVuSans-46"/>
       <use x="95.410156" xlink:href="#DejaVuSans-48"/>
      </g>
     </g>
    </g>
    <g id="ytick_16">
     <g id="line2d_98">
      <path clip-path="url(#pf1f4eef0a6)" d="M 223.734915 192.224394 
L 386.062187 192.224394 
" style="fill:none;stroke:#b0b0b0;stroke-linecap:square;stroke-width:0.8;"/>
     </g>
     <g id="line2d_99">
      <g>
       <use style="stroke:#000000;stroke-width:0.8;" x="223.734915" xlink:href="#mafd6172eda" y="192.224394"/>
      </g>
     </g>
     <g id="text_45">
      <!-- 1.5 -->
      <g transform="translate(200.83179 196.023612)scale(0.1 -0.1)">
       <use xlink:href="#DejaVuSans-49"/>
       <use x="63.623047" xlink:href="#DejaVuSans-46"/>
       <use x="95.410156" xlink:href="#DejaVuSans-53"/>
      </g>
     </g>
    </g>
    <g id="ytick_17">
     <g id="line2d_100">
      <path clip-path="url(#pf1f4eef0a6)" d="M 223.734915 158.017577 
L 386.062187 158.017577 
" style="fill:none;stroke:#b0b0b0;stroke-linecap:square;stroke-width:0.8;"/>
     </g>
     <g id="line2d_101">
      <g>
       <use style="stroke:#000000;stroke-width:0.8;" x="223.734915" xlink:href="#mafd6172eda" y="158.017577"/>
      </g>
     </g>
     <g id="text_46">
      <!-- 2.0 -->
      <g transform="translate(200.83179 161.816796)scale(0.1 -0.1)">
       <use xlink:href="#DejaVuSans-50"/>
       <use x="63.623047" xlink:href="#DejaVuSans-46"/>
       <use x="95.410156" xlink:href="#DejaVuSans-48"/>
      </g>
     </g>
    </g>
   </g>
   <g id="line2d_102">
    <path clip-path="url(#pf1f4eef0a6)" d="M 231.113427 260.106737 
L 238.880282 260.015615 
L 246.647137 260.051293 
L 254.413993 260.270426 
L 262.180848 260.963586 
L 269.947703 261.037334 
L 277.714558 261.477151 
L 285.481413 261.584656 
L 293.248268 261.91356 
L 301.015124 262.215885 
L 308.781979 262.015267 
L 316.548834 260.957915 
L 324.315689 262.142101 
L 332.082544 262.507607 
L 339.849399 262.399521 
L 347.616254 262.608346 
L 355.38311 263.457533 
L 363.149965 263.506971 
L 370.91682 269.170869 
L 378.683675 271.344525 
" style="fill:none;stroke:#ff0000;stroke-linecap:square;stroke-width:1.5;"/>
   </g>
   <g id="line2d_103">
    <path clip-path="url(#pf1f4eef0a6)" d="M 231.113427 265.581199 
L 238.880282 260.559439 
L 246.647137 255.833043 
L 254.413993 250.327741 
L 262.180848 244.520183 
L 269.947703 238.285489 
L 277.714558 231.71589 
L 285.481413 225.837819 
L 293.248268 219.964494 
L 301.015124 214.427141 
L 308.781979 209.534266 
L 316.548834 204.710631 
L 324.315689 200.026091 
L 332.082544 195.361551 
L 339.849399 190.682227 
L 347.616254 185.656143 
L 355.38311 179.873772 
L 363.149965 172.150959 
L 370.91682 161.380888 
L 378.683675 181.935329 
" style="fill:none;stroke:#008000;stroke-linecap:square;stroke-width:1.5;"/>
   </g>
   <g id="line2d_104">
    <path clip-path="url(#pf1f4eef0a6)" d="M 231.113427 265.200505 
L 238.880282 260.426733 
L 246.647137 255.059037 
L 254.413993 250.460187 
L 262.180848 244.727619 
L 269.947703 238.363423 
L 277.714558 231.646151 
L 285.481413 225.408764 
L 293.248268 219.813626 
L 301.015124 214.268542 
L 308.781979 209.277024 
L 316.548834 204.652097 
L 324.315689 199.925162 
L 332.082544 195.342185 
L 339.849399 191.00712 
L 347.616254 186.39467 
L 355.38311 180.579994 
L 363.149965 174.015608 
L 370.91682 164.980305 
L 378.683675 175.616267 
" style="fill:none;stroke:#0000ff;stroke-linecap:square;stroke-width:1.5;"/>
   </g>
   <g id="patch_21">
    <path d="M 223.734915 276.842706 
L 223.734915 155.882706 
" style="fill:none;stroke:#000000;stroke-linecap:square;stroke-linejoin:miter;stroke-width:0.8;"/>
   </g>
   <g id="patch_22">
    <path d="M 386.062187 276.842706 
L 386.062187 155.882706 
" style="fill:none;stroke:#000000;stroke-linecap:square;stroke-linejoin:miter;stroke-width:0.8;"/>
   </g>
   <g id="patch_23">
    <path d="M 223.734915 276.842706 
L 386.062187 276.842706 
" style="fill:none;stroke:#000000;stroke-linecap:square;stroke-linejoin:miter;stroke-width:0.8;"/>
   </g>
   <g id="patch_24">
    <path d="M 223.734915 155.882706 
L 386.062187 155.882706 
" style="fill:none;stroke:#000000;stroke-linecap:square;stroke-linejoin:miter;stroke-width:0.8;"/>
   </g>
   <g id="legend_4">
    <g id="patch_25">
     <path d="M 391.662188 199.962706 
L 473.262187 199.962706 
Q 474.862188 199.962706 474.862188 198.362706 
L 474.862188 161.482706 
Q 474.862188 159.882706 473.262187 159.882706 
L 391.662188 159.882706 
Q 390.062187 159.882706 390.062187 161.482706 
L 390.062187 198.362706 
Q 390.062187 199.962706 391.662188 199.962706 
z
" style="fill:#ffffff;opacity:0.8;stroke:#cccccc;stroke-linejoin:miter;"/>
    </g>
    <g id="line2d_105">
     <path d="M 393.262187 166.362706 
L 409.262187 166.362706 
" style="fill:none;stroke:#ff0000;stroke-linecap:square;stroke-width:1.5;"/>
    </g>
    <g id="line2d_106"/>
    <g id="text_47">
     <!-- $\Delta D_q$ random -->
     <g transform="translate(415.662187 169.162706)scale(0.08 -0.08)">
      <use transform="translate(0 0.015625)" xlink:href="#DejaVuSans-916"/>
      <use transform="translate(68.408203 0.015625)" xlink:href="#DejaVuSans-Oblique-68"/>
      <use transform="translate(145.410156 -16.390625)scale(0.7)" xlink:href="#DejaVuSans-Oblique-113"/>
      <use transform="translate(192.578125 0.015625)" xlink:href="#DejaVuSans-32"/>
      <use transform="translate(224.365234 0.015625)" xlink:href="#DejaVuSans-114"/>
      <use transform="translate(265.478516 0.015625)" xlink:href="#DejaVuSans-97"/>
      <use transform="translate(326.757812 0.015625)" xlink:href="#DejaVuSans-110"/>
      <use transform="translate(390.136719 0.015625)" xlink:href="#DejaVuSans-100"/>
      <use transform="translate(453.613281 0.015625)" xlink:href="#DejaVuSans-111"/>
      <use transform="translate(514.794922 0.015625)" xlink:href="#DejaVuSans-109"/>
     </g>
    </g>
    <g id="line2d_107">
     <path d="M 393.262187 178.922706 
L 409.262187 178.922706 
" style="fill:none;stroke:#008000;stroke-linecap:square;stroke-width:1.5;"/>
    </g>
    <g id="line2d_108"/>
    <g id="text_48">
     <!-- $\Delta D_q$ degree -->
     <g transform="translate(415.662187 181.722706)scale(0.08 -0.08)">
      <use transform="translate(0 0.015625)" xlink:href="#DejaVuSans-916"/>
      <use transform="translate(68.408203 0.015625)" xlink:href="#DejaVuSans-Oblique-68"/>
      <use transform="translate(145.410156 -16.390625)scale(0.7)" xlink:href="#DejaVuSans-Oblique-113"/>
      <use transform="translate(192.578125 0.015625)" xlink:href="#DejaVuSans-32"/>
      <use transform="translate(224.365234 0.015625)" xlink:href="#DejaVuSans-100"/>
      <use transform="translate(287.841797 0.015625)" xlink:href="#DejaVuSans-101"/>
      <use transform="translate(349.365234 0.015625)" xlink:href="#DejaVuSans-103"/>
      <use transform="translate(412.841797 0.015625)" xlink:href="#DejaVuSans-114"/>
      <use transform="translate(453.955078 0.015625)" xlink:href="#DejaVuSans-101"/>
      <use transform="translate(515.478516 0.015625)" xlink:href="#DejaVuSans-101"/>
     </g>
    </g>
    <g id="line2d_109">
     <path d="M 393.262187 191.482706 
L 409.262187 191.482706 
" style="fill:none;stroke:#0000ff;stroke-linecap:square;stroke-width:1.5;"/>
    </g>
    <g id="line2d_110"/>
    <g id="text_49">
     <!-- $\Delta D_q$ centrality -->
     <g transform="translate(415.662187 194.282706)scale(0.08 -0.08)">
      <use transform="translate(0 0.015625)" xlink:href="#DejaVuSans-916"/>
      <use transform="translate(68.408203 0.015625)" xlink:href="#DejaVuSans-Oblique-68"/>
      <use transform="translate(145.410156 -16.390625)scale(0.7)" xlink:href="#DejaVuSans-Oblique-113"/>
      <use transform="translate(192.578125 0.015625)" xlink:href="#DejaVuSans-32"/>
      <use transform="translate(224.365234 0.015625)" xlink:href="#DejaVuSans-99"/>
      <use transform="translate(279.345703 0.015625)" xlink:href="#DejaVuSans-101"/>
      <use transform="translate(340.869141 0.015625)" xlink:href="#DejaVuSans-110"/>
      <use transform="translate(404.248047 0.015625)" xlink:href="#DejaVuSans-116"/>
      <use transform="translate(443.457031 0.015625)" xlink:href="#DejaVuSans-114"/>
      <use transform="translate(484.570312 0.015625)" xlink:href="#DejaVuSans-97"/>
      <use transform="translate(545.849609 0.015625)" xlink:href="#DejaVuSans-108"/>
      <use transform="translate(573.632812 0.015625)" xlink:href="#DejaVuSans-105"/>
      <use transform="translate(601.416016 0.015625)" xlink:href="#DejaVuSans-116"/>
      <use transform="translate(640.625 0.015625)" xlink:href="#DejaVuSans-121"/>
     </g>
    </g>
   </g>
  </g>
 </g>
 <defs>
  <clipPath id="p924695f91a">
   <rect height="120.96" width="162.327273" x="28.942188" y="10.730706"/>
  </clipPath>
  <clipPath id="pa56a7eb5a0">
   <rect height="120.96" width="162.327273" x="223.734915" y="10.730706"/>
  </clipPath>
  <clipPath id="pebeae410a6">
   <rect height="120.96" width="162.327273" x="28.942188" y="155.882706"/>
  </clipPath>
  <clipPath id="pf1f4eef0a6">
   <rect height="120.96" width="162.327273" x="223.734915" y="155.882706"/>
  </clipPath>
 </defs>
</svg>
